solid CATIA STL
  facet normal  1.000000e+00  0.000000e+00  0.000000e+00
    outer loop
      vertex  1.400000e+02  3.000000e+01  3.000000e+01
      vertex  1.400000e+02  3.000000e+01  0.000000e+00
      vertex  1.400000e+02  4.000000e+01  3.000000e+01
    endloop
  endfacet
  facet normal  1.000000e+00  0.000000e+00  0.000000e+00
    outer loop
      vertex  1.400000e+02  4.000000e+01  3.000000e+01
      vertex  1.400000e+02  3.000000e+01  0.000000e+00
      vertex  1.400000e+02  4.000000e+01  0.000000e+00
    endloop
  endfacet
  facet normal  1.000000e+00  0.000000e+00  0.000000e+00
    outer loop
      vertex  1.400000e+02 -4.000000e+01  3.000000e+01
      vertex  1.400000e+02 -4.000000e+01  0.000000e+00
      vertex  1.400000e+02 -3.000000e+01  3.000000e+01
    endloop
  endfacet
  facet normal  1.000000e+00  0.000000e+00  0.000000e+00
    outer loop
      vertex  1.400000e+02 -3.000000e+01  3.000000e+01
      vertex  1.400000e+02 -4.000000e+01  0.000000e+00
      vertex  1.400000e+02 -3.000000e+01  0.000000e+00
    endloop
  endfacet
  facet normal  0.000000e+00  0.000000e+00 -1.000000e+00
    outer loop
      vertex  8.000000e+01 -4.000000e+01  0.000000e+00
      vertex  8.000000e+01  4.000000e+01  0.000000e+00
      vertex  1.100000e+02  1.699662e-14  0.000000e+00
    endloop
  endfacet
  facet normal  0.000000e+00  -0.000000e+00 -1.000000e+00
    outer loop
      vertex  8.000000e+01 -4.000000e+01  0.000000e+00
      vertex  1.100000e+02  1.699662e-14  0.000000e+00
      vertex  1.107522e+02 -6.675628e+00  0.000000e+00
    endloop
  endfacet
  facet normal  0.000000e+00  -0.000000e+00 -1.000000e+00
    outer loop
      vertex  8.000000e+01 -4.000000e+01  0.000000e+00
      vertex  1.107522e+02 -6.675628e+00  0.000000e+00
      vertex  1.129709e+02 -1.301651e+01  0.000000e+00
    endloop
  endfacet
  facet normal  0.000000e+00  -0.000000e+00 -1.000000e+00
    outer loop
      vertex  8.000000e+01 -4.000000e+01  0.000000e+00
      vertex  1.129709e+02 -1.301651e+01  0.000000e+00
      vertex  1.165451e+02 -1.870469e+01  0.000000e+00
    endloop
  endfacet
  facet normal  0.000000e+00  -0.000000e+00 -1.000000e+00
    outer loop
      vertex  8.000000e+01 -4.000000e+01  0.000000e+00
      vertex  1.165451e+02 -1.870469e+01  0.000000e+00
      vertex  1.212953e+02 -2.345494e+01  0.000000e+00
    endloop
  endfacet
  facet normal  0.000000e+00  -0.000000e+00 -1.000000e+00
    outer loop
      vertex  8.000000e+01 -4.000000e+01  0.000000e+00
      vertex  1.212953e+02 -2.345494e+01  0.000000e+00
      vertex  1.269835e+02 -2.702907e+01  0.000000e+00
    endloop
  endfacet
  facet normal  0.000000e+00  -0.000000e+00 -1.000000e+00
    outer loop
      vertex  8.000000e+01 -4.000000e+01  0.000000e+00
      vertex  1.269835e+02 -2.702907e+01  0.000000e+00
      vertex  1.333244e+02 -2.924784e+01  0.000000e+00
    endloop
  endfacet
  facet normal  0.000000e+00  -0.000000e+00 -9.999999e-01
    outer loop
      vertex  8.000000e+01 -4.000000e+01  0.000000e+00
      vertex  1.333244e+02 -2.924784e+01  0.000000e+00
      vertex  1.400000e+02 -3.000000e+01  0.000000e+00
    endloop
  endfacet
  facet normal  0.000000e+00  -0.000000e+00 -1.000000e+00
    outer loop
      vertex  8.000000e+01 -4.000000e+01  0.000000e+00
      vertex  1.400000e+02 -3.000000e+01  0.000000e+00
      vertex  1.400000e+02 -4.000000e+01  0.000000e+00
    endloop
  endfacet
  facet normal  -0.000000e+00  -0.000000e+00 -1.000000e+00
    outer loop
      vertex  8.000000e+01  4.000000e+01  0.000000e+00
      vertex  1.400000e+02  4.000000e+01  0.000000e+00
      vertex  1.400000e+02  3.000000e+01  0.000000e+00
    endloop
  endfacet
  facet normal  -0.000000e+00  0.000000e+00 -9.999999e-01
    outer loop
      vertex  8.000000e+01  4.000000e+01  0.000000e+00
      vertex  1.400000e+02  3.000000e+01  0.000000e+00
      vertex  1.333244e+02  2.924784e+01  0.000000e+00
    endloop
  endfacet
  facet normal  -0.000000e+00  0.000000e+00 -1.000000e+00
    outer loop
      vertex  8.000000e+01  4.000000e+01  0.000000e+00
      vertex  1.333244e+02  2.924784e+01  0.000000e+00
      vertex  1.269835e+02  2.702907e+01  0.000000e+00
    endloop
  endfacet
  facet normal  -0.000000e+00  0.000000e+00 -1.000000e+00
    outer loop
      vertex  8.000000e+01  4.000000e+01  0.000000e+00
      vertex  1.269835e+02  2.702907e+01  0.000000e+00
      vertex  1.212953e+02  2.345494e+01  0.000000e+00
    endloop
  endfacet
  facet normal  -0.000000e+00  0.000000e+00 -1.000000e+00
    outer loop
      vertex  8.000000e+01  4.000000e+01  0.000000e+00
      vertex  1.212953e+02  2.345494e+01  0.000000e+00
      vertex  1.165451e+02  1.870469e+01  0.000000e+00
    endloop
  endfacet
  facet normal  -0.000000e+00  0.000000e+00 -1.000000e+00
    outer loop
      vertex  8.000000e+01  4.000000e+01  0.000000e+00
      vertex  1.165451e+02  1.870469e+01  0.000000e+00
      vertex  1.129709e+02  1.301651e+01  0.000000e+00
    endloop
  endfacet
  facet normal  -0.000000e+00  0.000000e+00 -1.000000e+00
    outer loop
      vertex  8.000000e+01  4.000000e+01  0.000000e+00
      vertex  1.129709e+02  1.301651e+01  0.000000e+00
      vertex  1.107522e+02  6.675628e+00  0.000000e+00
    endloop
  endfacet
  facet normal  -0.000000e+00  0.000000e+00 -1.000000e+00
    outer loop
      vertex  8.000000e+01  4.000000e+01  0.000000e+00
      vertex  1.107522e+02  6.675628e+00  0.000000e+00
      vertex  1.100000e+02  1.699662e-14  0.000000e+00
    endloop
  endfacet
  facet normal  0.000000e+00  -0.000000e+00  1.000000e+00
    outer loop
      vertex  7.000000e+01  2.000000e+01  3.000000e+01
      vertex  1.165451e+02  1.870469e+01  3.000000e+01
      vertex  1.212953e+02  2.345494e+01  3.000000e+01
    endloop
  endfacet
  facet normal  0.000000e+00  -0.000000e+00  1.000000e+00
    outer loop
      vertex  7.000000e+01  2.000000e+01  3.000000e+01
      vertex  1.212953e+02  2.345494e+01  3.000000e+01
      vertex  1.269835e+02  2.702907e+01  3.000000e+01
    endloop
  endfacet
  facet normal  0.000000e+00  -0.000000e+00  1.000000e+00
    outer loop
      vertex  7.000000e+01  2.000000e+01  3.000000e+01
      vertex  1.269835e+02  2.702907e+01  3.000000e+01
      vertex  1.333244e+02  2.924784e+01  3.000000e+01
    endloop
  endfacet
  facet normal  0.000000e+00  0.000000e+00  1.000000e+00
    outer loop
      vertex  7.000000e+01  2.000000e+01  3.000000e+01
      vertex  1.333244e+02  2.924784e+01  3.000000e+01
      vertex  7.000000e+01  4.000000e+01  3.000000e+01
    endloop
  endfacet
  facet normal  0.000000e+00  -0.000000e+00  1.000000e+00
    outer loop
      vertex  0.000000e+00 -2.000000e+01  3.000000e+01
      vertex  7.000000e+01 -2.000000e+01  3.000000e+01
      vertex  1.165451e+02 -1.870469e+01  3.000000e+01
    endloop
  endfacet
  facet normal  0.000000e+00  0.000000e+00  1.000000e+00
    outer loop
      vertex  0.000000e+00 -2.000000e+01  3.000000e+01
      vertex  1.165451e+02 -1.870469e+01  3.000000e+01
      vertex  1.129709e+02 -1.301651e+01  3.000000e+01
    endloop
  endfacet
  facet normal  0.000000e+00  0.000000e+00  1.000000e+00
    outer loop
      vertex  0.000000e+00 -2.000000e+01  3.000000e+01
      vertex  1.129709e+02 -1.301651e+01  3.000000e+01
      vertex  1.107522e+02 -6.675628e+00  3.000000e+01
    endloop
  endfacet
  facet normal  0.000000e+00  0.000000e+00  1.000000e+00
    outer loop
      vertex  0.000000e+00 -2.000000e+01  3.000000e+01
      vertex  1.107522e+02 -6.675628e+00  3.000000e+01
      vertex  1.100000e+02  1.699662e-14  3.000000e+01
    endloop
  endfacet
  facet normal  0.000000e+00  -0.000000e+00  1.000000e+00
    outer loop
      vertex  0.000000e+00 -2.000000e+01  3.000000e+01
      vertex  1.100000e+02  1.699662e-14  3.000000e+01
      vertex  1.107522e+02  6.675628e+00  3.000000e+01
    endloop
  endfacet
  facet normal  0.000000e+00  -0.000000e+00  1.000000e+00
    outer loop
      vertex  0.000000e+00 -2.000000e+01  3.000000e+01
      vertex  1.107522e+02  6.675628e+00  3.000000e+01
      vertex  1.129709e+02  1.301651e+01  3.000000e+01
    endloop
  endfacet
  facet normal  0.000000e+00  -0.000000e+00  1.000000e+00
    outer loop
      vertex  0.000000e+00 -2.000000e+01  3.000000e+01
      vertex  1.129709e+02  1.301651e+01  3.000000e+01
      vertex  1.165451e+02  1.870469e+01  3.000000e+01
    endloop
  endfacet
  facet normal  0.000000e+00  0.000000e+00  9.999999e-01
    outer loop
      vertex  0.000000e+00 -2.000000e+01  3.000000e+01
      vertex  1.165451e+02  1.870469e+01  3.000000e+01
      vertex  7.000000e+01  2.000000e+01  3.000000e+01
    endloop
  endfacet
  facet normal  0.000000e+00  0.000000e+00  1.000000e+00
    outer loop
      vertex  0.000000e+00 -2.000000e+01  3.000000e+01
      vertex  7.000000e+01  2.000000e+01  3.000000e+01
      vertex  0.000000e+00  2.000000e+01  3.000000e+01
    endloop
  endfacet
  facet normal  0.000000e+00  -0.000000e+00  1.000000e+00
    outer loop
      vertex  7.000000e+01 -4.000000e+01  3.000000e+01
      vertex  1.400000e+02 -4.000000e+01  3.000000e+01
      vertex  1.400000e+02 -3.000000e+01  3.000000e+01
    endloop
  endfacet
  facet normal  0.000000e+00  0.000000e+00  9.999999e-01
    outer loop
      vertex  7.000000e+01 -4.000000e+01  3.000000e+01
      vertex  1.400000e+02 -3.000000e+01  3.000000e+01
      vertex  1.333244e+02 -2.924784e+01  3.000000e+01
    endloop
  endfacet
  facet normal  0.000000e+00  0.000000e+00  1.000000e+00
    outer loop
      vertex  7.000000e+01 -4.000000e+01  3.000000e+01
      vertex  1.333244e+02 -2.924784e+01  3.000000e+01
      vertex  1.269835e+02 -2.702907e+01  3.000000e+01
    endloop
  endfacet
  facet normal  0.000000e+00  0.000000e+00  1.000000e+00
    outer loop
      vertex  7.000000e+01 -4.000000e+01  3.000000e+01
      vertex  1.269835e+02 -2.702907e+01  3.000000e+01
      vertex  1.212953e+02 -2.345494e+01  3.000000e+01
    endloop
  endfacet
  facet normal  0.000000e+00  0.000000e+00  1.000000e+00
    outer loop
      vertex  7.000000e+01 -4.000000e+01  3.000000e+01
      vertex  1.212953e+02 -2.345494e+01  3.000000e+01
      vertex  1.165451e+02 -1.870469e+01  3.000000e+01
    endloop
  endfacet
  facet normal  0.000000e+00  0.000000e+00  1.000000e+00
    outer loop
      vertex  7.000000e+01 -4.000000e+01  3.000000e+01
      vertex  1.165451e+02 -1.870469e+01  3.000000e+01
      vertex  7.000000e+01 -2.000000e+01  3.000000e+01
    endloop
  endfacet
  facet normal  0.000000e+00  0.000000e+00  1.000000e+00
    outer loop
      vertex  1.400000e+02  3.000000e+01  3.000000e+01
      vertex  1.400000e+02  4.000000e+01  3.000000e+01
      vertex  1.333244e+02  2.924784e+01  3.000000e+01
    endloop
  endfacet
  facet normal  0.000000e+00  -0.000000e+00  1.000000e+00
    outer loop
      vertex  1.333244e+02  2.924784e+01  3.000000e+01
      vertex  1.400000e+02  4.000000e+01  3.000000e+01
      vertex  7.000000e+01  4.000000e+01  3.000000e+01
    endloop
  endfacet
  facet normal  8.467239e-01 -5.320327e-01  0.000000e+00
    outer loop
      vertex  1.165451e+02  1.870469e+01  0.000000e+00
      vertex  1.129709e+02  1.301651e+01  3.000000e+01
      vertex  1.129709e+02  1.301651e+01  0.000000e+00
    endloop
  endfacet
  facet normal  9.438832e-01 -3.302793e-01  0.000000e+00
    outer loop
      vertex  1.129709e+02  1.301651e+01  0.000000e+00
      vertex  1.129709e+02  1.301651e+01  3.000000e+01
      vertex  1.107522e+02  6.675628e+00  3.000000e+01
    endloop
  endfacet
  facet normal  9.438832e-01 -3.302793e-01  0.000000e+00
    outer loop
      vertex  1.129709e+02  1.301651e+01  0.000000e+00
      vertex  1.107522e+02  6.675628e+00  3.000000e+01
      vertex  1.107522e+02  6.675628e+00  0.000000e+00
    endloop
  endfacet
  facet normal  9.937123e-01 -1.119640e-01  0.000000e+00
    outer loop
      vertex  1.107522e+02  6.675628e+00  0.000000e+00
      vertex  1.107522e+02  6.675628e+00  3.000000e+01
      vertex  1.100000e+02  1.699662e-14  3.000000e+01
    endloop
  endfacet
  facet normal  9.937123e-01 -1.119640e-01  0.000000e+00
    outer loop
      vertex  1.107522e+02  6.675628e+00  0.000000e+00
      vertex  1.100000e+02  1.699662e-14  3.000000e+01
      vertex  1.100000e+02  1.699662e-14  0.000000e+00
    endloop
  endfacet
  facet normal  8.467239e-01 -5.320327e-01  0.000000e+00
    outer loop
      vertex  1.129709e+02  1.301651e+01  3.000000e+01
      vertex  1.165451e+02  1.870469e+01  0.000000e+00
      vertex  1.165451e+02  1.870469e+01  3.000000e+01
    endloop
  endfacet
  facet normal  7.071072e-01 -7.071064e-01  0.000000e+00
    outer loop
      vertex  1.165451e+02  1.870469e+01  3.000000e+01
      vertex  1.165451e+02  1.870469e+01  0.000000e+00
      vertex  1.212953e+02  2.345494e+01  0.000000e+00
    endloop
  endfacet
  facet normal  7.071072e-01 -7.071064e-01  0.000000e+00
    outer loop
      vertex  1.165451e+02  1.870469e+01  3.000000e+01
      vertex  1.212953e+02  2.345494e+01  0.000000e+00
      vertex  1.212953e+02  2.345494e+01  3.000000e+01
    endloop
  endfacet
  facet normal  5.320318e-01 -8.467244e-01  0.000000e+00
    outer loop
      vertex  1.212953e+02  2.345494e+01  3.000000e+01
      vertex  1.212953e+02  2.345494e+01  0.000000e+00
      vertex  1.269835e+02  2.702907e+01  0.000000e+00
    endloop
  endfacet
  facet normal  5.320318e-01 -8.467244e-01  0.000000e+00
    outer loop
      vertex  1.212953e+02  2.345494e+01  3.000000e+01
      vertex  1.269835e+02  2.702907e+01  0.000000e+00
      vertex  1.269835e+02  2.702907e+01  3.000000e+01
    endloop
  endfacet
  facet normal  3.302791e-01 -9.438833e-01  0.000000e+00
    outer loop
      vertex  1.269835e+02  2.702907e+01  3.000000e+01
      vertex  1.269835e+02  2.702907e+01  0.000000e+00
      vertex  1.333244e+02  2.924784e+01  0.000000e+00
    endloop
  endfacet
  facet normal  3.302791e-01 -9.438833e-01  0.000000e+00
    outer loop
      vertex  1.269835e+02  2.702907e+01  3.000000e+01
      vertex  1.333244e+02  2.924784e+01  0.000000e+00
      vertex  1.333244e+02  2.924784e+01  3.000000e+01
    endloop
  endfacet
  facet normal  1.119645e-01 -9.937122e-01  0.000000e+00
    outer loop
      vertex  1.333244e+02  2.924784e+01  3.000000e+01
      vertex  1.333244e+02  2.924784e+01  0.000000e+00
      vertex  1.400000e+02  3.000000e+01  0.000000e+00
    endloop
  endfacet
  facet normal  1.119645e-01 -9.937122e-01  0.000000e+00
    outer loop
      vertex  1.333244e+02  2.924784e+01  3.000000e+01
      vertex  1.400000e+02  3.000000e+01  0.000000e+00
      vertex  1.400000e+02  3.000000e+01  3.000000e+01
    endloop
  endfacet
  facet normal  5.320318e-01  8.467244e-01  0.000000e+00
    outer loop
      vertex  1.212953e+02 -2.345494e+01  0.000000e+00
      vertex  1.269835e+02 -2.702907e+01  3.000000e+01
      vertex  1.269835e+02 -2.702907e+01  0.000000e+00
    endloop
  endfacet
  facet normal  3.302791e-01  9.438833e-01  -0.000000e+00
    outer loop
      vertex  1.269835e+02 -2.702907e+01  0.000000e+00
      vertex  1.269835e+02 -2.702907e+01  3.000000e+01
      vertex  1.333244e+02 -2.924784e+01  3.000000e+01
    endloop
  endfacet
  facet normal  3.302791e-01  9.438833e-01  0.000000e+00
    outer loop
      vertex  1.269835e+02 -2.702907e+01  0.000000e+00
      vertex  1.333244e+02 -2.924784e+01  3.000000e+01
      vertex  1.333244e+02 -2.924784e+01  0.000000e+00
    endloop
  endfacet
  facet normal  1.119645e-01  9.937122e-01  -0.000000e+00
    outer loop
      vertex  1.333244e+02 -2.924784e+01  0.000000e+00
      vertex  1.333244e+02 -2.924784e+01  3.000000e+01
      vertex  1.400000e+02 -3.000000e+01  3.000000e+01
    endloop
  endfacet
  facet normal  1.119645e-01  9.937122e-01  0.000000e+00
    outer loop
      vertex  1.333244e+02 -2.924784e+01  0.000000e+00
      vertex  1.400000e+02 -3.000000e+01  3.000000e+01
      vertex  1.400000e+02 -3.000000e+01  0.000000e+00
    endloop
  endfacet
  facet normal  5.320318e-01  8.467244e-01  -0.000000e+00
    outer loop
      vertex  1.269835e+02 -2.702907e+01  3.000000e+01
      vertex  1.212953e+02 -2.345494e+01  0.000000e+00
      vertex  1.212953e+02 -2.345494e+01  3.000000e+01
    endloop
  endfacet
  facet normal  7.071072e-01  7.071064e-01  0.000000e+00
    outer loop
      vertex  1.212953e+02 -2.345494e+01  3.000000e+01
      vertex  1.212953e+02 -2.345494e+01  0.000000e+00
      vertex  1.165451e+02 -1.870469e+01  0.000000e+00
    endloop
  endfacet
  facet normal  7.071072e-01  7.071064e-01  -0.000000e+00
    outer loop
      vertex  1.212953e+02 -2.345494e+01  3.000000e+01
      vertex  1.165451e+02 -1.870469e+01  0.000000e+00
      vertex  1.165451e+02 -1.870469e+01  3.000000e+01
    endloop
  endfacet
  facet normal  8.467239e-01  5.320327e-01  0.000000e+00
    outer loop
      vertex  1.165451e+02 -1.870469e+01  3.000000e+01
      vertex  1.165451e+02 -1.870469e+01  0.000000e+00
      vertex  1.129709e+02 -1.301651e+01  0.000000e+00
    endloop
  endfacet
  facet normal  8.467239e-01  5.320327e-01  -0.000000e+00
    outer loop
      vertex  1.165451e+02 -1.870469e+01  3.000000e+01
      vertex  1.129709e+02 -1.301651e+01  0.000000e+00
      vertex  1.129709e+02 -1.301651e+01  3.000000e+01
    endloop
  endfacet
  facet normal  9.438832e-01  3.302793e-01  0.000000e+00
    outer loop
      vertex  1.129709e+02 -1.301651e+01  3.000000e+01
      vertex  1.129709e+02 -1.301651e+01  0.000000e+00
      vertex  1.107522e+02 -6.675628e+00  0.000000e+00
    endloop
  endfacet
  facet normal  9.438832e-01  3.302793e-01  -0.000000e+00
    outer loop
      vertex  1.129709e+02 -1.301651e+01  3.000000e+01
      vertex  1.107522e+02 -6.675628e+00  0.000000e+00
      vertex  1.107522e+02 -6.675628e+00  3.000000e+01
    endloop
  endfacet
  facet normal  9.937123e-01  1.119640e-01  0.000000e+00
    outer loop
      vertex  1.107522e+02 -6.675628e+00  3.000000e+01
      vertex  1.107522e+02 -6.675628e+00  0.000000e+00
      vertex  1.100000e+02  1.699662e-14  0.000000e+00
    endloop
  endfacet
  facet normal  9.937123e-01  1.119640e-01  -0.000000e+00
    outer loop
      vertex  1.107522e+02 -6.675628e+00  3.000000e+01
      vertex  1.100000e+02  1.699662e-14  0.000000e+00
      vertex  1.100000e+02  1.699662e-14  3.000000e+01
    endloop
  endfacet
  facet normal  0.000000e+00 -1.000000e+00  0.000000e+00
    outer loop
      vertex  7.000000e+01  2.000000e+01  3.000000e+01
      vertex  4.000000e+01  2.000000e+01  1.000000e+02
      vertex  4.000000e+01  2.000000e+01  6.500000e+01
    endloop
  endfacet
  facet normal  0.000000e+00 -9.999999e-01  -0.000000e+00
    outer loop
      vertex  7.000000e+01  2.000000e+01  3.000000e+01
      vertex  4.000000e+01  2.000000e+01  6.500000e+01
      vertex  3.926585e+01  2.000000e+01  6.036475e+01
    endloop
  endfacet
  facet normal  0.000000e+00 -1.000000e+00  -0.000000e+00
    outer loop
      vertex  7.000000e+01  2.000000e+01  3.000000e+01
      vertex  3.926585e+01  2.000000e+01  6.036475e+01
      vertex  3.713525e+01  2.000000e+01  5.618322e+01
    endloop
  endfacet
  facet normal  0.000000e+00 -1.000000e+00  -0.000000e+00
    outer loop
      vertex  7.000000e+01  2.000000e+01  3.000000e+01
      vertex  3.713525e+01  2.000000e+01  5.618322e+01
      vertex  3.381678e+01  2.000000e+01  5.286475e+01
    endloop
  endfacet
  facet normal  0.000000e+00 -1.000000e+00  -0.000000e+00
    outer loop
      vertex  7.000000e+01  2.000000e+01  3.000000e+01
      vertex  3.381678e+01  2.000000e+01  5.286475e+01
      vertex  0.000000e+00  2.000000e+01  3.000000e+01
    endloop
  endfacet
  facet normal  0.000000e+00 -1.000000e+00  0.000000e+00
    outer loop
      vertex  0.000000e+00  2.000000e+01  1.000000e+02
      vertex  0.000000e+00  2.000000e+01  3.000000e+01
      vertex  1.000000e+01  2.000000e+01  6.500000e+01
    endloop
  endfacet
  facet normal  0.000000e+00 -1.000000e+00  0.000000e+00
    outer loop
      vertex  0.000000e+00  2.000000e+01  1.000000e+02
      vertex  1.000000e+01  2.000000e+01  6.500000e+01
      vertex  1.073415e+01  2.000000e+01  6.963525e+01
    endloop
  endfacet
  facet normal  0.000000e+00 -1.000000e+00  0.000000e+00
    outer loop
      vertex  0.000000e+00  2.000000e+01  1.000000e+02
      vertex  1.073415e+01  2.000000e+01  6.963525e+01
      vertex  1.286475e+01  2.000000e+01  7.381678e+01
    endloop
  endfacet
  facet normal  0.000000e+00 -1.000000e+00  0.000000e+00
    outer loop
      vertex  0.000000e+00  2.000000e+01  1.000000e+02
      vertex  1.286475e+01  2.000000e+01  7.381678e+01
      vertex  1.618322e+01  2.000000e+01  7.713525e+01
    endloop
  endfacet
  facet normal  0.000000e+00 -1.000000e+00  0.000000e+00
    outer loop
      vertex  0.000000e+00  2.000000e+01  1.000000e+02
      vertex  1.618322e+01  2.000000e+01  7.713525e+01
      vertex  2.036474e+01  2.000000e+01  7.926585e+01
    endloop
  endfacet
  facet normal  0.000000e+00 -9.999999e-01  0.000000e+00
    outer loop
      vertex  0.000000e+00  2.000000e+01  1.000000e+02
      vertex  2.036474e+01  2.000000e+01  7.926585e+01
      vertex  2.500000e+01  2.000000e+01  8.000000e+01
    endloop
  endfacet
  facet normal  0.000000e+00 -1.000000e+00  0.000000e+00
    outer loop
      vertex  0.000000e+00  2.000000e+01  1.000000e+02
      vertex  2.500000e+01  2.000000e+01  8.000000e+01
      vertex  2.963526e+01  2.000000e+01  7.926585e+01
    endloop
  endfacet
  facet normal  0.000000e+00 -1.000000e+00  0.000000e+00
    outer loop
      vertex  0.000000e+00  2.000000e+01  1.000000e+02
      vertex  2.963526e+01  2.000000e+01  7.926585e+01
      vertex  3.381678e+01  2.000000e+01  7.713525e+01
    endloop
  endfacet
  facet normal  0.000000e+00 -1.000000e+00  0.000000e+00
    outer loop
      vertex  4.000000e+01  2.000000e+01  1.000000e+02
      vertex  0.000000e+00  2.000000e+01  1.000000e+02
      vertex  3.381678e+01  2.000000e+01  7.713525e+01
    endloop
  endfacet
  facet normal  0.000000e+00 -9.999999e-01  0.000000e+00
    outer loop
      vertex  4.000000e+01  2.000000e+01  1.000000e+02
      vertex  3.381678e+01  2.000000e+01  7.713525e+01
      vertex  3.713525e+01  2.000000e+01  7.381678e+01
    endloop
  endfacet
  facet normal  0.000000e+00 -1.000000e+00  0.000000e+00
    outer loop
      vertex  4.000000e+01  2.000000e+01  1.000000e+02
      vertex  3.713525e+01  2.000000e+01  7.381678e+01
      vertex  3.926585e+01  2.000000e+01  6.963525e+01
    endloop
  endfacet
  facet normal  0.000000e+00 -1.000000e+00  0.000000e+00
    outer loop
      vertex  4.000000e+01  2.000000e+01  1.000000e+02
      vertex  3.926585e+01  2.000000e+01  6.963525e+01
      vertex  4.000000e+01  2.000000e+01  6.500000e+01
    endloop
  endfacet
  facet normal  0.000000e+00 -1.000000e+00  0.000000e+00
    outer loop
      vertex  0.000000e+00  2.000000e+01  3.000000e+01
      vertex  3.381678e+01  2.000000e+01  5.286475e+01
      vertex  2.963526e+01  2.000000e+01  5.073415e+01
    endloop
  endfacet
  facet normal  0.000000e+00 -1.000000e+00  0.000000e+00
    outer loop
      vertex  0.000000e+00  2.000000e+01  3.000000e+01
      vertex  2.963526e+01  2.000000e+01  5.073415e+01
      vertex  2.500000e+01  2.000000e+01  5.000000e+01
    endloop
  endfacet
  facet normal  -0.000000e+00 -9.999999e-01  0.000000e+00
    outer loop
      vertex  0.000000e+00  2.000000e+01  3.000000e+01
      vertex  2.500000e+01  2.000000e+01  5.000000e+01
      vertex  2.036474e+01  2.000000e+01  5.073415e+01
    endloop
  endfacet
  facet normal  -0.000000e+00 -1.000000e+00  0.000000e+00
    outer loop
      vertex  0.000000e+00  2.000000e+01  3.000000e+01
      vertex  2.036474e+01  2.000000e+01  5.073415e+01
      vertex  1.618322e+01  2.000000e+01  5.286475e+01
    endloop
  endfacet
  facet normal  -0.000000e+00 -1.000000e+00  0.000000e+00
    outer loop
      vertex  0.000000e+00  2.000000e+01  3.000000e+01
      vertex  1.618322e+01  2.000000e+01  5.286475e+01
      vertex  1.286475e+01  2.000000e+01  5.618322e+01
    endloop
  endfacet
  facet normal  -0.000000e+00 -1.000000e+00  0.000000e+00
    outer loop
      vertex  0.000000e+00  2.000000e+01  3.000000e+01
      vertex  1.286475e+01  2.000000e+01  5.618322e+01
      vertex  1.073415e+01  2.000000e+01  6.036475e+01
    endloop
  endfacet
  facet normal  -0.000000e+00 -1.000000e+00  0.000000e+00
    outer loop
      vertex  0.000000e+00  2.000000e+01  3.000000e+01
      vertex  1.073415e+01  2.000000e+01  6.036475e+01
      vertex  1.000000e+01  2.000000e+01  6.500000e+01
    endloop
  endfacet
  facet normal  0.000000e+00  1.000000e+00  0.000000e+00
    outer loop
      vertex  0.000000e+00 -2.000000e+01  3.000000e+01
      vertex  0.000000e+00 -2.000000e+01  1.000000e+02
      vertex  1.000000e+01 -2.000000e+01  6.500000e+01
    endloop
  endfacet
  facet normal  0.000000e+00  1.000000e+00  0.000000e+00
    outer loop
      vertex  0.000000e+00 -2.000000e+01  3.000000e+01
      vertex  1.000000e+01 -2.000000e+01  6.500000e+01
      vertex  1.073415e+01 -2.000000e+01  6.036475e+01
    endloop
  endfacet
  facet normal  0.000000e+00  1.000000e+00  0.000000e+00
    outer loop
      vertex  0.000000e+00 -2.000000e+01  3.000000e+01
      vertex  1.073415e+01 -2.000000e+01  6.036475e+01
      vertex  1.286475e+01 -2.000000e+01  5.618322e+01
    endloop
  endfacet
  facet normal  0.000000e+00  1.000000e+00  0.000000e+00
    outer loop
      vertex  0.000000e+00 -2.000000e+01  3.000000e+01
      vertex  1.286475e+01 -2.000000e+01  5.618322e+01
      vertex  1.618322e+01 -2.000000e+01  5.286475e+01
    endloop
  endfacet
  facet normal  0.000000e+00  1.000000e+00  0.000000e+00
    outer loop
      vertex  0.000000e+00 -2.000000e+01  3.000000e+01
      vertex  1.618322e+01 -2.000000e+01  5.286475e+01
      vertex  2.036474e+01 -2.000000e+01  5.073415e+01
    endloop
  endfacet
  facet normal  0.000000e+00  1.000000e+00  0.000000e+00
    outer loop
      vertex  0.000000e+00 -2.000000e+01  3.000000e+01
      vertex  2.036474e+01 -2.000000e+01  5.073415e+01
      vertex  7.000000e+01 -2.000000e+01  3.000000e+01
    endloop
  endfacet
  facet normal  0.000000e+00  1.000000e+00  0.000000e+00
    outer loop
      vertex  4.000000e+01 -2.000000e+01  1.000000e+02
      vertex  7.000000e+01 -2.000000e+01  3.000000e+01
      vertex  4.000000e+01 -2.000000e+01  6.500000e+01
    endloop
  endfacet
  facet normal  0.000000e+00  1.000000e+00  -0.000000e+00
    outer loop
      vertex  4.000000e+01 -2.000000e+01  1.000000e+02
      vertex  4.000000e+01 -2.000000e+01  6.500000e+01
      vertex  3.926585e+01 -2.000000e+01  6.963525e+01
    endloop
  endfacet
  facet normal  0.000000e+00  1.000000e+00  -0.000000e+00
    outer loop
      vertex  4.000000e+01 -2.000000e+01  1.000000e+02
      vertex  3.926585e+01 -2.000000e+01  6.963525e+01
      vertex  3.713525e+01 -2.000000e+01  7.381678e+01
    endloop
  endfacet
  facet normal  0.000000e+00  9.999999e-01  -0.000000e+00
    outer loop
      vertex  4.000000e+01 -2.000000e+01  1.000000e+02
      vertex  3.713525e+01 -2.000000e+01  7.381678e+01
      vertex  3.381678e+01 -2.000000e+01  7.713525e+01
    endloop
  endfacet
  facet normal  0.000000e+00  1.000000e+00  -0.000000e+00
    outer loop
      vertex  4.000000e+01 -2.000000e+01  1.000000e+02
      vertex  3.381678e+01 -2.000000e+01  7.713525e+01
      vertex  2.963526e+01 -2.000000e+01  7.926585e+01
    endloop
  endfacet
  facet normal  0.000000e+00  9.999999e-01  -0.000000e+00
    outer loop
      vertex  4.000000e+01 -2.000000e+01  1.000000e+02
      vertex  2.963526e+01 -2.000000e+01  7.926585e+01
      vertex  2.500000e+01 -2.000000e+01  8.000000e+01
    endloop
  endfacet
  facet normal  0.000000e+00  9.999999e-01  -0.000000e+00
    outer loop
      vertex  4.000000e+01 -2.000000e+01  1.000000e+02
      vertex  2.500000e+01 -2.000000e+01  8.000000e+01
      vertex  2.036474e+01 -2.000000e+01  7.926585e+01
    endloop
  endfacet
  facet normal  0.000000e+00  1.000000e+00  -0.000000e+00
    outer loop
      vertex  4.000000e+01 -2.000000e+01  1.000000e+02
      vertex  2.036474e+01 -2.000000e+01  7.926585e+01
      vertex  1.618322e+01 -2.000000e+01  7.713525e+01
    endloop
  endfacet
  facet normal  0.000000e+00  1.000000e+00  0.000000e+00
    outer loop
      vertex  0.000000e+00 -2.000000e+01  1.000000e+02
      vertex  4.000000e+01 -2.000000e+01  1.000000e+02
      vertex  1.618322e+01 -2.000000e+01  7.713525e+01
    endloop
  endfacet
  facet normal  0.000000e+00  1.000000e+00  0.000000e+00
    outer loop
      vertex  0.000000e+00 -2.000000e+01  1.000000e+02
      vertex  1.618322e+01 -2.000000e+01  7.713525e+01
      vertex  1.286475e+01 -2.000000e+01  7.381678e+01
    endloop
  endfacet
  facet normal  0.000000e+00  1.000000e+00  0.000000e+00
    outer loop
      vertex  0.000000e+00 -2.000000e+01  1.000000e+02
      vertex  1.286475e+01 -2.000000e+01  7.381678e+01
      vertex  1.073415e+01 -2.000000e+01  6.963525e+01
    endloop
  endfacet
  facet normal  0.000000e+00  1.000000e+00  0.000000e+00
    outer loop
      vertex  0.000000e+00 -2.000000e+01  1.000000e+02
      vertex  1.073415e+01 -2.000000e+01  6.963525e+01
      vertex  1.000000e+01 -2.000000e+01  6.500000e+01
    endloop
  endfacet
  facet normal  0.000000e+00  1.000000e+00  0.000000e+00
    outer loop
      vertex  7.000000e+01 -2.000000e+01  3.000000e+01
      vertex  2.036474e+01 -2.000000e+01  5.073415e+01
      vertex  2.500000e+01 -2.000000e+01  5.000000e+01
    endloop
  endfacet
  facet normal  -0.000000e+00  9.999999e-01  0.000000e+00
    outer loop
      vertex  7.000000e+01 -2.000000e+01  3.000000e+01
      vertex  2.500000e+01 -2.000000e+01  5.000000e+01
      vertex  2.963526e+01 -2.000000e+01  5.073415e+01
    endloop
  endfacet
  facet normal  -0.000000e+00  1.000000e+00  0.000000e+00
    outer loop
      vertex  7.000000e+01 -2.000000e+01  3.000000e+01
      vertex  2.963526e+01 -2.000000e+01  5.073415e+01
      vertex  3.381678e+01 -2.000000e+01  5.286475e+01
    endloop
  endfacet
  facet normal  -0.000000e+00  1.000000e+00  0.000000e+00
    outer loop
      vertex  7.000000e+01 -2.000000e+01  3.000000e+01
      vertex  3.381678e+01 -2.000000e+01  5.286475e+01
      vertex  3.713525e+01 -2.000000e+01  5.618322e+01
    endloop
  endfacet
  facet normal  -0.000000e+00  1.000000e+00  0.000000e+00
    outer loop
      vertex  7.000000e+01 -2.000000e+01  3.000000e+01
      vertex  3.713525e+01 -2.000000e+01  5.618322e+01
      vertex  3.926585e+01 -2.000000e+01  6.036475e+01
    endloop
  endfacet
  facet normal  -0.000000e+00  9.999999e-01  0.000000e+00
    outer loop
      vertex  7.000000e+01 -2.000000e+01  3.000000e+01
      vertex  3.926585e+01 -2.000000e+01  6.036475e+01
      vertex  4.000000e+01 -2.000000e+01  6.500000e+01
    endloop
  endfacet
  facet normal -1.000000e+00  0.000000e+00  0.000000e+00
    outer loop
      vertex  0.000000e+00  4.000000e+01  1.000000e+02
      vertex  0.000000e+00  4.000000e+01  3.000000e+01
      vertex  0.000000e+00  2.000000e+01  1.000000e+02
    endloop
  endfacet
  facet normal -1.000000e+00  0.000000e+00  0.000000e+00
    outer loop
      vertex  0.000000e+00  2.000000e+01  1.000000e+02
      vertex  0.000000e+00  4.000000e+01  3.000000e+01
      vertex  0.000000e+00  2.000000e+01  3.000000e+01
    endloop
  endfacet
  facet normal -1.000000e+00  0.000000e+00  0.000000e+00
    outer loop
      vertex  0.000000e+00 -2.000000e+01  1.000000e+02
      vertex  0.000000e+00 -2.000000e+01  3.000000e+01
      vertex  0.000000e+00 -4.000000e+01  1.000000e+02
    endloop
  endfacet
  facet normal -1.000000e+00  0.000000e+00  0.000000e+00
    outer loop
      vertex  0.000000e+00 -4.000000e+01  1.000000e+02
      vertex  0.000000e+00 -2.000000e+01  3.000000e+01
      vertex  0.000000e+00 -4.000000e+01  3.000000e+01
    endloop
  endfacet
  facet normal  0.000000e+00  0.000000e+00  1.000000e+00
    outer loop
      vertex  4.000000e+01  2.000000e+01  1.000000e+02
      vertex  4.000000e+01  4.000000e+01  1.000000e+02
      vertex  0.000000e+00  2.000000e+01  1.000000e+02
    endloop
  endfacet
  facet normal  0.000000e+00  0.000000e+00  1.000000e+00
    outer loop
      vertex  0.000000e+00  2.000000e+01  1.000000e+02
      vertex  4.000000e+01  4.000000e+01  1.000000e+02
      vertex  0.000000e+00  4.000000e+01  1.000000e+02
    endloop
  endfacet
  facet normal  0.000000e+00  0.000000e+00  1.000000e+00
    outer loop
      vertex  4.000000e+01 -4.000000e+01  1.000000e+02
      vertex  4.000000e+01 -2.000000e+01  1.000000e+02
      vertex  0.000000e+00 -4.000000e+01  1.000000e+02
    endloop
  endfacet
  facet normal  0.000000e+00  0.000000e+00  1.000000e+00
    outer loop
      vertex  0.000000e+00 -4.000000e+01  1.000000e+02
      vertex  4.000000e+01 -2.000000e+01  1.000000e+02
      vertex  0.000000e+00 -2.000000e+01  1.000000e+02
    endloop
  endfacet
  facet normal  9.191450e-01  0.000000e+00  3.939193e-01
    outer loop
      vertex  7.000000e+01  2.000000e+01  3.000000e+01
      vertex  7.000000e+01  4.000000e+01  3.000000e+01
      vertex  4.000000e+01  2.000000e+01  1.000000e+02
    endloop
  endfacet
  facet normal  9.191450e-01  -0.000000e+00  3.939193e-01
    outer loop
      vertex  4.000000e+01  2.000000e+01  1.000000e+02
      vertex  7.000000e+01  4.000000e+01  3.000000e+01
      vertex  4.000000e+01  4.000000e+01  1.000000e+02
    endloop
  endfacet
  facet normal  9.191450e-01  0.000000e+00  3.939193e-01
    outer loop
      vertex  7.000000e+01 -4.000000e+01  3.000000e+01
      vertex  7.000000e+01 -2.000000e+01  3.000000e+01
      vertex  4.000000e+01 -4.000000e+01  1.000000e+02
    endloop
  endfacet
  facet normal  9.191450e-01  -0.000000e+00  3.939193e-01
    outer loop
      vertex  4.000000e+01 -4.000000e+01  1.000000e+02
      vertex  7.000000e+01 -2.000000e+01  3.000000e+01
      vertex  4.000000e+01 -2.000000e+01  1.000000e+02
    endloop
  endfacet
  facet normal  1.564347e-01  0.000000e+00  9.876883e-01
    outer loop
      vertex  2.500000e+01  2.000000e+01  5.000000e+01
      vertex  2.036474e+01  4.000000e+01  5.073415e+01
      vertex  2.036474e+01  2.000000e+01  5.073415e+01
    endloop
  endfacet
  facet normal  4.539905e-01  -0.000000e+00  8.910065e-01
    outer loop
      vertex  2.036474e+01  2.000000e+01  5.073415e+01
      vertex  2.036474e+01  4.000000e+01  5.073415e+01
      vertex  1.618322e+01  4.000000e+01  5.286475e+01
    endloop
  endfacet
  facet normal  4.539905e-01  0.000000e+00  8.910065e-01
    outer loop
      vertex  2.036474e+01  2.000000e+01  5.073415e+01
      vertex  1.618322e+01  4.000000e+01  5.286475e+01
      vertex  1.618322e+01  2.000000e+01  5.286475e+01
    endloop
  endfacet
  facet normal  7.071064e-01  -0.000000e+00  7.071071e-01
    outer loop
      vertex  1.618322e+01  2.000000e+01  5.286475e+01
      vertex  1.618322e+01  4.000000e+01  5.286475e+01
      vertex  1.286475e+01  4.000000e+01  5.618322e+01
    endloop
  endfacet
  facet normal  7.071064e-01  0.000000e+00  7.071071e-01
    outer loop
      vertex  1.618322e+01  2.000000e+01  5.286475e+01
      vertex  1.286475e+01  4.000000e+01  5.618322e+01
      vertex  1.286475e+01  2.000000e+01  5.618322e+01
    endloop
  endfacet
  facet normal  8.910066e-01  -0.000000e+00  4.539904e-01
    outer loop
      vertex  1.286475e+01  2.000000e+01  5.618322e+01
      vertex  1.286475e+01  4.000000e+01  5.618322e+01
      vertex  1.073415e+01  4.000000e+01  6.036475e+01
    endloop
  endfacet
  facet normal  8.910066e-01  0.000000e+00  4.539904e-01
    outer loop
      vertex  1.286475e+01  2.000000e+01  5.618322e+01
      vertex  1.073415e+01  4.000000e+01  6.036475e+01
      vertex  1.073415e+01  2.000000e+01  6.036475e+01
    endloop
  endfacet
  facet normal  9.876883e-01  -0.000000e+00  1.564344e-01
    outer loop
      vertex  1.073415e+01  2.000000e+01  6.036475e+01
      vertex  1.073415e+01  4.000000e+01  6.036475e+01
      vertex  1.000000e+01  4.000000e+01  6.500000e+01
    endloop
  endfacet
  facet normal  9.876883e-01  0.000000e+00  1.564344e-01
    outer loop
      vertex  1.073415e+01  2.000000e+01  6.036475e+01
      vertex  1.000000e+01  4.000000e+01  6.500000e+01
      vertex  1.000000e+01  2.000000e+01  6.500000e+01
    endloop
  endfacet
  facet normal  1.564347e-01  -0.000000e+00  9.876883e-01
    outer loop
      vertex  2.036474e+01  4.000000e+01  5.073415e+01
      vertex  2.500000e+01  2.000000e+01  5.000000e+01
      vertex  2.500000e+01  4.000000e+01  5.000000e+01
    endloop
  endfacet
  facet normal -1.564347e-01  0.000000e+00  9.876883e-01
    outer loop
      vertex  2.500000e+01  4.000000e+01  5.000000e+01
      vertex  2.500000e+01  2.000000e+01  5.000000e+01
      vertex  2.963526e+01  2.000000e+01  5.073415e+01
    endloop
  endfacet
  facet normal -1.564347e-01  0.000000e+00  9.876883e-01
    outer loop
      vertex  2.500000e+01  4.000000e+01  5.000000e+01
      vertex  2.963526e+01  2.000000e+01  5.073415e+01
      vertex  2.963526e+01  4.000000e+01  5.073415e+01
    endloop
  endfacet
  facet normal -4.539904e-01  0.000000e+00  8.910066e-01
    outer loop
      vertex  2.963526e+01  4.000000e+01  5.073415e+01
      vertex  2.963526e+01  2.000000e+01  5.073415e+01
      vertex  3.381678e+01  2.000000e+01  5.286475e+01
    endloop
  endfacet
  facet normal -4.539904e-01  0.000000e+00  8.910066e-01
    outer loop
      vertex  2.963526e+01  4.000000e+01  5.073415e+01
      vertex  3.381678e+01  2.000000e+01  5.286475e+01
      vertex  3.381678e+01  4.000000e+01  5.286475e+01
    endloop
  endfacet
  facet normal -7.071068e-01  0.000000e+00  7.071068e-01
    outer loop
      vertex  3.381678e+01  4.000000e+01  5.286475e+01
      vertex  3.381678e+01  2.000000e+01  5.286475e+01
      vertex  3.713525e+01  2.000000e+01  5.618322e+01
    endloop
  endfacet
  facet normal -7.071068e-01  0.000000e+00  7.071068e-01
    outer loop
      vertex  3.381678e+01  4.000000e+01  5.286475e+01
      vertex  3.713525e+01  2.000000e+01  5.618322e+01
      vertex  3.713525e+01  4.000000e+01  5.618322e+01
    endloop
  endfacet
  facet normal -8.910066e-01  0.000000e+00  4.539902e-01
    outer loop
      vertex  3.713525e+01  4.000000e+01  5.618322e+01
      vertex  3.713525e+01  2.000000e+01  5.618322e+01
      vertex  3.926585e+01  2.000000e+01  6.036475e+01
    endloop
  endfacet
  facet normal -8.910066e-01  0.000000e+00  4.539902e-01
    outer loop
      vertex  3.713525e+01  4.000000e+01  5.618322e+01
      vertex  3.926585e+01  2.000000e+01  6.036475e+01
      vertex  3.926585e+01  4.000000e+01  6.036475e+01
    endloop
  endfacet
  facet normal -9.876882e-01  0.000000e+00  1.564348e-01
    outer loop
      vertex  3.926585e+01  4.000000e+01  6.036475e+01
      vertex  3.926585e+01  2.000000e+01  6.036475e+01
      vertex  4.000000e+01  2.000000e+01  6.500000e+01
    endloop
  endfacet
  facet normal -9.876882e-01  0.000000e+00  1.564348e-01
    outer loop
      vertex  3.926585e+01  4.000000e+01  6.036475e+01
      vertex  4.000000e+01  2.000000e+01  6.500000e+01
      vertex  4.000000e+01  4.000000e+01  6.500000e+01
    endloop
  endfacet
  facet normal  1.564347e-01  0.000000e+00  9.876883e-01
    outer loop
      vertex  2.500000e+01 -4.000000e+01  5.000000e+01
      vertex  2.036474e+01 -2.000000e+01  5.073415e+01
      vertex  2.036474e+01 -4.000000e+01  5.073415e+01
    endloop
  endfacet
  facet normal  4.539905e-01  -0.000000e+00  8.910065e-01
    outer loop
      vertex  2.036474e+01 -4.000000e+01  5.073415e+01
      vertex  2.036474e+01 -2.000000e+01  5.073415e+01
      vertex  1.618322e+01 -2.000000e+01  5.286475e+01
    endloop
  endfacet
  facet normal  4.539905e-01  0.000000e+00  8.910065e-01
    outer loop
      vertex  2.036474e+01 -4.000000e+01  5.073415e+01
      vertex  1.618322e+01 -2.000000e+01  5.286475e+01
      vertex  1.618322e+01 -4.000000e+01  5.286475e+01
    endloop
  endfacet
  facet normal  7.071064e-01  -0.000000e+00  7.071071e-01
    outer loop
      vertex  1.618322e+01 -4.000000e+01  5.286475e+01
      vertex  1.618322e+01 -2.000000e+01  5.286475e+01
      vertex  1.286475e+01 -2.000000e+01  5.618322e+01
    endloop
  endfacet
  facet normal  7.071064e-01  0.000000e+00  7.071071e-01
    outer loop
      vertex  1.618322e+01 -4.000000e+01  5.286475e+01
      vertex  1.286475e+01 -2.000000e+01  5.618322e+01
      vertex  1.286475e+01 -4.000000e+01  5.618322e+01
    endloop
  endfacet
  facet normal  8.910066e-01  -0.000000e+00  4.539904e-01
    outer loop
      vertex  1.286475e+01 -4.000000e+01  5.618322e+01
      vertex  1.286475e+01 -2.000000e+01  5.618322e+01
      vertex  1.073415e+01 -2.000000e+01  6.036475e+01
    endloop
  endfacet
  facet normal  8.910066e-01  0.000000e+00  4.539904e-01
    outer loop
      vertex  1.286475e+01 -4.000000e+01  5.618322e+01
      vertex  1.073415e+01 -2.000000e+01  6.036475e+01
      vertex  1.073415e+01 -4.000000e+01  6.036475e+01
    endloop
  endfacet
  facet normal  9.876883e-01  -0.000000e+00  1.564344e-01
    outer loop
      vertex  1.073415e+01 -4.000000e+01  6.036475e+01
      vertex  1.073415e+01 -2.000000e+01  6.036475e+01
      vertex  1.000000e+01 -2.000000e+01  6.500000e+01
    endloop
  endfacet
  facet normal  9.876883e-01  0.000000e+00  1.564344e-01
    outer loop
      vertex  1.073415e+01 -4.000000e+01  6.036475e+01
      vertex  1.000000e+01 -2.000000e+01  6.500000e+01
      vertex  1.000000e+01 -4.000000e+01  6.500000e+01
    endloop
  endfacet
  facet normal  1.564347e-01  -0.000000e+00  9.876883e-01
    outer loop
      vertex  2.036474e+01 -2.000000e+01  5.073415e+01
      vertex  2.500000e+01 -4.000000e+01  5.000000e+01
      vertex  2.500000e+01 -2.000000e+01  5.000000e+01
    endloop
  endfacet
  facet normal -1.564347e-01  0.000000e+00  9.876883e-01
    outer loop
      vertex  2.500000e+01 -2.000000e+01  5.000000e+01
      vertex  2.500000e+01 -4.000000e+01  5.000000e+01
      vertex  2.963526e+01 -4.000000e+01  5.073415e+01
    endloop
  endfacet
  facet normal -1.564347e-01  0.000000e+00  9.876883e-01
    outer loop
      vertex  2.500000e+01 -2.000000e+01  5.000000e+01
      vertex  2.963526e+01 -4.000000e+01  5.073415e+01
      vertex  2.963526e+01 -2.000000e+01  5.073415e+01
    endloop
  endfacet
  facet normal -4.539904e-01  0.000000e+00  8.910066e-01
    outer loop
      vertex  2.963526e+01 -2.000000e+01  5.073415e+01
      vertex  2.963526e+01 -4.000000e+01  5.073415e+01
      vertex  3.381678e+01 -4.000000e+01  5.286475e+01
    endloop
  endfacet
  facet normal -4.539904e-01  0.000000e+00  8.910066e-01
    outer loop
      vertex  2.963526e+01 -2.000000e+01  5.073415e+01
      vertex  3.381678e+01 -4.000000e+01  5.286475e+01
      vertex  3.381678e+01 -2.000000e+01  5.286475e+01
    endloop
  endfacet
  facet normal -7.071068e-01  0.000000e+00  7.071068e-01
    outer loop
      vertex  3.381678e+01 -2.000000e+01  5.286475e+01
      vertex  3.381678e+01 -4.000000e+01  5.286475e+01
      vertex  3.713525e+01 -4.000000e+01  5.618322e+01
    endloop
  endfacet
  facet normal -7.071068e-01  0.000000e+00  7.071068e-01
    outer loop
      vertex  3.381678e+01 -2.000000e+01  5.286475e+01
      vertex  3.713525e+01 -4.000000e+01  5.618322e+01
      vertex  3.713525e+01 -2.000000e+01  5.618322e+01
    endloop
  endfacet
  facet normal -8.910066e-01  0.000000e+00  4.539902e-01
    outer loop
      vertex  3.713525e+01 -2.000000e+01  5.618322e+01
      vertex  3.713525e+01 -4.000000e+01  5.618322e+01
      vertex  3.926585e+01 -4.000000e+01  6.036475e+01
    endloop
  endfacet
  facet normal -8.910066e-01  0.000000e+00  4.539902e-01
    outer loop
      vertex  3.713525e+01 -2.000000e+01  5.618322e+01
      vertex  3.926585e+01 -4.000000e+01  6.036475e+01
      vertex  3.926585e+01 -2.000000e+01  6.036475e+01
    endloop
  endfacet
  facet normal -9.876882e-01  0.000000e+00  1.564348e-01
    outer loop
      vertex  3.926585e+01 -2.000000e+01  6.036475e+01
      vertex  3.926585e+01 -4.000000e+01  6.036475e+01
      vertex  4.000000e+01 -4.000000e+01  6.500000e+01
    endloop
  endfacet
  facet normal -9.876882e-01  0.000000e+00  1.564348e-01
    outer loop
      vertex  3.926585e+01 -2.000000e+01  6.036475e+01
      vertex  4.000000e+01 -4.000000e+01  6.500000e+01
      vertex  4.000000e+01 -2.000000e+01  6.500000e+01
    endloop
  endfacet
  facet normal -1.564347e-01  -0.000000e+00 -9.876883e-01
    outer loop
      vertex  2.500000e+01  2.000000e+01  8.000000e+01
      vertex  2.963526e+01  4.000000e+01  7.926585e+01
      vertex  2.963526e+01  2.000000e+01  7.926585e+01
    endloop
  endfacet
  facet normal -4.539904e-01  0.000000e+00 -8.910066e-01
    outer loop
      vertex  2.963526e+01  2.000000e+01  7.926585e+01
      vertex  2.963526e+01  4.000000e+01  7.926585e+01
      vertex  3.381678e+01  4.000000e+01  7.713525e+01
    endloop
  endfacet
  facet normal -4.539904e-01  -0.000000e+00 -8.910066e-01
    outer loop
      vertex  2.963526e+01  2.000000e+01  7.926585e+01
      vertex  3.381678e+01  4.000000e+01  7.713525e+01
      vertex  3.381678e+01  2.000000e+01  7.713525e+01
    endloop
  endfacet
  facet normal -7.071068e-01  0.000000e+00 -7.071068e-01
    outer loop
      vertex  3.381678e+01  2.000000e+01  7.713525e+01
      vertex  3.381678e+01  4.000000e+01  7.713525e+01
      vertex  3.713525e+01  4.000000e+01  7.381678e+01
    endloop
  endfacet
  facet normal -7.071068e-01  -0.000000e+00 -7.071068e-01
    outer loop
      vertex  3.381678e+01  2.000000e+01  7.713525e+01
      vertex  3.713525e+01  4.000000e+01  7.381678e+01
      vertex  3.713525e+01  2.000000e+01  7.381678e+01
    endloop
  endfacet
  facet normal -8.910066e-01  0.000000e+00 -4.539902e-01
    outer loop
      vertex  3.713525e+01  2.000000e+01  7.381678e+01
      vertex  3.713525e+01  4.000000e+01  7.381678e+01
      vertex  3.926585e+01  4.000000e+01  6.963525e+01
    endloop
  endfacet
  facet normal -8.910066e-01  -0.000000e+00 -4.539902e-01
    outer loop
      vertex  3.713525e+01  2.000000e+01  7.381678e+01
      vertex  3.926585e+01  4.000000e+01  6.963525e+01
      vertex  3.926585e+01  2.000000e+01  6.963525e+01
    endloop
  endfacet
  facet normal -9.876882e-01  0.000000e+00 -1.564348e-01
    outer loop
      vertex  3.926585e+01  2.000000e+01  6.963525e+01
      vertex  3.926585e+01  4.000000e+01  6.963525e+01
      vertex  4.000000e+01  4.000000e+01  6.500000e+01
    endloop
  endfacet
  facet normal -9.876882e-01  -0.000000e+00 -1.564348e-01
    outer loop
      vertex  3.926585e+01  2.000000e+01  6.963525e+01
      vertex  4.000000e+01  4.000000e+01  6.500000e+01
      vertex  4.000000e+01  2.000000e+01  6.500000e+01
    endloop
  endfacet
  facet normal -1.564347e-01  0.000000e+00 -9.876883e-01
    outer loop
      vertex  2.963526e+01  4.000000e+01  7.926585e+01
      vertex  2.500000e+01  2.000000e+01  8.000000e+01
      vertex  2.500000e+01  4.000000e+01  8.000000e+01
    endloop
  endfacet
  facet normal  1.564347e-01  0.000000e+00 -9.876883e-01
    outer loop
      vertex  2.500000e+01  4.000000e+01  8.000000e+01
      vertex  2.500000e+01  2.000000e+01  8.000000e+01
      vertex  2.036474e+01  2.000000e+01  7.926585e+01
    endloop
  endfacet
  facet normal  1.564347e-01  0.000000e+00 -9.876883e-01
    outer loop
      vertex  2.500000e+01  4.000000e+01  8.000000e+01
      vertex  2.036474e+01  2.000000e+01  7.926585e+01
      vertex  2.036474e+01  4.000000e+01  7.926585e+01
    endloop
  endfacet
  facet normal  4.539905e-01  0.000000e+00 -8.910065e-01
    outer loop
      vertex  2.036474e+01  4.000000e+01  7.926585e+01
      vertex  2.036474e+01  2.000000e+01  7.926585e+01
      vertex  1.618322e+01  2.000000e+01  7.713525e+01
    endloop
  endfacet
  facet normal  4.539905e-01  0.000000e+00 -8.910065e-01
    outer loop
      vertex  2.036474e+01  4.000000e+01  7.926585e+01
      vertex  1.618322e+01  2.000000e+01  7.713525e+01
      vertex  1.618322e+01  4.000000e+01  7.713525e+01
    endloop
  endfacet
  facet normal  7.071064e-01  0.000000e+00 -7.071071e-01
    outer loop
      vertex  1.618322e+01  4.000000e+01  7.713525e+01
      vertex  1.618322e+01  2.000000e+01  7.713525e+01
      vertex  1.286475e+01  2.000000e+01  7.381678e+01
    endloop
  endfacet
  facet normal  7.071064e-01  0.000000e+00 -7.071071e-01
    outer loop
      vertex  1.618322e+01  4.000000e+01  7.713525e+01
      vertex  1.286475e+01  2.000000e+01  7.381678e+01
      vertex  1.286475e+01  4.000000e+01  7.381678e+01
    endloop
  endfacet
  facet normal  8.910066e-01  0.000000e+00 -4.539904e-01
    outer loop
      vertex  1.286475e+01  4.000000e+01  7.381678e+01
      vertex  1.286475e+01  2.000000e+01  7.381678e+01
      vertex  1.073415e+01  2.000000e+01  6.963525e+01
    endloop
  endfacet
  facet normal  8.910066e-01  0.000000e+00 -4.539904e-01
    outer loop
      vertex  1.286475e+01  4.000000e+01  7.381678e+01
      vertex  1.073415e+01  2.000000e+01  6.963525e+01
      vertex  1.073415e+01  4.000000e+01  6.963525e+01
    endloop
  endfacet
  facet normal  9.876883e-01  0.000000e+00 -1.564344e-01
    outer loop
      vertex  1.073415e+01  4.000000e+01  6.963525e+01
      vertex  1.073415e+01  2.000000e+01  6.963525e+01
      vertex  1.000000e+01  2.000000e+01  6.500000e+01
    endloop
  endfacet
  facet normal  9.876883e-01  0.000000e+00 -1.564344e-01
    outer loop
      vertex  1.073415e+01  4.000000e+01  6.963525e+01
      vertex  1.000000e+01  2.000000e+01  6.500000e+01
      vertex  1.000000e+01  4.000000e+01  6.500000e+01
    endloop
  endfacet
  facet normal -1.564347e-01  -0.000000e+00 -9.876883e-01
    outer loop
      vertex  2.500000e+01 -4.000000e+01  8.000000e+01
      vertex  2.963526e+01 -2.000000e+01  7.926585e+01
      vertex  2.963526e+01 -4.000000e+01  7.926585e+01
    endloop
  endfacet
  facet normal -4.539904e-01  0.000000e+00 -8.910066e-01
    outer loop
      vertex  2.963526e+01 -4.000000e+01  7.926585e+01
      vertex  2.963526e+01 -2.000000e+01  7.926585e+01
      vertex  3.381678e+01 -2.000000e+01  7.713525e+01
    endloop
  endfacet
  facet normal -4.539904e-01  -0.000000e+00 -8.910066e-01
    outer loop
      vertex  2.963526e+01 -4.000000e+01  7.926585e+01
      vertex  3.381678e+01 -2.000000e+01  7.713525e+01
      vertex  3.381678e+01 -4.000000e+01  7.713525e+01
    endloop
  endfacet
  facet normal -7.071068e-01  0.000000e+00 -7.071068e-01
    outer loop
      vertex  3.381678e+01 -4.000000e+01  7.713525e+01
      vertex  3.381678e+01 -2.000000e+01  7.713525e+01
      vertex  3.713525e+01 -2.000000e+01  7.381678e+01
    endloop
  endfacet
  facet normal -7.071068e-01  -0.000000e+00 -7.071068e-01
    outer loop
      vertex  3.381678e+01 -4.000000e+01  7.713525e+01
      vertex  3.713525e+01 -2.000000e+01  7.381678e+01
      vertex  3.713525e+01 -4.000000e+01  7.381678e+01
    endloop
  endfacet
  facet normal -8.910066e-01  0.000000e+00 -4.539902e-01
    outer loop
      vertex  3.713525e+01 -4.000000e+01  7.381678e+01
      vertex  3.713525e+01 -2.000000e+01  7.381678e+01
      vertex  3.926585e+01 -2.000000e+01  6.963525e+01
    endloop
  endfacet
  facet normal -8.910066e-01  -0.000000e+00 -4.539902e-01
    outer loop
      vertex  3.713525e+01 -4.000000e+01  7.381678e+01
      vertex  3.926585e+01 -2.000000e+01  6.963525e+01
      vertex  3.926585e+01 -4.000000e+01  6.963525e+01
    endloop
  endfacet
  facet normal -9.876882e-01  0.000000e+00 -1.564348e-01
    outer loop
      vertex  3.926585e+01 -4.000000e+01  6.963525e+01
      vertex  3.926585e+01 -2.000000e+01  6.963525e+01
      vertex  4.000000e+01 -2.000000e+01  6.500000e+01
    endloop
  endfacet
  facet normal -9.876882e-01  -0.000000e+00 -1.564348e-01
    outer loop
      vertex  3.926585e+01 -4.000000e+01  6.963525e+01
      vertex  4.000000e+01 -2.000000e+01  6.500000e+01
      vertex  4.000000e+01 -4.000000e+01  6.500000e+01
    endloop
  endfacet
  facet normal -1.564347e-01  0.000000e+00 -9.876883e-01
    outer loop
      vertex  2.963526e+01 -2.000000e+01  7.926585e+01
      vertex  2.500000e+01 -4.000000e+01  8.000000e+01
      vertex  2.500000e+01 -2.000000e+01  8.000000e+01
    endloop
  endfacet
  facet normal  1.564347e-01  0.000000e+00 -9.876883e-01
    outer loop
      vertex  2.500000e+01 -2.000000e+01  8.000000e+01
      vertex  2.500000e+01 -4.000000e+01  8.000000e+01
      vertex  2.036474e+01 -4.000000e+01  7.926585e+01
    endloop
  endfacet
  facet normal  1.564347e-01  0.000000e+00 -9.876883e-01
    outer loop
      vertex  2.500000e+01 -2.000000e+01  8.000000e+01
      vertex  2.036474e+01 -4.000000e+01  7.926585e+01
      vertex  2.036474e+01 -2.000000e+01  7.926585e+01
    endloop
  endfacet
  facet normal  4.539905e-01  0.000000e+00 -8.910065e-01
    outer loop
      vertex  2.036474e+01 -2.000000e+01  7.926585e+01
      vertex  2.036474e+01 -4.000000e+01  7.926585e+01
      vertex  1.618322e+01 -4.000000e+01  7.713525e+01
    endloop
  endfacet
  facet normal  4.539905e-01  0.000000e+00 -8.910065e-01
    outer loop
      vertex  2.036474e+01 -2.000000e+01  7.926585e+01
      vertex  1.618322e+01 -4.000000e+01  7.713525e+01
      vertex  1.618322e+01 -2.000000e+01  7.713525e+01
    endloop
  endfacet
  facet normal  7.071064e-01  0.000000e+00 -7.071071e-01
    outer loop
      vertex  1.618322e+01 -2.000000e+01  7.713525e+01
      vertex  1.618322e+01 -4.000000e+01  7.713525e+01
      vertex  1.286475e+01 -4.000000e+01  7.381678e+01
    endloop
  endfacet
  facet normal  7.071064e-01  0.000000e+00 -7.071071e-01
    outer loop
      vertex  1.618322e+01 -2.000000e+01  7.713525e+01
      vertex  1.286475e+01 -4.000000e+01  7.381678e+01
      vertex  1.286475e+01 -2.000000e+01  7.381678e+01
    endloop
  endfacet
  facet normal  8.910066e-01  0.000000e+00 -4.539904e-01
    outer loop
      vertex  1.286475e+01 -2.000000e+01  7.381678e+01
      vertex  1.286475e+01 -4.000000e+01  7.381678e+01
      vertex  1.073415e+01 -4.000000e+01  6.963525e+01
    endloop
  endfacet
  facet normal  8.910066e-01  0.000000e+00 -4.539904e-01
    outer loop
      vertex  1.286475e+01 -2.000000e+01  7.381678e+01
      vertex  1.073415e+01 -4.000000e+01  6.963525e+01
      vertex  1.073415e+01 -2.000000e+01  6.963525e+01
    endloop
  endfacet
  facet normal  9.876883e-01  0.000000e+00 -1.564344e-01
    outer loop
      vertex  1.073415e+01 -2.000000e+01  6.963525e+01
      vertex  1.073415e+01 -4.000000e+01  6.963525e+01
      vertex  1.000000e+01 -4.000000e+01  6.500000e+01
    endloop
  endfacet
  facet normal  9.876883e-01  0.000000e+00 -1.564344e-01
    outer loop
      vertex  1.073415e+01 -2.000000e+01  6.963525e+01
      vertex  1.000000e+01 -4.000000e+01  6.500000e+01
      vertex  1.000000e+01 -2.000000e+01  6.500000e+01
    endloop
  endfacet
  facet normal -1.000000e+00  0.000000e+00  0.000000e+00
    outer loop
      vertex  0.000000e+00 -4.000000e+01  0.000000e+00
      vertex  0.000000e+00 -4.000000e+01  3.000000e+01
      vertex  0.000000e+00 -2.000000e+01  3.000000e+01
    endloop
  endfacet
  facet normal -1.000000e+00  0.000000e+00  -0.000000e+00
    outer loop
      vertex  0.000000e+00 -4.000000e+01  0.000000e+00
      vertex  0.000000e+00 -2.000000e+01  3.000000e+01
      vertex  0.000000e+00  2.000000e+01  3.000000e+01
    endloop
  endfacet
  facet normal -1.000000e+00  0.000000e+00  -0.000000e+00
    outer loop
      vertex  0.000000e+00 -4.000000e+01  0.000000e+00
      vertex  0.000000e+00  2.000000e+01  3.000000e+01
      vertex  0.000000e+00  4.000000e+01  3.000000e+01
    endloop
  endfacet
  facet normal -1.000000e+00  0.000000e+00  -0.000000e+00
    outer loop
      vertex  0.000000e+00 -4.000000e+01  0.000000e+00
      vertex  0.000000e+00  4.000000e+01  3.000000e+01
      vertex  0.000000e+00  4.000000e+01  0.000000e+00
    endloop
  endfacet
  facet normal  0.000000e+00  1.000000e+00  -0.000000e+00
    outer loop
      vertex  3.000000e+01  4.000000e+01  2.000000e+01
      vertex  3.000000e+01  4.000000e+01  0.000000e+00
      vertex  2.500000e+01  4.000000e+01  5.000000e+01
    endloop
  endfacet
  facet normal  0.000000e+00  1.000000e+00  0.000000e+00
    outer loop
      vertex  3.000000e+01  4.000000e+01  2.000000e+01
      vertex  2.500000e+01  4.000000e+01  5.000000e+01
      vertex  7.000000e+01  4.000000e+01  3.000000e+01
    endloop
  endfacet
  facet normal  -0.000000e+00  1.000000e+00  0.000000e+00
    outer loop
      vertex  3.000000e+01  4.000000e+01  2.000000e+01
      vertex  7.000000e+01  4.000000e+01  3.000000e+01
      vertex  1.400000e+02  4.000000e+01  3.000000e+01
    endloop
  endfacet
  facet normal  0.000000e+00  1.000000e+00  0.000000e+00
    outer loop
      vertex  3.000000e+01  4.000000e+01  2.000000e+01
      vertex  1.400000e+02  4.000000e+01  3.000000e+01
      vertex  8.000000e+01  4.000000e+01  2.000000e+01
    endloop
  endfacet
  facet normal  0.000000e+00  1.000000e+00  0.000000e+00
    outer loop
      vertex  4.000000e+01  4.000000e+01  1.000000e+02
      vertex  7.000000e+01  4.000000e+01  3.000000e+01
      vertex  3.713525e+01  4.000000e+01  7.381678e+01
    endloop
  endfacet
  facet normal  0.000000e+00  9.999999e-01  -0.000000e+00
    outer loop
      vertex  4.000000e+01  4.000000e+01  1.000000e+02
      vertex  3.713525e+01  4.000000e+01  7.381678e+01
      vertex  3.381678e+01  4.000000e+01  7.713525e+01
    endloop
  endfacet
  facet normal  0.000000e+00  1.000000e+00  -0.000000e+00
    outer loop
      vertex  4.000000e+01  4.000000e+01  1.000000e+02
      vertex  3.381678e+01  4.000000e+01  7.713525e+01
      vertex  2.963526e+01  4.000000e+01  7.926585e+01
    endloop
  endfacet
  facet normal  0.000000e+00  9.999999e-01  -0.000000e+00
    outer loop
      vertex  4.000000e+01  4.000000e+01  1.000000e+02
      vertex  2.963526e+01  4.000000e+01  7.926585e+01
      vertex  2.500000e+01  4.000000e+01  8.000000e+01
    endloop
  endfacet
  facet normal  0.000000e+00  1.000000e+00  -0.000000e+00
    outer loop
      vertex  4.000000e+01  4.000000e+01  1.000000e+02
      vertex  2.500000e+01  4.000000e+01  8.000000e+01
      vertex  0.000000e+00  4.000000e+01  1.000000e+02
    endloop
  endfacet
  facet normal  -0.000000e+00  9.999999e-01  0.000000e+00
    outer loop
      vertex  7.000000e+01  4.000000e+01  3.000000e+01
      vertex  2.500000e+01  4.000000e+01  5.000000e+01
      vertex  2.963526e+01  4.000000e+01  5.073415e+01
    endloop
  endfacet
  facet normal  -0.000000e+00  1.000000e+00  0.000000e+00
    outer loop
      vertex  7.000000e+01  4.000000e+01  3.000000e+01
      vertex  2.963526e+01  4.000000e+01  5.073415e+01
      vertex  3.381678e+01  4.000000e+01  5.286475e+01
    endloop
  endfacet
  facet normal  -0.000000e+00  1.000000e+00  0.000000e+00
    outer loop
      vertex  7.000000e+01  4.000000e+01  3.000000e+01
      vertex  3.381678e+01  4.000000e+01  5.286475e+01
      vertex  3.713525e+01  4.000000e+01  5.618322e+01
    endloop
  endfacet
  facet normal  -0.000000e+00  1.000000e+00  0.000000e+00
    outer loop
      vertex  7.000000e+01  4.000000e+01  3.000000e+01
      vertex  3.713525e+01  4.000000e+01  5.618322e+01
      vertex  3.926585e+01  4.000000e+01  6.036475e+01
    endloop
  endfacet
  facet normal  -0.000000e+00  9.999999e-01  0.000000e+00
    outer loop
      vertex  7.000000e+01  4.000000e+01  3.000000e+01
      vertex  3.926585e+01  4.000000e+01  6.036475e+01
      vertex  4.000000e+01  4.000000e+01  6.500000e+01
    endloop
  endfacet
  facet normal  -0.000000e+00  1.000000e+00  -0.000000e+00
    outer loop
      vertex  7.000000e+01  4.000000e+01  3.000000e+01
      vertex  4.000000e+01  4.000000e+01  6.500000e+01
      vertex  3.926585e+01  4.000000e+01  6.963525e+01
    endloop
  endfacet
  facet normal  -0.000000e+00  1.000000e+00  -0.000000e+00
    outer loop
      vertex  7.000000e+01  4.000000e+01  3.000000e+01
      vertex  3.926585e+01  4.000000e+01  6.963525e+01
      vertex  3.713525e+01  4.000000e+01  7.381678e+01
    endloop
  endfacet
  facet normal  0.000000e+00  1.000000e+00  0.000000e+00
    outer loop
      vertex  0.000000e+00  4.000000e+01  3.000000e+01
      vertex  1.073415e+01  4.000000e+01  6.963525e+01
      vertex  1.000000e+01  4.000000e+01  6.500000e+01
    endloop
  endfacet
  facet normal  0.000000e+00  1.000000e+00  0.000000e+00
    outer loop
      vertex  0.000000e+00  4.000000e+01  3.000000e+01
      vertex  1.000000e+01  4.000000e+01  6.500000e+01
      vertex  1.073415e+01  4.000000e+01  6.036475e+01
    endloop
  endfacet
  facet normal  0.000000e+00  1.000000e+00  0.000000e+00
    outer loop
      vertex  0.000000e+00  4.000000e+01  3.000000e+01
      vertex  1.073415e+01  4.000000e+01  6.036475e+01
      vertex  1.286475e+01  4.000000e+01  5.618322e+01
    endloop
  endfacet
  facet normal  0.000000e+00  1.000000e+00  0.000000e+00
    outer loop
      vertex  0.000000e+00  4.000000e+01  3.000000e+01
      vertex  1.286475e+01  4.000000e+01  5.618322e+01
      vertex  1.618322e+01  4.000000e+01  5.286475e+01
    endloop
  endfacet
  facet normal  0.000000e+00  1.000000e+00  0.000000e+00
    outer loop
      vertex  0.000000e+00  4.000000e+01  3.000000e+01
      vertex  1.618322e+01  4.000000e+01  5.286475e+01
      vertex  2.036474e+01  4.000000e+01  5.073415e+01
    endloop
  endfacet
  facet normal  0.000000e+00  9.999999e-01  0.000000e+00
    outer loop
      vertex  0.000000e+00  4.000000e+01  3.000000e+01
      vertex  2.036474e+01  4.000000e+01  5.073415e+01
      vertex  2.500000e+01  4.000000e+01  5.000000e+01
    endloop
  endfacet
  facet normal  0.000000e+00  1.000000e+00  0.000000e+00
    outer loop
      vertex  0.000000e+00  4.000000e+01  3.000000e+01
      vertex  2.500000e+01  4.000000e+01  5.000000e+01
      vertex  3.000000e+01  4.000000e+01  0.000000e+00
    endloop
  endfacet
  facet normal  0.000000e+00  1.000000e+00  0.000000e+00
    outer loop
      vertex  0.000000e+00  4.000000e+01  3.000000e+01
      vertex  3.000000e+01  4.000000e+01  0.000000e+00
      vertex  0.000000e+00  4.000000e+01  0.000000e+00
    endloop
  endfacet
  facet normal  0.000000e+00  9.999999e-01  0.000000e+00
    outer loop
      vertex  0.000000e+00  4.000000e+01  1.000000e+02
      vertex  2.500000e+01  4.000000e+01  8.000000e+01
      vertex  2.036474e+01  4.000000e+01  7.926585e+01
    endloop
  endfacet
  facet normal  0.000000e+00  1.000000e+00  0.000000e+00
    outer loop
      vertex  0.000000e+00  4.000000e+01  1.000000e+02
      vertex  2.036474e+01  4.000000e+01  7.926585e+01
      vertex  1.618322e+01  4.000000e+01  7.713525e+01
    endloop
  endfacet
  facet normal  0.000000e+00  1.000000e+00  0.000000e+00
    outer loop
      vertex  0.000000e+00  4.000000e+01  1.000000e+02
      vertex  1.618322e+01  4.000000e+01  7.713525e+01
      vertex  1.286475e+01  4.000000e+01  7.381678e+01
    endloop
  endfacet
  facet normal  0.000000e+00  1.000000e+00  0.000000e+00
    outer loop
      vertex  0.000000e+00  4.000000e+01  1.000000e+02
      vertex  1.286475e+01  4.000000e+01  7.381678e+01
      vertex  1.073415e+01  4.000000e+01  6.963525e+01
    endloop
  endfacet
  facet normal  0.000000e+00  1.000000e+00  0.000000e+00
    outer loop
      vertex  0.000000e+00  4.000000e+01  1.000000e+02
      vertex  1.073415e+01  4.000000e+01  6.963525e+01
      vertex  0.000000e+00  4.000000e+01  3.000000e+01
    endloop
  endfacet
  facet normal  0.000000e+00  1.000000e+00  0.000000e+00
    outer loop
      vertex  1.400000e+02  4.000000e+01  0.000000e+00
      vertex  8.000000e+01  4.000000e+01  0.000000e+00
      vertex  1.400000e+02  4.000000e+01  3.000000e+01
    endloop
  endfacet
  facet normal  0.000000e+00  1.000000e+00  0.000000e+00
    outer loop
      vertex  1.400000e+02  4.000000e+01  3.000000e+01
      vertex  8.000000e+01  4.000000e+01  0.000000e+00
      vertex  8.000000e+01  4.000000e+01  2.000000e+01
    endloop
  endfacet
  facet normal  0.000000e+00 -1.000000e+00  0.000000e+00
    outer loop
      vertex  3.000000e+01 -4.000000e+01  2.000000e+01
      vertex  8.000000e+01 -4.000000e+01  2.000000e+01
      vertex  1.400000e+02 -4.000000e+01  3.000000e+01
    endloop
  endfacet
  facet normal  -0.000000e+00 -1.000000e+00  0.000000e+00
    outer loop
      vertex  3.000000e+01 -4.000000e+01  2.000000e+01
      vertex  1.400000e+02 -4.000000e+01  3.000000e+01
      vertex  7.000000e+01 -4.000000e+01  3.000000e+01
    endloop
  endfacet
  facet normal  -0.000000e+00 -1.000000e+00  0.000000e+00
    outer loop
      vertex  3.000000e+01 -4.000000e+01  2.000000e+01
      vertex  7.000000e+01 -4.000000e+01  3.000000e+01
      vertex  2.500000e+01 -4.000000e+01  5.000000e+01
    endloop
  endfacet
  facet normal  0.000000e+00 -1.000000e+00  0.000000e+00
    outer loop
      vertex  3.000000e+01 -4.000000e+01  2.000000e+01
      vertex  2.500000e+01 -4.000000e+01  5.000000e+01
      vertex  3.000000e+01 -4.000000e+01  0.000000e+00
    endloop
  endfacet
  facet normal  0.000000e+00 -1.000000e+00  0.000000e+00
    outer loop
      vertex  4.000000e+01 -4.000000e+01  1.000000e+02
      vertex  0.000000e+00 -4.000000e+01  1.000000e+02
      vertex  2.500000e+01 -4.000000e+01  8.000000e+01
    endloop
  endfacet
  facet normal  0.000000e+00 -9.999999e-01  0.000000e+00
    outer loop
      vertex  4.000000e+01 -4.000000e+01  1.000000e+02
      vertex  2.500000e+01 -4.000000e+01  8.000000e+01
      vertex  2.963526e+01 -4.000000e+01  7.926585e+01
    endloop
  endfacet
  facet normal  0.000000e+00 -1.000000e+00  0.000000e+00
    outer loop
      vertex  4.000000e+01 -4.000000e+01  1.000000e+02
      vertex  2.963526e+01 -4.000000e+01  7.926585e+01
      vertex  3.381678e+01 -4.000000e+01  7.713525e+01
    endloop
  endfacet
  facet normal  0.000000e+00 -9.999999e-01  0.000000e+00
    outer loop
      vertex  4.000000e+01 -4.000000e+01  1.000000e+02
      vertex  3.381678e+01 -4.000000e+01  7.713525e+01
      vertex  3.713525e+01 -4.000000e+01  7.381678e+01
    endloop
  endfacet
  facet normal  0.000000e+00 -1.000000e+00  0.000000e+00
    outer loop
      vertex  4.000000e+01 -4.000000e+01  1.000000e+02
      vertex  3.713525e+01 -4.000000e+01  7.381678e+01
      vertex  7.000000e+01 -4.000000e+01  3.000000e+01
    endloop
  endfacet
  facet normal  0.000000e+00 -1.000000e+00  0.000000e+00
    outer loop
      vertex  7.000000e+01 -4.000000e+01  3.000000e+01
      vertex  3.713525e+01 -4.000000e+01  7.381678e+01
      vertex  3.926585e+01 -4.000000e+01  6.963525e+01
    endloop
  endfacet
  facet normal  0.000000e+00 -1.000000e+00  0.000000e+00
    outer loop
      vertex  7.000000e+01 -4.000000e+01  3.000000e+01
      vertex  3.926585e+01 -4.000000e+01  6.963525e+01
      vertex  4.000000e+01 -4.000000e+01  6.500000e+01
    endloop
  endfacet
  facet normal  0.000000e+00 -9.999999e-01  -0.000000e+00
    outer loop
      vertex  7.000000e+01 -4.000000e+01  3.000000e+01
      vertex  4.000000e+01 -4.000000e+01  6.500000e+01
      vertex  3.926585e+01 -4.000000e+01  6.036475e+01
    endloop
  endfacet
  facet normal  0.000000e+00 -1.000000e+00  -0.000000e+00
    outer loop
      vertex  7.000000e+01 -4.000000e+01  3.000000e+01
      vertex  3.926585e+01 -4.000000e+01  6.036475e+01
      vertex  3.713525e+01 -4.000000e+01  5.618322e+01
    endloop
  endfacet
  facet normal  0.000000e+00 -1.000000e+00  -0.000000e+00
    outer loop
      vertex  7.000000e+01 -4.000000e+01  3.000000e+01
      vertex  3.713525e+01 -4.000000e+01  5.618322e+01
      vertex  3.381678e+01 -4.000000e+01  5.286475e+01
    endloop
  endfacet
  facet normal  0.000000e+00 -1.000000e+00  -0.000000e+00
    outer loop
      vertex  7.000000e+01 -4.000000e+01  3.000000e+01
      vertex  3.381678e+01 -4.000000e+01  5.286475e+01
      vertex  2.963526e+01 -4.000000e+01  5.073415e+01
    endloop
  endfacet
  facet normal  0.000000e+00 -9.999999e-01  -0.000000e+00
    outer loop
      vertex  7.000000e+01 -4.000000e+01  3.000000e+01
      vertex  2.963526e+01 -4.000000e+01  5.073415e+01
      vertex  2.500000e+01 -4.000000e+01  5.000000e+01
    endloop
  endfacet
  facet normal  0.000000e+00 -1.000000e+00  0.000000e+00
    outer loop
      vertex  0.000000e+00 -4.000000e+01  3.000000e+01
      vertex  0.000000e+00 -4.000000e+01  0.000000e+00
      vertex  3.000000e+01 -4.000000e+01  0.000000e+00
    endloop
  endfacet
  facet normal  0.000000e+00 -1.000000e+00  0.000000e+00
    outer loop
      vertex  0.000000e+00 -4.000000e+01  3.000000e+01
      vertex  3.000000e+01 -4.000000e+01  0.000000e+00
      vertex  2.500000e+01 -4.000000e+01  5.000000e+01
    endloop
  endfacet
  facet normal  -0.000000e+00 -9.999999e-01  0.000000e+00
    outer loop
      vertex  0.000000e+00 -4.000000e+01  3.000000e+01
      vertex  2.500000e+01 -4.000000e+01  5.000000e+01
      vertex  2.036474e+01 -4.000000e+01  5.073415e+01
    endloop
  endfacet
  facet normal  -0.000000e+00 -1.000000e+00  0.000000e+00
    outer loop
      vertex  0.000000e+00 -4.000000e+01  3.000000e+01
      vertex  2.036474e+01 -4.000000e+01  5.073415e+01
      vertex  1.618322e+01 -4.000000e+01  5.286475e+01
    endloop
  endfacet
  facet normal  -0.000000e+00 -1.000000e+00  0.000000e+00
    outer loop
      vertex  0.000000e+00 -4.000000e+01  3.000000e+01
      vertex  1.618322e+01 -4.000000e+01  5.286475e+01
      vertex  1.286475e+01 -4.000000e+01  5.618322e+01
    endloop
  endfacet
  facet normal  -0.000000e+00 -1.000000e+00  0.000000e+00
    outer loop
      vertex  0.000000e+00 -4.000000e+01  3.000000e+01
      vertex  1.286475e+01 -4.000000e+01  5.618322e+01
      vertex  1.073415e+01 -4.000000e+01  6.036475e+01
    endloop
  endfacet
  facet normal  -0.000000e+00 -1.000000e+00  0.000000e+00
    outer loop
      vertex  0.000000e+00 -4.000000e+01  3.000000e+01
      vertex  1.073415e+01 -4.000000e+01  6.036475e+01
      vertex  1.000000e+01 -4.000000e+01  6.500000e+01
    endloop
  endfacet
  facet normal  -0.000000e+00 -1.000000e+00  0.000000e+00
    outer loop
      vertex  0.000000e+00 -4.000000e+01  3.000000e+01
      vertex  1.000000e+01 -4.000000e+01  6.500000e+01
      vertex  1.073415e+01 -4.000000e+01  6.963525e+01
    endloop
  endfacet
  facet normal  0.000000e+00 -1.000000e+00  0.000000e+00
    outer loop
      vertex  0.000000e+00 -4.000000e+01  1.000000e+02
      vertex  0.000000e+00 -4.000000e+01  3.000000e+01
      vertex  1.073415e+01 -4.000000e+01  6.963525e+01
    endloop
  endfacet
  facet normal  0.000000e+00 -1.000000e+00  0.000000e+00
    outer loop
      vertex  0.000000e+00 -4.000000e+01  1.000000e+02
      vertex  1.073415e+01 -4.000000e+01  6.963525e+01
      vertex  1.286475e+01 -4.000000e+01  7.381678e+01
    endloop
  endfacet
  facet normal  0.000000e+00 -1.000000e+00  0.000000e+00
    outer loop
      vertex  0.000000e+00 -4.000000e+01  1.000000e+02
      vertex  1.286475e+01 -4.000000e+01  7.381678e+01
      vertex  1.618322e+01 -4.000000e+01  7.713525e+01
    endloop
  endfacet
  facet normal  0.000000e+00 -1.000000e+00  0.000000e+00
    outer loop
      vertex  0.000000e+00 -4.000000e+01  1.000000e+02
      vertex  1.618322e+01 -4.000000e+01  7.713525e+01
      vertex  2.036474e+01 -4.000000e+01  7.926585e+01
    endloop
  endfacet
  facet normal  0.000000e+00 -9.999999e-01  0.000000e+00
    outer loop
      vertex  0.000000e+00 -4.000000e+01  1.000000e+02
      vertex  2.036474e+01 -4.000000e+01  7.926585e+01
      vertex  2.500000e+01 -4.000000e+01  8.000000e+01
    endloop
  endfacet
  facet normal  0.000000e+00 -1.000000e+00  -0.000000e+00
    outer loop
      vertex  1.400000e+02 -4.000000e+01  0.000000e+00
      vertex  1.400000e+02 -4.000000e+01  3.000000e+01
      vertex  8.000000e+01 -4.000000e+01  0.000000e+00
    endloop
  endfacet
  facet normal  0.000000e+00 -1.000000e+00  0.000000e+00
    outer loop
      vertex  8.000000e+01 -4.000000e+01  0.000000e+00
      vertex  1.400000e+02 -4.000000e+01  3.000000e+01
      vertex  8.000000e+01 -4.000000e+01  2.000000e+01
    endloop
  endfacet
  facet normal  -0.000000e+00  0.000000e+00 -1.000000e+00
    outer loop
      vertex  0.000000e+00  4.000000e+01  0.000000e+00
      vertex  3.000000e+01  4.000000e+01  0.000000e+00
      vertex  0.000000e+00 -4.000000e+01  0.000000e+00
    endloop
  endfacet
  facet normal  0.000000e+00  0.000000e+00 -1.000000e+00
    outer loop
      vertex  0.000000e+00 -4.000000e+01  0.000000e+00
      vertex  3.000000e+01  4.000000e+01  0.000000e+00
      vertex  3.000000e+01 -4.000000e+01  0.000000e+00
    endloop
  endfacet
  facet normal  1.000000e+00  0.000000e+00  0.000000e+00
    outer loop
      vertex  3.000000e+01 -4.000000e+01  0.000000e+00
      vertex  3.000000e+01  4.000000e+01  0.000000e+00
      vertex  3.000000e+01 -4.000000e+01  2.000000e+01
    endloop
  endfacet
  facet normal  1.000000e+00  -0.000000e+00  0.000000e+00
    outer loop
      vertex  3.000000e+01 -4.000000e+01  2.000000e+01
      vertex  3.000000e+01  4.000000e+01  0.000000e+00
      vertex  3.000000e+01  4.000000e+01  2.000000e+01
    endloop
  endfacet
  facet normal  0.000000e+00  0.000000e+00 -1.000000e+00
    outer loop
      vertex  3.000000e+01 -4.000000e+01  2.000000e+01
      vertex  3.000000e+01  4.000000e+01  2.000000e+01
      vertex  8.000000e+01 -4.000000e+01  2.000000e+01
    endloop
  endfacet
  facet normal  0.000000e+00  0.000000e+00 -1.000000e+00
    outer loop
      vertex  8.000000e+01 -4.000000e+01  2.000000e+01
      vertex  3.000000e+01  4.000000e+01  2.000000e+01
      vertex  8.000000e+01  4.000000e+01  2.000000e+01
    endloop
  endfacet
  facet normal -1.000000e+00  -0.000000e+00  0.000000e+00
    outer loop
      vertex  8.000000e+01 -4.000000e+01  2.000000e+01
      vertex  8.000000e+01  4.000000e+01  2.000000e+01
      vertex  8.000000e+01 -4.000000e+01  0.000000e+00
    endloop
  endfacet
  facet normal -1.000000e+00  0.000000e+00  0.000000e+00
    outer loop
      vertex  8.000000e+01 -4.000000e+01  0.000000e+00
      vertex  8.000000e+01  4.000000e+01  2.000000e+01
      vertex  8.000000e+01  4.000000e+01  0.000000e+00
    endloop
  endfacet
endsolid CATIA STL
