solid CATIA STL
  facet normal  0.000000e+00  -0.000000e+00  1.000000e+00
    outer loop
      vertex -2.904737e+01 -7.500000e+00  1.500000e+01
      vertex  2.904737e+01 -7.500000e+00  1.500000e+01
      vertex  7.333109e+01 -7.311959e+00  1.500000e+01
    endloop
  endfacet
  facet normal  0.000000e+00  0.000000e+00  1.000000e+00
    outer loop
      vertex  1.236168e+01 -2.733475e+01  1.500000e+01
      vertex  7.666891e+01 -7.311959e+00  1.500000e+01
      vertex  7.333109e+01 -7.311959e+00  1.500000e+01
    endloop
  endfacet
  facet normal  0.000000e+00  0.000000e+00  1.000000e+00
    outer loop
      vertex  1.236168e+01 -2.733475e+01  1.500000e+01
      vertex  7.333109e+01 -7.311959e+00  1.500000e+01
      vertex  1.810925e+01 -2.391767e+01  1.500000e+01
    endloop
  endfacet
  facet normal  0.000000e+00  0.000000e+00  1.000000e+00
    outer loop
      vertex  1.810925e+01 -2.391767e+01  1.500000e+01
      vertex  7.333109e+01 -7.311959e+00  1.500000e+01
      vertex  2.295718e+01 -1.931238e+01  1.500000e+01
    endloop
  endfacet
  facet normal  0.000000e+00  0.000000e+00  1.000000e+00
    outer loop
      vertex  2.295718e+01 -1.931238e+01  1.500000e+01
      vertex  7.333109e+01 -7.311959e+00  1.500000e+01
      vertex  2.666461e+01 -1.374768e+01  1.500000e+01
    endloop
  endfacet
  facet normal  0.000000e+00  0.000000e+00  1.000000e+00
    outer loop
      vertex  2.904737e+01 -7.500000e+00  1.500000e+01
      vertex  2.666461e+01 -1.374768e+01  1.500000e+01
      vertex  7.333109e+01 -7.311959e+00  1.500000e+01
    endloop
  endfacet
  facet normal  0.000000e+00  -0.000000e+00  1.000000e+00
    outer loop
      vertex  1.236168e+01  2.733475e+01  1.500000e+01
      vertex  7.333109e+01  7.311959e+00  1.500000e+01
      vertex  7.666891e+01  7.311959e+00  1.500000e+01
    endloop
  endfacet
  facet normal  -0.000000e+00  -0.000000e+00  1.000000e+00
    outer loop
      vertex  1.236168e+01  2.733475e+01  1.500000e+01
      vertex  1.810925e+01  2.391767e+01  1.500000e+01
      vertex  7.333109e+01  7.311959e+00  1.500000e+01
    endloop
  endfacet
  facet normal  -0.000000e+00  -0.000000e+00  1.000000e+00
    outer loop
      vertex  1.810925e+01  2.391767e+01  1.500000e+01
      vertex  2.295718e+01  1.931238e+01  1.500000e+01
      vertex  7.333109e+01  7.311959e+00  1.500000e+01
    endloop
  endfacet
  facet normal  -0.000000e+00  -0.000000e+00  1.000000e+00
    outer loop
      vertex  2.295718e+01  1.931238e+01  1.500000e+01
      vertex  2.666461e+01  1.374768e+01  1.500000e+01
      vertex  7.333109e+01  7.311959e+00  1.500000e+01
    endloop
  endfacet
  facet normal  0.000000e+00  -0.000000e+00  1.000000e+00
    outer loop
      vertex -8.982669e+01  2.273600e+00  1.500000e+01
      vertex -8.175726e+01  3.254128e+00  1.500000e+01
      vertex -7.967617e+01  5.863736e+00  1.500000e+01
    endloop
  endfacet
  facet normal  0.000000e+00  0.000000e+00  9.999999e-01
    outer loop
      vertex  7.967617e+01 -5.863736e+00  1.500000e+01
      vertex  7.666891e+01 -7.311959e+00  1.500000e+01
      vertex  8.846415e+01 -6.611862e+00  1.500000e+01
    endloop
  endfacet
  facet normal  0.000000e+00  -0.000000e+00  1.000000e+00
    outer loop
      vertex  7.666891e+01 -7.311959e+00  1.500000e+01
      vertex  8.586428e+01 -1.034251e+01  1.500000e+01
      vertex  8.846415e+01 -6.611862e+00  1.500000e+01
    endloop
  endfacet
  facet normal  -0.000000e+00  0.000000e+00  1.000000e+00
    outer loop
      vertex  2.904737e+01  7.500000e+00  1.500000e+01
      vertex -2.904737e+01  7.500000e+00  1.500000e+01
      vertex -7.333109e+01  7.311959e+00  1.500000e+01
    endloop
  endfacet
  facet normal  0.000000e+00  0.000000e+00  1.000000e+00
    outer loop
      vertex  2.904737e+01  7.500000e+00  1.500000e+01
      vertex -7.333109e+01  7.311959e+00  1.500000e+01
      vertex  7.333109e+01  7.311959e+00  1.500000e+01
    endloop
  endfacet
  facet normal  0.000000e+00  0.000000e+00  1.000000e+00
    outer loop
      vertex  2.904737e+01  7.500000e+00  1.500000e+01
      vertex  7.333109e+01  7.311959e+00  1.500000e+01
      vertex  2.666461e+01  1.374768e+01  1.500000e+01
    endloop
  endfacet
  facet normal  0.000000e+00  0.000000e+00  1.000000e+00
    outer loop
      vertex -7.800000e+01 -1.469694e+01  1.500000e+01
      vertex -6.000000e+00 -2.939388e+01  1.500000e+01
      vertex -1.236168e+01 -2.733475e+01  1.500000e+01
    endloop
  endfacet
  facet normal  0.000000e+00  0.000000e+00  1.000000e+00
    outer loop
      vertex -7.800000e+01 -1.469694e+01  1.500000e+01
      vertex -1.236168e+01 -2.733475e+01  1.500000e+01
      vertex -1.810925e+01 -2.391767e+01  1.500000e+01
    endloop
  endfacet
  facet normal  0.000000e+00  0.000000e+00  9.999999e-01
    outer loop
      vertex -7.800000e+01 -1.469694e+01  1.500000e+01
      vertex -1.810925e+01 -2.391767e+01  1.500000e+01
      vertex -2.295718e+01 -1.931238e+01  1.500000e+01
    endloop
  endfacet
  facet normal  0.000000e+00  0.000000e+00  1.000000e+00
    outer loop
      vertex -7.800000e+01 -1.469694e+01  1.500000e+01
      vertex -2.295718e+01 -1.931238e+01  1.500000e+01
      vertex -2.666461e+01 -1.374768e+01  1.500000e+01
    endloop
  endfacet
  facet normal  0.000000e+00  0.000000e+00  1.000000e+00
    outer loop
      vertex -7.800000e+01 -1.469694e+01  1.500000e+01
      vertex -2.666461e+01 -1.374768e+01  1.500000e+01
      vertex -2.904737e+01 -7.500000e+00  1.500000e+01
    endloop
  endfacet
  facet normal  0.000000e+00  0.000000e+00  1.000000e+00
    outer loop
      vertex -7.800000e+01 -1.469694e+01  1.500000e+01
      vertex -2.904737e+01 -7.500000e+00  1.500000e+01
      vertex -7.333109e+01 -7.311959e+00  1.500000e+01
    endloop
  endfacet
  facet normal  0.000000e+00  0.000000e+00  1.000000e+00
    outer loop
      vertex -7.800000e+01 -1.469694e+01  1.500000e+01
      vertex -7.333109e+01 -7.311959e+00  1.500000e+01
      vertex -7.666891e+01 -7.311959e+00  1.500000e+01
    endloop
  endfacet
  facet normal  0.000000e+00  0.000000e+00  1.000000e+00
    outer loop
      vertex -7.800000e+01 -1.469694e+01  1.500000e+01
      vertex -7.666891e+01 -7.311959e+00  1.500000e+01
      vertex -8.586428e+01 -1.034251e+01  1.500000e+01
    endloop
  endfacet
  facet normal  0.000000e+00  0.000000e+00  9.999999e-01
    outer loop
      vertex -7.800000e+01 -1.469694e+01  1.500000e+01
      vertex -8.586428e+01 -1.034251e+01  1.500000e+01
      vertex -8.226601e+01 -1.312270e+01  1.500000e+01
    endloop
  endfacet
  facet normal  -0.000000e+00  0.000000e+00  1.000000e+00
    outer loop
      vertex -7.800000e+01  1.469694e+01  1.500000e+01
      vertex -8.226601e+01  1.312270e+01  1.500000e+01
      vertex -8.586428e+01  1.034251e+01  1.500000e+01
    endloop
  endfacet
  facet normal  -0.000000e+00  0.000000e+00  1.000000e+00
    outer loop
      vertex -7.800000e+01  1.469694e+01  1.500000e+01
      vertex -8.586428e+01  1.034251e+01  1.500000e+01
      vertex -7.666891e+01  7.311959e+00  1.500000e+01
    endloop
  endfacet
  facet normal  0.000000e+00  -0.000000e+00  1.000000e+00
    outer loop
      vertex -7.800000e+01  1.469694e+01  1.500000e+01
      vertex -7.666891e+01  7.311959e+00  1.500000e+01
      vertex -7.333109e+01  7.311959e+00  1.500000e+01
    endloop
  endfacet
  facet normal  0.000000e+00  -0.000000e+00  1.000000e+00
    outer loop
      vertex -7.800000e+01  1.469694e+01  1.500000e+01
      vertex -7.333109e+01  7.311959e+00  1.500000e+01
      vertex -2.904737e+01  7.500000e+00  1.500000e+01
    endloop
  endfacet
  facet normal  0.000000e+00  -0.000000e+00  1.000000e+00
    outer loop
      vertex -7.800000e+01  1.469694e+01  1.500000e+01
      vertex -2.904737e+01  7.500000e+00  1.500000e+01
      vertex -2.666461e+01  1.374768e+01  1.500000e+01
    endloop
  endfacet
  facet normal  0.000000e+00  -0.000000e+00  1.000000e+00
    outer loop
      vertex -7.800000e+01  1.469694e+01  1.500000e+01
      vertex -2.666461e+01  1.374768e+01  1.500000e+01
      vertex -2.295718e+01  1.931238e+01  1.500000e+01
    endloop
  endfacet
  facet normal  0.000000e+00  -0.000000e+00  9.999999e-01
    outer loop
      vertex -7.800000e+01  1.469694e+01  1.500000e+01
      vertex -2.295718e+01  1.931238e+01  1.500000e+01
      vertex -1.810925e+01  2.391767e+01  1.500000e+01
    endloop
  endfacet
  facet normal  0.000000e+00  -0.000000e+00  1.000000e+00
    outer loop
      vertex -7.800000e+01  1.469694e+01  1.500000e+01
      vertex -1.810925e+01  2.391767e+01  1.500000e+01
      vertex -1.236168e+01  2.733475e+01  1.500000e+01
    endloop
  endfacet
  facet normal  0.000000e+00  -0.000000e+00  1.000000e+00
    outer loop
      vertex -7.800000e+01  1.469694e+01  1.500000e+01
      vertex -1.236168e+01  2.733475e+01  1.500000e+01
      vertex -6.000000e+00  2.939388e+01  1.500000e+01
    endloop
  endfacet
  facet normal  0.000000e+00  0.000000e+00  9.999999e-01
    outer loop
      vertex  8.226601e+01 -1.312270e+01  1.500000e+01
      vertex  8.586428e+01 -1.034251e+01  1.500000e+01
      vertex  7.800000e+01 -1.469694e+01  1.500000e+01
    endloop
  endfacet
  facet normal  0.000000e+00  -0.000000e+00  1.000000e+00
    outer loop
      vertex  7.800000e+01 -1.469694e+01  1.500000e+01
      vertex  8.586428e+01 -1.034251e+01  1.500000e+01
      vertex  7.666891e+01 -7.311959e+00  1.500000e+01
    endloop
  endfacet
  facet normal  0.000000e+00  0.000000e+00  1.000000e+00
    outer loop
      vertex  7.800000e+01 -1.469694e+01  1.500000e+01
      vertex  7.666891e+01 -7.311959e+00  1.500000e+01
      vertex  6.000000e+00 -2.939388e+01  1.500000e+01
    endloop
  endfacet
  facet normal  0.000000e+00  0.000000e+00  1.000000e+00
    outer loop
      vertex  6.000000e+00 -2.939388e+01  1.500000e+01
      vertex  7.666891e+01 -7.311959e+00  1.500000e+01
      vertex  1.236168e+01 -2.733475e+01  1.500000e+01
    endloop
  endfacet
  facet normal  0.000000e+00  0.000000e+00  1.000000e+00
    outer loop
      vertex  8.586428e+01  1.034251e+01  1.500000e+01
      vertex  8.226601e+01  1.312270e+01  1.500000e+01
      vertex  7.666891e+01  7.311959e+00  1.500000e+01
    endloop
  endfacet
  facet normal  0.000000e+00  0.000000e+00  9.999999e-01
    outer loop
      vertex  7.666891e+01  7.311959e+00  1.500000e+01
      vertex  8.226601e+01  1.312270e+01  1.500000e+01
      vertex  7.800000e+01  1.469694e+01  1.500000e+01
    endloop
  endfacet
  facet normal  0.000000e+00  0.000000e+00  1.000000e+00
    outer loop
      vertex  7.666891e+01  7.311959e+00  1.500000e+01
      vertex  7.800000e+01  1.469694e+01  1.500000e+01
      vertex  1.236168e+01  2.733475e+01  1.500000e+01
    endloop
  endfacet
  facet normal  -0.000000e+00  -0.000000e+00  1.000000e+00
    outer loop
      vertex  1.236168e+01  2.733475e+01  1.500000e+01
      vertex  7.800000e+01  1.469694e+01  1.500000e+01
      vertex  6.000000e+00  2.939388e+01  1.500000e+01
    endloop
  endfacet
  facet normal  0.000000e+00  0.000000e+00  1.000000e+00
    outer loop
      vertex -8.982669e+01  2.273600e+00  1.500000e+01
      vertex -7.967617e+01  5.863736e+00  1.500000e+01
      vertex -8.846415e+01  6.611862e+00  1.500000e+01
    endloop
  endfacet
  facet normal  -0.000000e+00  0.000000e+00  9.999999e-01
    outer loop
      vertex -8.846415e+01  6.611862e+00  1.500000e+01
      vertex -7.967617e+01  5.863736e+00  1.500000e+01
      vertex -7.666891e+01  7.311959e+00  1.500000e+01
    endloop
  endfacet
  facet normal  0.000000e+00  0.000000e+00  1.000000e+00
    outer loop
      vertex -8.846415e+01  6.611862e+00  1.500000e+01
      vertex -7.666891e+01  7.311959e+00  1.500000e+01
      vertex -8.586428e+01  1.034251e+01  1.500000e+01
    endloop
  endfacet
  facet normal  -0.000000e+00  0.000000e+00  1.000000e+00
    outer loop
      vertex -8.175726e+01  3.254128e+00  1.500000e+01
      vertex -8.982669e+01  2.273600e+00  1.500000e+01
      vertex -8.250000e+01  4.249154e-15  1.500000e+01
    endloop
  endfacet
  facet normal  0.000000e+00  0.000000e+00  1.000000e+00
    outer loop
      vertex -8.250000e+01  4.249154e-15  1.500000e+01
      vertex -8.982669e+01  2.273600e+00  1.500000e+01
      vertex -8.982669e+01 -2.273600e+00  1.500000e+01
    endloop
  endfacet
  facet normal  -0.000000e+00  0.000000e+00  1.000000e+00
    outer loop
      vertex -8.250000e+01  4.249154e-15  1.500000e+01
      vertex -8.982669e+01 -2.273600e+00  1.500000e+01
      vertex -8.175726e+01 -3.254128e+00  1.500000e+01
    endloop
  endfacet
  facet normal  0.000000e+00  0.000000e+00  1.000000e+00
    outer loop
      vertex -8.586428e+01 -1.034251e+01  1.500000e+01
      vertex -7.666891e+01 -7.311959e+00  1.500000e+01
      vertex -8.846415e+01 -6.611862e+00  1.500000e+01
    endloop
  endfacet
  facet normal  -0.000000e+00  0.000000e+00  9.999999e-01
    outer loop
      vertex -8.846415e+01 -6.611862e+00  1.500000e+01
      vertex -7.666891e+01 -7.311959e+00  1.500000e+01
      vertex -7.967617e+01 -5.863736e+00  1.500000e+01
    endloop
  endfacet
  facet normal  0.000000e+00  0.000000e+00  1.000000e+00
    outer loop
      vertex -8.846415e+01 -6.611862e+00  1.500000e+01
      vertex -7.967617e+01 -5.863736e+00  1.500000e+01
      vertex -8.982669e+01 -2.273600e+00  1.500000e+01
    endloop
  endfacet
  facet normal  0.000000e+00  0.000000e+00  1.000000e+00
    outer loop
      vertex -8.982669e+01 -2.273600e+00  1.500000e+01
      vertex -7.967617e+01 -5.863736e+00  1.500000e+01
      vertex -8.175726e+01 -3.254128e+00  1.500000e+01
    endloop
  endfacet
  facet normal  -0.000000e+00  0.000000e+00  1.000000e+00
    outer loop
      vertex  7.333109e+01  7.311959e+00  1.500000e+01
      vertex -7.333109e+01  7.311959e+00  1.500000e+01
      vertex  7.032383e+01  5.863736e+00  1.500000e+01
    endloop
  endfacet
  facet normal  0.000000e+00  0.000000e+00  9.999999e-01
    outer loop
      vertex  7.032383e+01  5.863736e+00  1.500000e+01
      vertex -7.333109e+01  7.311959e+00  1.500000e+01
      vertex -7.032383e+01  5.863736e+00  1.500000e+01
    endloop
  endfacet
  facet normal  -0.000000e+00  0.000000e+00  1.000000e+00
    outer loop
      vertex  7.032383e+01  5.863736e+00  1.500000e+01
      vertex -7.032383e+01  5.863736e+00  1.500000e+01
      vertex  6.824274e+01  3.254128e+00  1.500000e+01
    endloop
  endfacet
  facet normal  0.000000e+00  0.000000e+00  1.000000e+00
    outer loop
      vertex  6.824274e+01  3.254128e+00  1.500000e+01
      vertex -7.032383e+01  5.863736e+00  1.500000e+01
      vertex -6.824274e+01  3.254128e+00  1.500000e+01
    endloop
  endfacet
  facet normal  -0.000000e+00  0.000000e+00  9.999999e-01
    outer loop
      vertex  6.824274e+01  3.254128e+00  1.500000e+01
      vertex -6.824274e+01  3.254128e+00  1.500000e+01
      vertex  6.750000e+01  4.249154e-15  1.500000e+01
    endloop
  endfacet
  facet normal  0.000000e+00  0.000000e+00  9.999999e-01
    outer loop
      vertex  6.750000e+01  4.249154e-15  1.500000e+01
      vertex -6.824274e+01  3.254128e+00  1.500000e+01
      vertex -6.750000e+01 -8.498309e-15  1.500000e+01
    endloop
  endfacet
  facet normal  -0.000000e+00  0.000000e+00  9.999999e-01
    outer loop
      vertex  6.750000e+01  4.249154e-15  1.500000e+01
      vertex -6.750000e+01 -8.498309e-15  1.500000e+01
      vertex  6.824274e+01 -3.254128e+00  1.500000e+01
    endloop
  endfacet
  facet normal  0.000000e+00  0.000000e+00  9.999999e-01
    outer loop
      vertex  6.824274e+01 -3.254128e+00  1.500000e+01
      vertex -6.750000e+01 -8.498309e-15  1.500000e+01
      vertex -6.824274e+01 -3.254128e+00  1.500000e+01
    endloop
  endfacet
  facet normal  -0.000000e+00  0.000000e+00  1.000000e+00
    outer loop
      vertex  6.824274e+01 -3.254128e+00  1.500000e+01
      vertex -6.824274e+01 -3.254128e+00  1.500000e+01
      vertex  7.032383e+01 -5.863736e+00  1.500000e+01
    endloop
  endfacet
  facet normal  0.000000e+00  0.000000e+00  1.000000e+00
    outer loop
      vertex  7.032383e+01 -5.863736e+00  1.500000e+01
      vertex -6.824274e+01 -3.254128e+00  1.500000e+01
      vertex -7.032383e+01 -5.863736e+00  1.500000e+01
    endloop
  endfacet
  facet normal  -0.000000e+00  0.000000e+00  9.999999e-01
    outer loop
      vertex  7.032383e+01 -5.863736e+00  1.500000e+01
      vertex -7.032383e+01 -5.863736e+00  1.500000e+01
      vertex  7.333109e+01 -7.311959e+00  1.500000e+01
    endloop
  endfacet
  facet normal  0.000000e+00  0.000000e+00  1.000000e+00
    outer loop
      vertex  7.333109e+01 -7.311959e+00  1.500000e+01
      vertex -7.032383e+01 -5.863736e+00  1.500000e+01
      vertex -7.333109e+01 -7.311959e+00  1.500000e+01
    endloop
  endfacet
  facet normal  -0.000000e+00  0.000000e+00  1.000000e+00
    outer loop
      vertex  7.333109e+01 -7.311959e+00  1.500000e+01
      vertex -7.333109e+01 -7.311959e+00  1.500000e+01
      vertex -2.904737e+01 -7.500000e+00  1.500000e+01
    endloop
  endfacet
  facet normal  0.000000e+00  0.000000e+00  1.000000e+00
    outer loop
      vertex  7.967617e+01  5.863736e+00  1.500000e+01
      vertex  8.982669e+01  2.273600e+00  1.500000e+01
      vertex  7.666891e+01  7.311959e+00  1.500000e+01
    endloop
  endfacet
  facet normal  0.000000e+00  0.000000e+00  1.000000e+00
    outer loop
      vertex  7.666891e+01  7.311959e+00  1.500000e+01
      vertex  8.982669e+01  2.273600e+00  1.500000e+01
      vertex  8.846415e+01  6.611862e+00  1.500000e+01
    endloop
  endfacet
  facet normal  0.000000e+00  0.000000e+00  1.000000e+00
    outer loop
      vertex  7.666891e+01  7.311959e+00  1.500000e+01
      vertex  8.846415e+01  6.611862e+00  1.500000e+01
      vertex  8.586428e+01  1.034251e+01  1.500000e+01
    endloop
  endfacet
  facet normal  0.000000e+00  0.000000e+00  1.000000e+00
    outer loop
      vertex  8.250000e+01  0.000000e+00  1.500000e+01
      vertex  8.982669e+01 -2.273600e+00  1.500000e+01
      vertex  8.175726e+01  3.254128e+00  1.500000e+01
    endloop
  endfacet
  facet normal  0.000000e+00  0.000000e+00  1.000000e+00
    outer loop
      vertex  8.175726e+01  3.254128e+00  1.500000e+01
      vertex  8.982669e+01 -2.273600e+00  1.500000e+01
      vertex  8.982669e+01  2.273600e+00  1.500000e+01
    endloop
  endfacet
  facet normal  0.000000e+00  0.000000e+00  1.000000e+00
    outer loop
      vertex  8.175726e+01  3.254128e+00  1.500000e+01
      vertex  8.982669e+01  2.273600e+00  1.500000e+01
      vertex  7.967617e+01  5.863736e+00  1.500000e+01
    endloop
  endfacet
  facet normal  0.000000e+00  0.000000e+00  1.000000e+00
    outer loop
      vertex  7.967617e+01 -5.863736e+00  1.500000e+01
      vertex  8.846415e+01 -6.611862e+00  1.500000e+01
      vertex  8.175726e+01 -3.254128e+00  1.500000e+01
    endloop
  endfacet
  facet normal  -0.000000e+00  0.000000e+00  1.000000e+00
    outer loop
      vertex  8.175726e+01 -3.254128e+00  1.500000e+01
      vertex  8.846415e+01 -6.611862e+00  1.500000e+01
      vertex  8.982669e+01 -2.273600e+00  1.500000e+01
    endloop
  endfacet
  facet normal  0.000000e+00  0.000000e+00  1.000000e+00
    outer loop
      vertex  8.175726e+01 -3.254128e+00  1.500000e+01
      vertex  8.982669e+01 -2.273600e+00  1.500000e+01
      vertex  8.250000e+01  0.000000e+00  1.500000e+01
    endloop
  endfacet
  facet normal  -0.000000e+00  0.000000e+00  1.000000e+00
    outer loop
      vertex  2.904737e+01 -7.500000e+00  7.500000e+01
      vertex -2.904737e+01 -7.500000e+00  7.500000e+01
      vertex  2.717119e+01 -1.271717e+01  7.500000e+01
    endloop
  endfacet
  facet normal  0.000000e+00  0.000000e+00  1.000000e+00
    outer loop
      vertex  2.717119e+01 -1.271717e+01  7.500000e+01
      vertex -2.904737e+01 -7.500000e+00  7.500000e+01
      vertex -2.717119e+01 -1.271717e+01  7.500000e+01
    endloop
  endfacet
  facet normal  -0.000000e+00  0.000000e+00  1.000000e+00
    outer loop
      vertex  2.717119e+01 -1.271717e+01  7.500000e+01
      vertex -2.717119e+01 -1.271717e+01  7.500000e+01
      vertex  2.436699e+01 -1.750000e+01  7.500000e+01
    endloop
  endfacet
  facet normal  0.000000e+00  0.000000e+00  1.000000e+00
    outer loop
      vertex  2.436699e+01 -1.750000e+01  7.500000e+01
      vertex -2.717119e+01 -1.271717e+01  7.500000e+01
      vertex -2.436699e+01 -1.750000e+01  7.500000e+01
    endloop
  endfacet
  facet normal  -0.000000e+00  0.000000e+00  1.000000e+00
    outer loop
      vertex  2.436699e+01  1.750000e+01  7.500000e+01
      vertex -2.436699e+01  1.750000e+01  7.500000e+01
      vertex  2.717119e+01  1.271717e+01  7.500000e+01
    endloop
  endfacet
  facet normal  0.000000e+00  0.000000e+00  1.000000e+00
    outer loop
      vertex  2.717119e+01  1.271717e+01  7.500000e+01
      vertex -2.436699e+01  1.750000e+01  7.500000e+01
      vertex -2.717119e+01  1.271717e+01  7.500000e+01
    endloop
  endfacet
  facet normal  -0.000000e+00  0.000000e+00  1.000000e+00
    outer loop
      vertex  2.717119e+01  1.271717e+01  7.500000e+01
      vertex -2.717119e+01  1.271717e+01  7.500000e+01
      vertex  2.904737e+01  7.500000e+00  7.500000e+01
    endloop
  endfacet
  facet normal  0.000000e+00  0.000000e+00  1.000000e+00
    outer loop
      vertex  2.904737e+01  7.500000e+00  7.500000e+01
      vertex -2.717119e+01  1.271717e+01  7.500000e+01
      vertex -2.904737e+01  7.500000e+00  7.500000e+01
    endloop
  endfacet
  facet normal  2.091022e-01 -9.778785e-01  5.498718e-03
    outer loop
      vertex  6.000000e+00 -2.939388e+01  1.500000e+01
      vertex  9.322725e+00 -2.851468e+01  4.500000e+01
      vertex  3.154059e+00 -2.983374e+01  4.500000e+01
    endloop
  endfacet
  facet normal  3.079405e-01 -9.513853e-01 -6.224789e-03
    outer loop
      vertex  6.000000e+00 -2.939388e+01  1.500000e+01
      vertex  1.236168e+01 -2.733475e+01  1.500000e+01
      vertex  9.322725e+00 -2.851468e+01  4.500000e+01
    endloop
  endfacet
  facet normal  6.887184e-01 -7.250043e-01 -5.977672e-03
    outer loop
      vertex  2.295718e+01 -1.931238e+01  1.500000e+01
      vertex  2.016897e+01 -2.220840e+01  4.500000e+01
      vertex  1.810925e+01 -2.391767e+01  1.500000e+01
    endloop
  endfacet
  facet normal  5.907347e-01 -8.068476e-01  5.412693e-03
    outer loop
      vertex  1.810925e+01 -2.391767e+01  1.500000e+01
      vertex  2.016897e+01 -2.220840e+01  4.500000e+01
      vertex  1.507920e+01 -2.593488e+01  4.500000e+01
    endloop
  endfacet
  facet normal  5.110225e-01 -8.595451e-01 -6.181781e-03
    outer loop
      vertex  1.810925e+01 -2.391767e+01  1.500000e+01
      vertex  1.507920e+01 -2.593488e+01  4.500000e+01
      vertex  1.236168e+01 -2.733475e+01  1.500000e+01
    endloop
  endfacet
  facet normal  4.089590e-01 -9.125360e-01  5.536219e-03
    outer loop
      vertex  1.236168e+01 -2.733475e+01  1.500000e+01
      vertex  1.507920e+01 -2.593488e+01  4.500000e+01
      vertex  9.322725e+00 -2.851468e+01  4.500000e+01
    endloop
  endfacet
  facet normal -1.005084e-01 -9.949306e-01 -3.368679e-03
    outer loop
      vertex -6.000000e+00 -2.939388e+01  0.000000e+00
      vertex -5.510911e-15 -3.000000e+01  0.000000e+00
      vertex -3.154059e+00 -2.983374e+01  4.500000e+01
    endloop
  endfacet
  facet normal -4.089590e-01 -9.125360e-01  5.536219e-03
    outer loop
      vertex -9.322725e+00 -2.851468e+01  4.500000e+01
      vertex -1.507920e+01 -2.593488e+01  4.500000e+01
      vertex -1.236168e+01 -2.733475e+01  1.500000e+01
    endloop
  endfacet
  facet normal -5.110225e-01 -8.595451e-01 -6.181779e-03
    outer loop
      vertex -1.810925e+01 -2.391767e+01  1.500000e+01
      vertex -1.236168e+01 -2.733475e+01  1.500000e+01
      vertex -1.507920e+01 -2.593488e+01  4.500000e+01
    endloop
  endfacet
  facet normal -5.907347e-01 -8.068476e-01  5.412693e-03
    outer loop
      vertex -1.507920e+01 -2.593488e+01  4.500000e+01
      vertex -2.016897e+01 -2.220840e+01  4.500000e+01
      vertex -1.810925e+01 -2.391767e+01  1.500000e+01
    endloop
  endfacet
  facet normal -6.887184e-01 -7.250042e-01 -5.977672e-03
    outer loop
      vertex -2.295718e+01 -1.931238e+01  1.500000e+01
      vertex -1.810925e+01 -2.391767e+01  1.500000e+01
      vertex -2.016897e+01 -2.220840e+01  4.500000e+01
    endloop
  endfacet
  facet normal -1.527438e-01 -9.882658e-01  0.000000e+00
    outer loop
      vertex -6.000000e+00 -2.939388e+01  1.500000e+01
      vertex -6.000000e+00 -2.939388e+01  0.000000e+00
      vertex -3.154059e+00 -2.983374e+01  4.500000e+01
    endloop
  endfacet
  facet normal -2.091022e-01 -9.778785e-01  5.498718e-03
    outer loop
      vertex -6.000000e+00 -2.939388e+01  1.500000e+01
      vertex -3.154059e+00 -2.983374e+01  4.500000e+01
      vertex -9.322725e+00 -2.851468e+01  4.500000e+01
    endloop
  endfacet
  facet normal -3.079405e-01 -9.513853e-01 -6.224791e-03
    outer loop
      vertex -6.000000e+00 -2.939388e+01  1.500000e+01
      vertex -9.322725e+00 -2.851468e+01  4.500000e+01
      vertex -1.236168e+01 -2.733475e+01  1.500000e+01
    endloop
  endfacet
  facet normal -8.626603e-01 -5.057836e-01  -0.000000e+00
    outer loop
      vertex -2.436699e+01 -1.750000e+01  4.500000e+01
      vertex -2.436699e+01 -1.750000e+01  7.500000e+01
      vertex -2.717119e+01 -1.271717e+01  7.500000e+01
    endloop
  endfacet
  facet normal -8.583453e-01 -5.130700e-01  1.565010e-03
    outer loop
      vertex -2.436699e+01 -1.750000e+01  4.500000e+01
      vertex -2.717119e+01 -1.271717e+01  7.500000e+01
      vertex -2.666461e+01 -1.374768e+01  1.500000e+01
    endloop
  endfacet
  facet normal -8.322008e-01 -5.544460e-01 -5.612544e-03
    outer loop
      vertex -2.436699e+01 -1.750000e+01  4.500000e+01
      vertex -2.666461e+01 -1.374768e+01  1.500000e+01
      vertex -2.295718e+01 -1.931238e+01  1.500000e+01
    endloop
  endfacet
  facet normal -7.463927e-01 -6.654860e-01  5.128114e-03
    outer loop
      vertex -2.436699e+01 -1.750000e+01  4.500000e+01
      vertex -2.295718e+01 -1.931238e+01  1.500000e+01
      vertex -2.016897e+01 -2.220840e+01  4.500000e+01
    endloop
  endfacet
  facet normal  7.463927e-01 -6.654860e-01  5.128114e-03
    outer loop
      vertex  2.436699e+01 -1.750000e+01  4.500000e+01
      vertex  2.016897e+01 -2.220840e+01  4.500000e+01
      vertex  2.295718e+01 -1.931238e+01  1.500000e+01
    endloop
  endfacet
  facet normal  8.322008e-01 -5.544460e-01 -5.612544e-03
    outer loop
      vertex  2.436699e+01 -1.750000e+01  4.500000e+01
      vertex  2.295718e+01 -1.931238e+01  1.500000e+01
      vertex  2.666461e+01 -1.374768e+01  1.500000e+01
    endloop
  endfacet
  facet normal  8.583453e-01 -5.130700e-01  1.565010e-03
    outer loop
      vertex  2.436699e+01 -1.750000e+01  4.500000e+01
      vertex  2.666461e+01 -1.374768e+01  1.500000e+01
      vertex  2.717119e+01 -1.271717e+01  7.500000e+01
    endloop
  endfacet
  facet normal  8.626603e-01 -5.057836e-01  0.000000e+00
    outer loop
      vertex  2.436699e+01 -1.750000e+01  4.500000e+01
      vertex  2.717119e+01 -1.271717e+01  7.500000e+01
      vertex  2.436699e+01 -1.750000e+01  7.500000e+01
    endloop
  endfacet
  facet normal  1.005089e-01 -9.949361e-01  0.000000e+00
    outer loop
      vertex  6.000000e+00 -2.939388e+01  0.000000e+00
      vertex  6.000000e+00 -2.939388e+01  1.500000e+01
      vertex -5.510911e-15 -3.000000e+01  0.000000e+00
    endloop
  endfacet
  facet normal  1.105998e-01 -9.938567e-01 -4.079956e-03
    outer loop
      vertex -5.510911e-15 -3.000000e+01  0.000000e+00
      vertex  6.000000e+00 -2.939388e+01  1.500000e+01
      vertex  3.154059e+00 -2.983374e+01  4.500000e+01
    endloop
  endfacet
  facet normal  0.000000e+00 -9.999932e-01  3.694679e-03
    outer loop
      vertex -5.510911e-15 -3.000000e+01  0.000000e+00
      vertex  3.154059e+00 -2.983374e+01  4.500000e+01
      vertex -3.154059e+00 -2.983374e+01  4.500000e+01
    endloop
  endfacet
  facet normal  9.410000e-01 -3.383999e-01 -2.132806e-03
    outer loop
      vertex  2.717119e+01 -1.271717e+01  7.500000e+01
      vertex  2.666461e+01 -1.374768e+01  1.500000e+01
      vertex  2.904737e+01 -7.500000e+00  7.500000e+01
    endloop
  endfacet
  facet normal  9.343535e-01 -3.563476e-01  0.000000e+00
    outer loop
      vertex  2.904737e+01 -7.500000e+00  7.500000e+01
      vertex  2.666461e+01 -1.374768e+01  1.500000e+01
      vertex  2.904737e+01 -7.500000e+00  1.500000e+01
    endloop
  endfacet
  facet normal -9.409999e-01 -3.383999e-01 -2.132804e-03
    outer loop
      vertex -2.717119e+01 -1.271717e+01  7.500000e+01
      vertex -2.904737e+01 -7.500000e+00  7.500000e+01
      vertex -2.666461e+01 -1.374768e+01  1.500000e+01
    endloop
  endfacet
  facet normal -9.343535e-01 -3.563476e-01  0.000000e+00
    outer loop
      vertex -2.666461e+01 -1.374768e+01  1.500000e+01
      vertex -2.904737e+01 -7.500000e+00  7.500000e+01
      vertex -2.904737e+01 -7.500000e+00  1.500000e+01
    endloop
  endfacet
  facet normal -2.091022e-01  9.778785e-01  5.498718e-03
    outer loop
      vertex -6.000000e+00  2.939388e+01  1.500000e+01
      vertex -9.322725e+00  2.851468e+01  4.500000e+01
      vertex -3.154059e+00  2.983374e+01  4.500000e+01
    endloop
  endfacet
  facet normal -3.079405e-01  9.513853e-01 -6.224789e-03
    outer loop
      vertex -6.000000e+00  2.939388e+01  1.500000e+01
      vertex -1.236168e+01  2.733475e+01  1.500000e+01
      vertex -9.322725e+00  2.851468e+01  4.500000e+01
    endloop
  endfacet
  facet normal -6.887184e-01  7.250043e-01 -5.977672e-03
    outer loop
      vertex -2.295718e+01  1.931238e+01  1.500000e+01
      vertex -2.016897e+01  2.220840e+01  4.500000e+01
      vertex -1.810925e+01  2.391767e+01  1.500000e+01
    endloop
  endfacet
  facet normal -5.907347e-01  8.068476e-01  5.412693e-03
    outer loop
      vertex -1.810925e+01  2.391767e+01  1.500000e+01
      vertex -2.016897e+01  2.220840e+01  4.500000e+01
      vertex -1.507920e+01  2.593488e+01  4.500000e+01
    endloop
  endfacet
  facet normal -5.110225e-01  8.595451e-01 -6.181781e-03
    outer loop
      vertex -1.810925e+01  2.391767e+01  1.500000e+01
      vertex -1.507920e+01  2.593488e+01  4.500000e+01
      vertex -1.236168e+01  2.733475e+01  1.500000e+01
    endloop
  endfacet
  facet normal -4.089590e-01  9.125360e-01  5.536219e-03
    outer loop
      vertex -1.236168e+01  2.733475e+01  1.500000e+01
      vertex -1.507920e+01  2.593488e+01  4.500000e+01
      vertex -9.322725e+00  2.851468e+01  4.500000e+01
    endloop
  endfacet
  facet normal  1.005084e-01  9.949306e-01 -3.368679e-03
    outer loop
      vertex  6.000000e+00  2.939388e+01  0.000000e+00
      vertex  8.498309e-15  3.000000e+01  0.000000e+00
      vertex  3.154059e+00  2.983374e+01  4.500000e+01
    endloop
  endfacet
  facet normal  4.089590e-01  9.125360e-01  5.536219e-03
    outer loop
      vertex  9.322725e+00  2.851468e+01  4.500000e+01
      vertex  1.507920e+01  2.593488e+01  4.500000e+01
      vertex  1.236168e+01  2.733475e+01  1.500000e+01
    endloop
  endfacet
  facet normal  5.110225e-01  8.595451e-01 -6.181779e-03
    outer loop
      vertex  1.810925e+01  2.391767e+01  1.500000e+01
      vertex  1.236168e+01  2.733475e+01  1.500000e+01
      vertex  1.507920e+01  2.593488e+01  4.500000e+01
    endloop
  endfacet
  facet normal  5.907347e-01  8.068476e-01  5.412693e-03
    outer loop
      vertex  1.507920e+01  2.593488e+01  4.500000e+01
      vertex  2.016897e+01  2.220840e+01  4.500000e+01
      vertex  1.810925e+01  2.391767e+01  1.500000e+01
    endloop
  endfacet
  facet normal  6.887184e-01  7.250042e-01 -5.977672e-03
    outer loop
      vertex  2.295718e+01  1.931238e+01  1.500000e+01
      vertex  1.810925e+01  2.391767e+01  1.500000e+01
      vertex  2.016897e+01  2.220840e+01  4.500000e+01
    endloop
  endfacet
  facet normal  1.527438e-01  9.882658e-01  -0.000000e+00
    outer loop
      vertex  6.000000e+00  2.939388e+01  1.500000e+01
      vertex  6.000000e+00  2.939388e+01  0.000000e+00
      vertex  3.154059e+00  2.983374e+01  4.500000e+01
    endloop
  endfacet
  facet normal  2.091022e-01  9.778785e-01  5.498718e-03
    outer loop
      vertex  6.000000e+00  2.939388e+01  1.500000e+01
      vertex  3.154059e+00  2.983374e+01  4.500000e+01
      vertex  9.322725e+00  2.851468e+01  4.500000e+01
    endloop
  endfacet
  facet normal  3.079405e-01  9.513853e-01 -6.224791e-03
    outer loop
      vertex  6.000000e+00  2.939388e+01  1.500000e+01
      vertex  9.322725e+00  2.851468e+01  4.500000e+01
      vertex  1.236168e+01  2.733475e+01  1.500000e+01
    endloop
  endfacet
  facet normal  8.626603e-01  5.057836e-01  0.000000e+00
    outer loop
      vertex  2.436699e+01  1.750000e+01  4.500000e+01
      vertex  2.436699e+01  1.750000e+01  7.500000e+01
      vertex  2.717119e+01  1.271717e+01  7.500000e+01
    endloop
  endfacet
  facet normal  8.583453e-01  5.130700e-01  1.565010e-03
    outer loop
      vertex  2.436699e+01  1.750000e+01  4.500000e+01
      vertex  2.717119e+01  1.271717e+01  7.500000e+01
      vertex  2.666461e+01  1.374768e+01  1.500000e+01
    endloop
  endfacet
  facet normal  8.322008e-01  5.544460e-01 -5.612544e-03
    outer loop
      vertex  2.436699e+01  1.750000e+01  4.500000e+01
      vertex  2.666461e+01  1.374768e+01  1.500000e+01
      vertex  2.295718e+01  1.931238e+01  1.500000e+01
    endloop
  endfacet
  facet normal  7.463927e-01  6.654860e-01  5.128114e-03
    outer loop
      vertex  2.436699e+01  1.750000e+01  4.500000e+01
      vertex  2.295718e+01  1.931238e+01  1.500000e+01
      vertex  2.016897e+01  2.220840e+01  4.500000e+01
    endloop
  endfacet
  facet normal -7.463927e-01  6.654860e-01  5.128114e-03
    outer loop
      vertex -2.436699e+01  1.750000e+01  4.500000e+01
      vertex -2.016897e+01  2.220840e+01  4.500000e+01
      vertex -2.295718e+01  1.931238e+01  1.500000e+01
    endloop
  endfacet
  facet normal -8.322008e-01  5.544460e-01 -5.612544e-03
    outer loop
      vertex -2.436699e+01  1.750000e+01  4.500000e+01
      vertex -2.295718e+01  1.931238e+01  1.500000e+01
      vertex -2.666461e+01  1.374768e+01  1.500000e+01
    endloop
  endfacet
  facet normal -8.583453e-01  5.130700e-01  1.565010e-03
    outer loop
      vertex -2.436699e+01  1.750000e+01  4.500000e+01
      vertex -2.666461e+01  1.374768e+01  1.500000e+01
      vertex -2.717119e+01  1.271717e+01  7.500000e+01
    endloop
  endfacet
  facet normal -8.626603e-01  5.057836e-01  0.000000e+00
    outer loop
      vertex -2.436699e+01  1.750000e+01  4.500000e+01
      vertex -2.717119e+01  1.271717e+01  7.500000e+01
      vertex -2.436699e+01  1.750000e+01  7.500000e+01
    endloop
  endfacet
  facet normal -1.005089e-01  9.949361e-01  0.000000e+00
    outer loop
      vertex -6.000000e+00  2.939388e+01  0.000000e+00
      vertex -6.000000e+00  2.939388e+01  1.500000e+01
      vertex  8.498309e-15  3.000000e+01  0.000000e+00
    endloop
  endfacet
  facet normal -1.105998e-01  9.938567e-01 -4.079956e-03
    outer loop
      vertex  8.498309e-15  3.000000e+01  0.000000e+00
      vertex -6.000000e+00  2.939388e+01  1.500000e+01
      vertex -3.154059e+00  2.983374e+01  4.500000e+01
    endloop
  endfacet
  facet normal  -0.000000e+00  9.999932e-01  3.694679e-03
    outer loop
      vertex  8.498309e-15  3.000000e+01  0.000000e+00
      vertex -3.154059e+00  2.983374e+01  4.500000e+01
      vertex  3.154059e+00  2.983374e+01  4.500000e+01
    endloop
  endfacet
  facet normal -9.410000e-01  3.383999e-01 -2.132806e-03
    outer loop
      vertex -2.717119e+01  1.271717e+01  7.500000e+01
      vertex -2.666461e+01  1.374768e+01  1.500000e+01
      vertex -2.904737e+01  7.500000e+00  7.500000e+01
    endloop
  endfacet
  facet normal -9.343535e-01  3.563476e-01  0.000000e+00
    outer loop
      vertex -2.904737e+01  7.500000e+00  7.500000e+01
      vertex -2.666461e+01  1.374768e+01  1.500000e+01
      vertex -2.904737e+01  7.500000e+00  1.500000e+01
    endloop
  endfacet
  facet normal  9.409999e-01  3.383999e-01 -2.132804e-03
    outer loop
      vertex  2.717119e+01  1.271717e+01  7.500000e+01
      vertex  2.904737e+01  7.500000e+00  7.500000e+01
      vertex  2.666461e+01  1.374768e+01  1.500000e+01
    endloop
  endfacet
  facet normal  9.343535e-01  3.563476e-01  0.000000e+00
    outer loop
      vertex  2.666461e+01  1.374768e+01  1.500000e+01
      vertex  2.904737e+01  7.500000e+00  7.500000e+01
      vertex  2.904737e+01  7.500000e+00  1.500000e+01
    endloop
  endfacet
  facet normal  0.000000e+00  -0.000000e+00  1.000000e+00
    outer loop
      vertex -2.436699e+01 -1.750000e+01  4.500000e+01
      vertex -2.016897e+01 -2.220840e+01  4.500000e+01
      vertex -3.552714e-15 -1.750000e+01  4.500000e+01
    endloop
  endfacet
  facet normal  -0.000000e+00  0.000000e+00  1.000000e+00
    outer loop
      vertex  2.436699e+01 -1.750000e+01  4.500000e+01
      vertex -3.552714e-15 -1.750000e+01  4.500000e+01
      vertex  2.016897e+01 -2.220840e+01  4.500000e+01
    endloop
  endfacet
  facet normal  0.000000e+00  0.000000e+00  1.000000e+00
    outer loop
      vertex  2.016897e+01 -2.220840e+01  4.500000e+01
      vertex -3.552714e-15 -1.750000e+01  4.500000e+01
      vertex -2.016897e+01 -2.220840e+01  4.500000e+01
    endloop
  endfacet
  facet normal  -0.000000e+00  0.000000e+00  1.000000e+00
    outer loop
      vertex  2.016897e+01 -2.220840e+01  4.500000e+01
      vertex -2.016897e+01 -2.220840e+01  4.500000e+01
      vertex  1.507920e+01 -2.593488e+01  4.500000e+01
    endloop
  endfacet
  facet normal  0.000000e+00  0.000000e+00  1.000000e+00
    outer loop
      vertex  1.507920e+01 -2.593488e+01  4.500000e+01
      vertex -2.016897e+01 -2.220840e+01  4.500000e+01
      vertex -1.507920e+01 -2.593488e+01  4.500000e+01
    endloop
  endfacet
  facet normal  -0.000000e+00  0.000000e+00  1.000000e+00
    outer loop
      vertex  1.507920e+01 -2.593488e+01  4.500000e+01
      vertex -1.507920e+01 -2.593488e+01  4.500000e+01
      vertex  9.322725e+00 -2.851468e+01  4.500000e+01
    endloop
  endfacet
  facet normal  0.000000e+00  0.000000e+00  1.000000e+00
    outer loop
      vertex  9.322725e+00 -2.851468e+01  4.500000e+01
      vertex -1.507920e+01 -2.593488e+01  4.500000e+01
      vertex -9.322725e+00 -2.851468e+01  4.500000e+01
    endloop
  endfacet
  facet normal  -0.000000e+00  0.000000e+00  1.000000e+00
    outer loop
      vertex  9.322725e+00 -2.851468e+01  4.500000e+01
      vertex -9.322725e+00 -2.851468e+01  4.500000e+01
      vertex  3.154059e+00 -2.983374e+01  4.500000e+01
    endloop
  endfacet
  facet normal  0.000000e+00  0.000000e+00  1.000000e+00
    outer loop
      vertex  3.154059e+00 -2.983374e+01  4.500000e+01
      vertex -9.322725e+00 -2.851468e+01  4.500000e+01
      vertex -3.154059e+00 -2.983374e+01  4.500000e+01
    endloop
  endfacet
  facet normal  0.000000e+00 -9.999999e-01  0.000000e+00
    outer loop
      vertex -2.436699e+01 -1.750000e+01  4.500000e+01
      vertex -3.552714e-15 -1.750000e+01  4.500000e+01
      vertex -2.436699e+01 -1.750000e+01  7.500000e+01
    endloop
  endfacet
  facet normal  0.000000e+00 -9.999999e-01  0.000000e+00
    outer loop
      vertex -2.436699e+01 -1.750000e+01  7.500000e+01
      vertex -3.552714e-15 -1.750000e+01  4.500000e+01
      vertex  2.436699e+01 -1.750000e+01  4.500000e+01
    endloop
  endfacet
  facet normal  0.000000e+00 -9.999999e-01  0.000000e+00
    outer loop
      vertex -2.436699e+01 -1.750000e+01  7.500000e+01
      vertex  2.436699e+01 -1.750000e+01  4.500000e+01
      vertex  2.436699e+01 -1.750000e+01  7.500000e+01
    endloop
  endfacet
  facet normal  0.000000e+00  1.000000e+00  -0.000000e+00
    outer loop
      vertex  2.904737e+01 -7.500000e+00  7.500000e+01
      vertex  2.904737e+01 -7.500000e+00  1.500000e+01
      vertex -2.904737e+01 -7.500000e+00  7.500000e+01
    endloop
  endfacet
  facet normal  0.000000e+00  1.000000e+00  0.000000e+00
    outer loop
      vertex -2.904737e+01 -7.500000e+00  7.500000e+01
      vertex  2.904737e+01 -7.500000e+00  1.500000e+01
      vertex -2.904737e+01 -7.500000e+00  1.500000e+01
    endloop
  endfacet
  facet normal  0.000000e+00 -1.000000e+00  0.000000e+00
    outer loop
      vertex  2.904737e+01  7.500000e+00  7.500000e+01
      vertex -2.904737e+01  7.500000e+00  7.500000e+01
      vertex  2.904737e+01  7.500000e+00  1.500000e+01
    endloop
  endfacet
  facet normal  0.000000e+00 -1.000000e+00  0.000000e+00
    outer loop
      vertex  2.904737e+01  7.500000e+00  1.500000e+01
      vertex -2.904737e+01  7.500000e+00  7.500000e+01
      vertex -2.904737e+01  7.500000e+00  1.500000e+01
    endloop
  endfacet
  facet normal  0.000000e+00  0.000000e+00  1.000000e+00
    outer loop
      vertex  2.436699e+01  1.750000e+01  4.500000e+01
      vertex  2.016897e+01  2.220840e+01  4.500000e+01
      vertex -3.552714e-15  1.750000e+01  4.500000e+01
    endloop
  endfacet
  facet normal  -0.000000e+00  0.000000e+00  1.000000e+00
    outer loop
      vertex  3.154059e+00  2.983374e+01  4.500000e+01
      vertex -3.154059e+00  2.983374e+01  4.500000e+01
      vertex  9.322725e+00  2.851468e+01  4.500000e+01
    endloop
  endfacet
  facet normal  0.000000e+00  0.000000e+00  1.000000e+00
    outer loop
      vertex  9.322725e+00  2.851468e+01  4.500000e+01
      vertex -3.154059e+00  2.983374e+01  4.500000e+01
      vertex -9.322725e+00  2.851468e+01  4.500000e+01
    endloop
  endfacet
  facet normal  -0.000000e+00  0.000000e+00  1.000000e+00
    outer loop
      vertex  9.322725e+00  2.851468e+01  4.500000e+01
      vertex -9.322725e+00  2.851468e+01  4.500000e+01
      vertex  1.507920e+01  2.593488e+01  4.500000e+01
    endloop
  endfacet
  facet normal  0.000000e+00  0.000000e+00  1.000000e+00
    outer loop
      vertex  1.507920e+01  2.593488e+01  4.500000e+01
      vertex -9.322725e+00  2.851468e+01  4.500000e+01
      vertex -1.507920e+01  2.593488e+01  4.500000e+01
    endloop
  endfacet
  facet normal  -0.000000e+00  0.000000e+00  1.000000e+00
    outer loop
      vertex  1.507920e+01  2.593488e+01  4.500000e+01
      vertex -1.507920e+01  2.593488e+01  4.500000e+01
      vertex  2.016897e+01  2.220840e+01  4.500000e+01
    endloop
  endfacet
  facet normal  0.000000e+00  0.000000e+00  1.000000e+00
    outer loop
      vertex  2.016897e+01  2.220840e+01  4.500000e+01
      vertex -1.507920e+01  2.593488e+01  4.500000e+01
      vertex -2.016897e+01  2.220840e+01  4.500000e+01
    endloop
  endfacet
  facet normal  -0.000000e+00  0.000000e+00  1.000000e+00
    outer loop
      vertex  2.016897e+01  2.220840e+01  4.500000e+01
      vertex -2.016897e+01  2.220840e+01  4.500000e+01
      vertex -3.552714e-15  1.750000e+01  4.500000e+01
    endloop
  endfacet
  facet normal  0.000000e+00  0.000000e+00  1.000000e+00
    outer loop
      vertex -3.552714e-15  1.750000e+01  4.500000e+01
      vertex -2.016897e+01  2.220840e+01  4.500000e+01
      vertex -2.436699e+01  1.750000e+01  4.500000e+01
    endloop
  endfacet
  facet normal  0.000000e+00  9.999999e-01  -0.000000e+00
    outer loop
      vertex  2.436699e+01  1.750000e+01  7.500000e+01
      vertex  2.436699e+01  1.750000e+01  4.500000e+01
      vertex -2.436699e+01  1.750000e+01  7.500000e+01
    endloop
  endfacet
  facet normal  0.000000e+00  9.999999e-01  0.000000e+00
    outer loop
      vertex -2.436699e+01  1.750000e+01  7.500000e+01
      vertex  2.436699e+01  1.750000e+01  4.500000e+01
      vertex -3.552714e-15  1.750000e+01  4.500000e+01
    endloop
  endfacet
  facet normal  0.000000e+00  9.999999e-01  0.000000e+00
    outer loop
      vertex -2.436699e+01  1.750000e+01  7.500000e+01
      vertex -3.552714e-15  1.750000e+01  4.500000e+01
      vertex -2.436699e+01  1.750000e+01  4.500000e+01
    endloop
  endfacet
  facet normal  0.000000e+00  -0.000000e+00 -1.000000e+00
    outer loop
      vertex -8.586428e+01  1.034251e+01  0.000000e+00
      vertex -8.226601e+01  1.312270e+01  0.000000e+00
      vertex -7.800000e+01  1.469694e+01  0.000000e+00
    endloop
  endfacet
  facet normal  0.000000e+00  -0.000000e+00 -9.999999e-01
    outer loop
      vertex -6.000000e+00  2.939388e+01  0.000000e+00
      vertex  8.498309e-15  3.000000e+01  0.000000e+00
      vertex  6.000000e+00  2.939388e+01  0.000000e+00
    endloop
  endfacet
  facet normal  0.000000e+00  0.000000e+00 -9.999999e-01
    outer loop
      vertex -5.510911e-15 -3.000000e+01  0.000000e+00
      vertex -6.000000e+00 -2.939388e+01  0.000000e+00
      vertex  6.000000e+00 -2.939388e+01  0.000000e+00
    endloop
  endfacet
  facet normal  0.000000e+00  0.000000e+00 -9.999999e-01
    outer loop
      vertex  8.846415e+01 -6.611862e+00  0.000000e+00
      vertex  7.666891e+01 -7.311959e+00  0.000000e+00
      vertex  7.967617e+01 -5.863736e+00  0.000000e+00
    endloop
  endfacet
  facet normal  0.000000e+00  0.000000e+00 -1.000000e+00
    outer loop
      vertex  8.846415e+01 -6.611862e+00  0.000000e+00
      vertex  8.586428e+01 -1.034251e+01  0.000000e+00
      vertex  7.666891e+01 -7.311959e+00  0.000000e+00
    endloop
  endfacet
  facet normal  0.000000e+00  -0.000000e+00 -1.000000e+00
    outer loop
      vertex  6.000000e+00 -2.939388e+01  0.000000e+00
      vertex  7.666891e+01 -7.311959e+00  0.000000e+00
      vertex  7.800000e+01 -1.469694e+01  0.000000e+00
    endloop
  endfacet
  facet normal  0.000000e+00  0.000000e+00 -1.000000e+00
    outer loop
      vertex  7.800000e+01 -1.469694e+01  0.000000e+00
      vertex  7.666891e+01 -7.311959e+00  0.000000e+00
      vertex  8.586428e+01 -1.034251e+01  0.000000e+00
    endloop
  endfacet
  facet normal  0.000000e+00  0.000000e+00 -9.999999e-01
    outer loop
      vertex  7.800000e+01 -1.469694e+01  0.000000e+00
      vertex  8.586428e+01 -1.034251e+01  0.000000e+00
      vertex  8.226601e+01 -1.312270e+01  0.000000e+00
    endloop
  endfacet
  facet normal  0.000000e+00  0.000000e+00 -9.999999e-01
    outer loop
      vertex  7.666891e+01 -7.311959e+00  0.000000e+00
      vertex  6.000000e+00 -2.939388e+01  0.000000e+00
      vertex  7.333109e+01 -7.311959e+00  0.000000e+00
    endloop
  endfacet
  facet normal  0.000000e+00  0.000000e+00 -1.000000e+00
    outer loop
      vertex  7.333109e+01 -7.311959e+00  0.000000e+00
      vertex  6.000000e+00 -2.939388e+01  0.000000e+00
      vertex -6.000000e+00 -2.939388e+01  0.000000e+00
    endloop
  endfacet
  facet normal  0.000000e+00  0.000000e+00 -1.000000e+00
    outer loop
      vertex  7.333109e+01 -7.311959e+00  0.000000e+00
      vertex -6.000000e+00 -2.939388e+01  0.000000e+00
      vertex -7.333109e+01 -7.311959e+00  0.000000e+00
    endloop
  endfacet
  facet normal  0.000000e+00  -0.000000e+00 -1.000000e+00
    outer loop
      vertex -7.333109e+01 -7.311959e+00  0.000000e+00
      vertex -6.000000e+00 -2.939388e+01  0.000000e+00
      vertex -7.800000e+01 -1.469694e+01  0.000000e+00
    endloop
  endfacet
  facet normal  0.000000e+00  0.000000e+00 -1.000000e+00
    outer loop
      vertex -7.333109e+01 -7.311959e+00  0.000000e+00
      vertex -7.800000e+01 -1.469694e+01  0.000000e+00
      vertex -7.666891e+01 -7.311959e+00  0.000000e+00
    endloop
  endfacet
  facet normal  0.000000e+00  0.000000e+00 -9.999999e-01
    outer loop
      vertex -7.666891e+01 -7.311959e+00  0.000000e+00
      vertex -7.800000e+01 -1.469694e+01  0.000000e+00
      vertex -8.226601e+01 -1.312270e+01  0.000000e+00
    endloop
  endfacet
  facet normal  0.000000e+00  0.000000e+00 -1.000000e+00
    outer loop
      vertex -7.666891e+01 -7.311959e+00  0.000000e+00
      vertex -8.226601e+01 -1.312270e+01  0.000000e+00
      vertex -8.586428e+01 -1.034251e+01  0.000000e+00
    endloop
  endfacet
  facet normal  0.000000e+00  -0.000000e+00 -1.000000e+00
    outer loop
      vertex -8.846415e+01  6.611862e+00  0.000000e+00
      vertex -8.586428e+01  1.034251e+01  0.000000e+00
      vertex -7.666891e+01  7.311959e+00  0.000000e+00
    endloop
  endfacet
  facet normal  0.000000e+00  0.000000e+00 -1.000000e+00
    outer loop
      vertex -7.666891e+01  7.311959e+00  0.000000e+00
      vertex -8.586428e+01  1.034251e+01  0.000000e+00
      vertex -7.800000e+01  1.469694e+01  0.000000e+00
    endloop
  endfacet
  facet normal  0.000000e+00  0.000000e+00 -1.000000e+00
    outer loop
      vertex -7.666891e+01  7.311959e+00  0.000000e+00
      vertex -7.800000e+01  1.469694e+01  0.000000e+00
      vertex -7.333109e+01  7.311959e+00  0.000000e+00
    endloop
  endfacet
  facet normal  0.000000e+00  0.000000e+00 -1.000000e+00
    outer loop
      vertex -7.333109e+01  7.311959e+00  0.000000e+00
      vertex -7.800000e+01  1.469694e+01  0.000000e+00
      vertex -6.000000e+00  2.939388e+01  0.000000e+00
    endloop
  endfacet
  facet normal  0.000000e+00  -0.000000e+00 -1.000000e+00
    outer loop
      vertex -7.333109e+01  7.311959e+00  0.000000e+00
      vertex -6.000000e+00  2.939388e+01  0.000000e+00
      vertex  6.000000e+00  2.939388e+01  0.000000e+00
    endloop
  endfacet
  facet normal  0.000000e+00  -0.000000e+00 -1.000000e+00
    outer loop
      vertex -7.333109e+01  7.311959e+00  0.000000e+00
      vertex  6.000000e+00  2.939388e+01  0.000000e+00
      vertex  7.333109e+01  7.311959e+00  0.000000e+00
    endloop
  endfacet
  facet normal  0.000000e+00  0.000000e+00 -1.000000e+00
    outer loop
      vertex  7.333109e+01  7.311959e+00  0.000000e+00
      vertex  6.000000e+00  2.939388e+01  0.000000e+00
      vertex  7.800000e+01  1.469694e+01  0.000000e+00
    endloop
  endfacet
  facet normal  0.000000e+00  0.000000e+00 -1.000000e+00
    outer loop
      vertex  7.333109e+01  7.311959e+00  0.000000e+00
      vertex  7.800000e+01  1.469694e+01  0.000000e+00
      vertex  7.666891e+01  7.311959e+00  0.000000e+00
    endloop
  endfacet
  facet normal  0.000000e+00  0.000000e+00 -9.999999e-01
    outer loop
      vertex  7.666891e+01  7.311959e+00  0.000000e+00
      vertex  7.800000e+01  1.469694e+01  0.000000e+00
      vertex  8.226601e+01  1.312270e+01  0.000000e+00
    endloop
  endfacet
  facet normal  0.000000e+00  -0.000000e+00 -1.000000e+00
    outer loop
      vertex  7.666891e+01  7.311959e+00  0.000000e+00
      vertex  8.226601e+01  1.312270e+01  0.000000e+00
      vertex  8.586428e+01  1.034251e+01  0.000000e+00
    endloop
  endfacet
  facet normal  0.000000e+00  0.000000e+00 -1.000000e+00
    outer loop
      vertex -8.175726e+01  3.254128e+00  0.000000e+00
      vertex -8.982669e+01  2.273600e+00  0.000000e+00
      vertex -7.967617e+01  5.863736e+00  0.000000e+00
    endloop
  endfacet
  facet normal  -0.000000e+00  0.000000e+00 -1.000000e+00
    outer loop
      vertex -7.967617e+01  5.863736e+00  0.000000e+00
      vertex -8.982669e+01  2.273600e+00  0.000000e+00
      vertex -8.846415e+01  6.611862e+00  0.000000e+00
    endloop
  endfacet
  facet normal  0.000000e+00  0.000000e+00 -9.999999e-01
    outer loop
      vertex -7.967617e+01  5.863736e+00  0.000000e+00
      vertex -8.846415e+01  6.611862e+00  0.000000e+00
      vertex -7.666891e+01  7.311959e+00  0.000000e+00
    endloop
  endfacet
  facet normal  0.000000e+00  0.000000e+00 -1.000000e+00
    outer loop
      vertex -8.175726e+01 -3.254128e+00  0.000000e+00
      vertex -8.982669e+01 -2.273600e+00  0.000000e+00
      vertex -8.250000e+01  4.249154e-15  0.000000e+00
    endloop
  endfacet
  facet normal  -0.000000e+00  0.000000e+00 -1.000000e+00
    outer loop
      vertex -8.250000e+01  4.249154e-15  0.000000e+00
      vertex -8.982669e+01 -2.273600e+00  0.000000e+00
      vertex -8.982669e+01  2.273600e+00  0.000000e+00
    endloop
  endfacet
  facet normal  0.000000e+00  0.000000e+00 -1.000000e+00
    outer loop
      vertex -8.250000e+01  4.249154e-15  0.000000e+00
      vertex -8.982669e+01  2.273600e+00  0.000000e+00
      vertex -8.175726e+01  3.254128e+00  0.000000e+00
    endloop
  endfacet
  facet normal  0.000000e+00  0.000000e+00 -1.000000e+00
    outer loop
      vertex -8.586428e+01 -1.034251e+01  0.000000e+00
      vertex -8.846415e+01 -6.611862e+00  0.000000e+00
      vertex -7.666891e+01 -7.311959e+00  0.000000e+00
    endloop
  endfacet
  facet normal  0.000000e+00  0.000000e+00 -9.999999e-01
    outer loop
      vertex -7.666891e+01 -7.311959e+00  0.000000e+00
      vertex -8.846415e+01 -6.611862e+00  0.000000e+00
      vertex -7.967617e+01 -5.863736e+00  0.000000e+00
    endloop
  endfacet
  facet normal  0.000000e+00  0.000000e+00 -1.000000e+00
    outer loop
      vertex -8.846415e+01 -6.611862e+00  0.000000e+00
      vertex -8.982669e+01 -2.273600e+00  0.000000e+00
      vertex -7.967617e+01 -5.863736e+00  0.000000e+00
    endloop
  endfacet
  facet normal  0.000000e+00  0.000000e+00 -1.000000e+00
    outer loop
      vertex -7.967617e+01 -5.863736e+00  0.000000e+00
      vertex -8.982669e+01 -2.273600e+00  0.000000e+00
      vertex -8.175726e+01 -3.254128e+00  0.000000e+00
    endloop
  endfacet
  facet normal  0.000000e+00  0.000000e+00 -9.999999e-01
    outer loop
      vertex  6.750000e+01  4.249154e-15  0.000000e+00
      vertex -6.824274e+01  3.254128e+00  0.000000e+00
      vertex  6.824274e+01  3.254128e+00  0.000000e+00
    endloop
  endfacet
  facet normal  0.000000e+00  0.000000e+00 -1.000000e+00
    outer loop
      vertex  6.824274e+01  3.254128e+00  0.000000e+00
      vertex -6.824274e+01  3.254128e+00  0.000000e+00
      vertex -7.032383e+01  5.863736e+00  0.000000e+00
    endloop
  endfacet
  facet normal  0.000000e+00  0.000000e+00 -1.000000e+00
    outer loop
      vertex  6.824274e+01  3.254128e+00  0.000000e+00
      vertex -7.032383e+01  5.863736e+00  0.000000e+00
      vertex  7.032383e+01  5.863736e+00  0.000000e+00
    endloop
  endfacet
  facet normal  0.000000e+00  0.000000e+00 -9.999999e-01
    outer loop
      vertex  7.032383e+01  5.863736e+00  0.000000e+00
      vertex -7.032383e+01  5.863736e+00  0.000000e+00
      vertex -7.333109e+01  7.311959e+00  0.000000e+00
    endloop
  endfacet
  facet normal  0.000000e+00  0.000000e+00 -1.000000e+00
    outer loop
      vertex  7.032383e+01  5.863736e+00  0.000000e+00
      vertex -7.333109e+01  7.311959e+00  0.000000e+00
      vertex  7.333109e+01  7.311959e+00  0.000000e+00
    endloop
  endfacet
  facet normal  -0.000000e+00  0.000000e+00 -9.999999e-01
    outer loop
      vertex -6.824274e+01  3.254128e+00  0.000000e+00
      vertex  6.750000e+01  4.249154e-15  0.000000e+00
      vertex -6.750000e+01 -8.498309e-15  0.000000e+00
    endloop
  endfacet
  facet normal  0.000000e+00  0.000000e+00 -9.999999e-01
    outer loop
      vertex -6.750000e+01 -8.498309e-15  0.000000e+00
      vertex  6.750000e+01  4.249154e-15  0.000000e+00
      vertex  6.824274e+01 -3.254128e+00  0.000000e+00
    endloop
  endfacet
  facet normal  0.000000e+00  0.000000e+00 -9.999999e-01
    outer loop
      vertex -6.750000e+01 -8.498309e-15  0.000000e+00
      vertex  6.824274e+01 -3.254128e+00  0.000000e+00
      vertex -6.824274e+01 -3.254128e+00  0.000000e+00
    endloop
  endfacet
  facet normal  0.000000e+00  0.000000e+00 -1.000000e+00
    outer loop
      vertex -6.824274e+01 -3.254128e+00  0.000000e+00
      vertex  6.824274e+01 -3.254128e+00  0.000000e+00
      vertex  7.032383e+01 -5.863736e+00  0.000000e+00
    endloop
  endfacet
  facet normal  0.000000e+00  0.000000e+00 -1.000000e+00
    outer loop
      vertex -6.824274e+01 -3.254128e+00  0.000000e+00
      vertex  7.032383e+01 -5.863736e+00  0.000000e+00
      vertex -7.032383e+01 -5.863736e+00  0.000000e+00
    endloop
  endfacet
  facet normal  0.000000e+00  0.000000e+00 -9.999999e-01
    outer loop
      vertex -7.032383e+01 -5.863736e+00  0.000000e+00
      vertex  7.032383e+01 -5.863736e+00  0.000000e+00
      vertex  7.333109e+01 -7.311959e+00  0.000000e+00
    endloop
  endfacet
  facet normal  0.000000e+00  0.000000e+00 -1.000000e+00
    outer loop
      vertex -7.032383e+01 -5.863736e+00  0.000000e+00
      vertex  7.333109e+01 -7.311959e+00  0.000000e+00
      vertex -7.333109e+01 -7.311959e+00  0.000000e+00
    endloop
  endfacet
  facet normal  0.000000e+00  0.000000e+00 -1.000000e+00
    outer loop
      vertex  8.586428e+01  1.034251e+01  0.000000e+00
      vertex  8.846415e+01  6.611862e+00  0.000000e+00
      vertex  7.666891e+01  7.311959e+00  0.000000e+00
    endloop
  endfacet
  facet normal  0.000000e+00  0.000000e+00 -1.000000e+00
    outer loop
      vertex  7.666891e+01  7.311959e+00  0.000000e+00
      vertex  8.846415e+01  6.611862e+00  0.000000e+00
      vertex  8.982669e+01  2.273600e+00  0.000000e+00
    endloop
  endfacet
  facet normal  0.000000e+00  0.000000e+00 -1.000000e+00
    outer loop
      vertex  7.666891e+01  7.311959e+00  0.000000e+00
      vertex  8.982669e+01  2.273600e+00  0.000000e+00
      vertex  7.967617e+01  5.863736e+00  0.000000e+00
    endloop
  endfacet
  facet normal  0.000000e+00  0.000000e+00 -1.000000e+00
    outer loop
      vertex  7.967617e+01  5.863736e+00  0.000000e+00
      vertex  8.982669e+01  2.273600e+00  0.000000e+00
      vertex  8.175726e+01  3.254128e+00  0.000000e+00
    endloop
  endfacet
  facet normal  0.000000e+00  0.000000e+00 -1.000000e+00
    outer loop
      vertex  8.175726e+01  3.254128e+00  0.000000e+00
      vertex  8.982669e+01  2.273600e+00  0.000000e+00
      vertex  8.982669e+01 -2.273600e+00  0.000000e+00
    endloop
  endfacet
  facet normal  0.000000e+00  0.000000e+00 -1.000000e+00
    outer loop
      vertex  8.175726e+01  3.254128e+00  0.000000e+00
      vertex  8.982669e+01 -2.273600e+00  0.000000e+00
      vertex  8.250000e+01  0.000000e+00  0.000000e+00
    endloop
  endfacet
  facet normal  -0.000000e+00  0.000000e+00 -1.000000e+00
    outer loop
      vertex  8.250000e+01  0.000000e+00  0.000000e+00
      vertex  8.982669e+01 -2.273600e+00  0.000000e+00
      vertex  8.175726e+01 -3.254128e+00  0.000000e+00
    endloop
  endfacet
  facet normal  0.000000e+00  0.000000e+00 -1.000000e+00
    outer loop
      vertex  8.175726e+01 -3.254128e+00  0.000000e+00
      vertex  8.982669e+01 -2.273600e+00  0.000000e+00
      vertex  8.846415e+01 -6.611862e+00  0.000000e+00
    endloop
  endfacet
  facet normal  0.000000e+00  0.000000e+00 -1.000000e+00
    outer loop
      vertex  8.175726e+01 -3.254128e+00  0.000000e+00
      vertex  8.846415e+01 -6.611862e+00  0.000000e+00
      vertex  7.967617e+01 -5.863736e+00  0.000000e+00
    endloop
  endfacet
  facet normal  2.000000e-01  9.797959e-01  0.000000e+00
    outer loop
      vertex  6.000000e+00  2.939388e+01  1.500000e+01
      vertex  7.800000e+01  1.469694e+01  1.500000e+01
      vertex  6.000000e+00  2.939388e+01  0.000000e+00
    endloop
  endfacet
  facet normal  2.000000e-01  9.797959e-01  0.000000e+00
    outer loop
      vertex  6.000000e+00  2.939388e+01  0.000000e+00
      vertex  7.800000e+01  1.469694e+01  1.500000e+01
      vertex  7.800000e+01  1.469694e+01  0.000000e+00
    endloop
  endfacet
  facet normal  2.000000e-01 -9.797959e-01  0.000000e+00
    outer loop
      vertex  7.800000e+01 -1.469694e+01  1.500000e+01
      vertex  6.000000e+00 -2.939388e+01  1.500000e+01
      vertex  7.800000e+01 -1.469694e+01  0.000000e+00
    endloop
  endfacet
  facet normal  2.000000e-01 -9.797959e-01  0.000000e+00
    outer loop
      vertex  7.800000e+01 -1.469694e+01  0.000000e+00
      vertex  6.000000e+00 -2.939388e+01  1.500000e+01
      vertex  6.000000e+00 -2.939388e+01  0.000000e+00
    endloop
  endfacet
  facet normal -2.000000e-01 -9.797959e-01  0.000000e+00
    outer loop
      vertex -7.800000e+01 -1.469694e+01  1.500000e+01
      vertex -7.800000e+01 -1.469694e+01  0.000000e+00
      vertex -6.000000e+00 -2.939388e+01  1.500000e+01
    endloop
  endfacet
  facet normal -2.000000e-01 -9.797959e-01  -0.000000e+00
    outer loop
      vertex -6.000000e+00 -2.939388e+01  1.500000e+01
      vertex -7.800000e+01 -1.469694e+01  0.000000e+00
      vertex -6.000000e+00 -2.939388e+01  0.000000e+00
    endloop
  endfacet
  facet normal -2.000000e-01  9.797959e-01  0.000000e+00
    outer loop
      vertex -6.000000e+00  2.939388e+01  1.500000e+01
      vertex -6.000000e+00  2.939388e+01  0.000000e+00
      vertex -7.800000e+01  1.469694e+01  1.500000e+01
    endloop
  endfacet
  facet normal -2.000000e-01  9.797959e-01  0.000000e+00
    outer loop
      vertex -7.800000e+01  1.469694e+01  1.500000e+01
      vertex -6.000000e+00  2.939388e+01  0.000000e+00
      vertex -7.800000e+01  1.469694e+01  0.000000e+00
    endloop
  endfacet
  facet normal -4.338841e-01  9.009687e-01  0.000000e+00
    outer loop
      vertex -7.333109e+01 -7.311959e+00  0.000000e+00
      vertex -7.032383e+01 -5.863736e+00  1.500000e+01
      vertex -7.032383e+01 -5.863736e+00  0.000000e+00
    endloop
  endfacet
  facet normal -7.818315e-01  6.234897e-01  0.000000e+00
    outer loop
      vertex -7.032383e+01 -5.863736e+00  0.000000e+00
      vertex -7.032383e+01 -5.863736e+00  1.500000e+01
      vertex -6.824274e+01 -3.254128e+00  1.500000e+01
    endloop
  endfacet
  facet normal -7.818315e-01  6.234897e-01  0.000000e+00
    outer loop
      vertex -7.032383e+01 -5.863736e+00  0.000000e+00
      vertex -6.824274e+01 -3.254128e+00  1.500000e+01
      vertex -6.824274e+01 -3.254128e+00  0.000000e+00
    endloop
  endfacet
  facet normal -9.749277e-01  2.225219e-01  0.000000e+00
    outer loop
      vertex -6.824274e+01 -3.254128e+00  0.000000e+00
      vertex -6.824274e+01 -3.254128e+00  1.500000e+01
      vertex -6.750000e+01 -8.498309e-15  1.500000e+01
    endloop
  endfacet
  facet normal -9.749277e-01  2.225219e-01  0.000000e+00
    outer loop
      vertex -6.824274e+01 -3.254128e+00  0.000000e+00
      vertex -6.750000e+01 -8.498309e-15  1.500000e+01
      vertex -6.750000e+01 -8.498309e-15  0.000000e+00
    endloop
  endfacet
  facet normal -4.338841e-01  9.009687e-01  0.000000e+00
    outer loop
      vertex -7.032383e+01 -5.863736e+00  1.500000e+01
      vertex -7.333109e+01 -7.311959e+00  0.000000e+00
      vertex -7.333109e+01 -7.311959e+00  1.500000e+01
    endloop
  endfacet
  facet normal  0.000000e+00  1.000000e+00  0.000000e+00
    outer loop
      vertex -7.333109e+01 -7.311959e+00  1.500000e+01
      vertex -7.333109e+01 -7.311959e+00  0.000000e+00
      vertex -7.666891e+01 -7.311959e+00  0.000000e+00
    endloop
  endfacet
  facet normal  0.000000e+00  1.000000e+00  0.000000e+00
    outer loop
      vertex -7.333109e+01 -7.311959e+00  1.500000e+01
      vertex -7.666891e+01 -7.311959e+00  0.000000e+00
      vertex -7.666891e+01 -7.311959e+00  1.500000e+01
    endloop
  endfacet
  facet normal  4.338841e-01  9.009687e-01  0.000000e+00
    outer loop
      vertex -7.666891e+01 -7.311959e+00  1.500000e+01
      vertex -7.666891e+01 -7.311959e+00  0.000000e+00
      vertex -7.967617e+01 -5.863736e+00  0.000000e+00
    endloop
  endfacet
  facet normal  4.338841e-01  9.009687e-01  -0.000000e+00
    outer loop
      vertex -7.666891e+01 -7.311959e+00  1.500000e+01
      vertex -7.967617e+01 -5.863736e+00  0.000000e+00
      vertex -7.967617e+01 -5.863736e+00  1.500000e+01
    endloop
  endfacet
  facet normal  7.818315e-01  6.234897e-01  0.000000e+00
    outer loop
      vertex -7.967617e+01 -5.863736e+00  1.500000e+01
      vertex -7.967617e+01 -5.863736e+00  0.000000e+00
      vertex -8.175726e+01 -3.254128e+00  0.000000e+00
    endloop
  endfacet
  facet normal  7.818315e-01  6.234897e-01  -0.000000e+00
    outer loop
      vertex -7.967617e+01 -5.863736e+00  1.500000e+01
      vertex -8.175726e+01 -3.254128e+00  0.000000e+00
      vertex -8.175726e+01 -3.254128e+00  1.500000e+01
    endloop
  endfacet
  facet normal  9.749277e-01  2.225219e-01  0.000000e+00
    outer loop
      vertex -8.175726e+01 -3.254128e+00  1.500000e+01
      vertex -8.175726e+01 -3.254128e+00  0.000000e+00
      vertex -8.250000e+01  4.249154e-15  0.000000e+00
    endloop
  endfacet
  facet normal  9.749277e-01  2.225219e-01  -0.000000e+00
    outer loop
      vertex -8.175726e+01 -3.254128e+00  1.500000e+01
      vertex -8.250000e+01  4.249154e-15  0.000000e+00
      vertex -8.250000e+01  4.249154e-15  1.500000e+01
    endloop
  endfacet
  facet normal  4.338841e-01 -9.009687e-01  0.000000e+00
    outer loop
      vertex -7.666891e+01  7.311959e+00  0.000000e+00
      vertex -7.967617e+01  5.863736e+00  1.500000e+01
      vertex -7.967617e+01  5.863736e+00  0.000000e+00
    endloop
  endfacet
  facet normal  7.818315e-01 -6.234897e-01  0.000000e+00
    outer loop
      vertex -7.967617e+01  5.863736e+00  0.000000e+00
      vertex -7.967617e+01  5.863736e+00  1.500000e+01
      vertex -8.175726e+01  3.254128e+00  1.500000e+01
    endloop
  endfacet
  facet normal  7.818315e-01 -6.234897e-01  0.000000e+00
    outer loop
      vertex -7.967617e+01  5.863736e+00  0.000000e+00
      vertex -8.175726e+01  3.254128e+00  1.500000e+01
      vertex -8.175726e+01  3.254128e+00  0.000000e+00
    endloop
  endfacet
  facet normal  9.749277e-01 -2.225219e-01  0.000000e+00
    outer loop
      vertex -8.175726e+01  3.254128e+00  0.000000e+00
      vertex -8.175726e+01  3.254128e+00  1.500000e+01
      vertex -8.250000e+01  4.249154e-15  1.500000e+01
    endloop
  endfacet
  facet normal  9.749277e-01 -2.225219e-01  0.000000e+00
    outer loop
      vertex -8.175726e+01  3.254128e+00  0.000000e+00
      vertex -8.250000e+01  4.249154e-15  1.500000e+01
      vertex -8.250000e+01  4.249154e-15  0.000000e+00
    endloop
  endfacet
  facet normal  4.338841e-01 -9.009687e-01  0.000000e+00
    outer loop
      vertex -7.967617e+01  5.863736e+00  1.500000e+01
      vertex -7.666891e+01  7.311959e+00  0.000000e+00
      vertex -7.666891e+01  7.311959e+00  1.500000e+01
    endloop
  endfacet
  facet normal  0.000000e+00 -1.000000e+00  0.000000e+00
    outer loop
      vertex -7.666891e+01  7.311959e+00  1.500000e+01
      vertex -7.666891e+01  7.311959e+00  0.000000e+00
      vertex -7.333109e+01  7.311959e+00  0.000000e+00
    endloop
  endfacet
  facet normal  0.000000e+00 -1.000000e+00  0.000000e+00
    outer loop
      vertex -7.666891e+01  7.311959e+00  1.500000e+01
      vertex -7.333109e+01  7.311959e+00  0.000000e+00
      vertex -7.333109e+01  7.311959e+00  1.500000e+01
    endloop
  endfacet
  facet normal -4.338841e-01 -9.009687e-01  -0.000000e+00
    outer loop
      vertex -7.333109e+01  7.311959e+00  1.500000e+01
      vertex -7.333109e+01  7.311959e+00  0.000000e+00
      vertex -7.032383e+01  5.863736e+00  0.000000e+00
    endloop
  endfacet
  facet normal -4.338841e-01 -9.009687e-01  0.000000e+00
    outer loop
      vertex -7.333109e+01  7.311959e+00  1.500000e+01
      vertex -7.032383e+01  5.863736e+00  0.000000e+00
      vertex -7.032383e+01  5.863736e+00  1.500000e+01
    endloop
  endfacet
  facet normal -7.818315e-01 -6.234897e-01  -0.000000e+00
    outer loop
      vertex -7.032383e+01  5.863736e+00  1.500000e+01
      vertex -7.032383e+01  5.863736e+00  0.000000e+00
      vertex -6.824274e+01  3.254128e+00  0.000000e+00
    endloop
  endfacet
  facet normal -7.818315e-01 -6.234897e-01  0.000000e+00
    outer loop
      vertex -7.032383e+01  5.863736e+00  1.500000e+01
      vertex -6.824274e+01  3.254128e+00  0.000000e+00
      vertex -6.824274e+01  3.254128e+00  1.500000e+01
    endloop
  endfacet
  facet normal -9.749277e-01 -2.225219e-01  -0.000000e+00
    outer loop
      vertex -6.824274e+01  3.254128e+00  1.500000e+01
      vertex -6.824274e+01  3.254128e+00  0.000000e+00
      vertex -6.750000e+01 -8.498309e-15  0.000000e+00
    endloop
  endfacet
  facet normal -9.749277e-01 -2.225219e-01  0.000000e+00
    outer loop
      vertex -6.824274e+01  3.254128e+00  1.500000e+01
      vertex -6.750000e+01 -8.498309e-15  0.000000e+00
      vertex -6.750000e+01 -8.498309e-15  1.500000e+01
    endloop
  endfacet
  facet normal  4.338841e-01 -9.009687e-01  0.000000e+00
    outer loop
      vertex  7.333109e+01  7.311959e+00  0.000000e+00
      vertex  7.032383e+01  5.863736e+00  1.500000e+01
      vertex  7.032383e+01  5.863736e+00  0.000000e+00
    endloop
  endfacet
  facet normal  7.818315e-01 -6.234897e-01  0.000000e+00
    outer loop
      vertex  7.032383e+01  5.863736e+00  0.000000e+00
      vertex  7.032383e+01  5.863736e+00  1.500000e+01
      vertex  6.824274e+01  3.254128e+00  1.500000e+01
    endloop
  endfacet
  facet normal  7.818315e-01 -6.234897e-01  0.000000e+00
    outer loop
      vertex  7.032383e+01  5.863736e+00  0.000000e+00
      vertex  6.824274e+01  3.254128e+00  1.500000e+01
      vertex  6.824274e+01  3.254128e+00  0.000000e+00
    endloop
  endfacet
  facet normal  9.749277e-01 -2.225219e-01  0.000000e+00
    outer loop
      vertex  6.824274e+01  3.254128e+00  0.000000e+00
      vertex  6.824274e+01  3.254128e+00  1.500000e+01
      vertex  6.750000e+01  4.249154e-15  1.500000e+01
    endloop
  endfacet
  facet normal  9.749277e-01 -2.225219e-01  0.000000e+00
    outer loop
      vertex  6.824274e+01  3.254128e+00  0.000000e+00
      vertex  6.750000e+01  4.249154e-15  1.500000e+01
      vertex  6.750000e+01  4.249154e-15  0.000000e+00
    endloop
  endfacet
  facet normal  4.338841e-01 -9.009687e-01  0.000000e+00
    outer loop
      vertex  7.032383e+01  5.863736e+00  1.500000e+01
      vertex  7.333109e+01  7.311959e+00  0.000000e+00
      vertex  7.333109e+01  7.311959e+00  1.500000e+01
    endloop
  endfacet
  facet normal  0.000000e+00 -1.000000e+00  0.000000e+00
    outer loop
      vertex  7.333109e+01  7.311959e+00  1.500000e+01
      vertex  7.333109e+01  7.311959e+00  0.000000e+00
      vertex  7.666891e+01  7.311959e+00  0.000000e+00
    endloop
  endfacet
  facet normal  0.000000e+00 -1.000000e+00  0.000000e+00
    outer loop
      vertex  7.333109e+01  7.311959e+00  1.500000e+01
      vertex  7.666891e+01  7.311959e+00  0.000000e+00
      vertex  7.666891e+01  7.311959e+00  1.500000e+01
    endloop
  endfacet
  facet normal -4.338841e-01 -9.009687e-01  -0.000000e+00
    outer loop
      vertex  7.666891e+01  7.311959e+00  1.500000e+01
      vertex  7.666891e+01  7.311959e+00  0.000000e+00
      vertex  7.967617e+01  5.863736e+00  0.000000e+00
    endloop
  endfacet
  facet normal -4.338841e-01 -9.009687e-01  0.000000e+00
    outer loop
      vertex  7.666891e+01  7.311959e+00  1.500000e+01
      vertex  7.967617e+01  5.863736e+00  0.000000e+00
      vertex  7.967617e+01  5.863736e+00  1.500000e+01
    endloop
  endfacet
  facet normal -7.818315e-01 -6.234897e-01  -0.000000e+00
    outer loop
      vertex  7.967617e+01  5.863736e+00  1.500000e+01
      vertex  7.967617e+01  5.863736e+00  0.000000e+00
      vertex  8.175726e+01  3.254128e+00  0.000000e+00
    endloop
  endfacet
  facet normal -7.818315e-01 -6.234897e-01  0.000000e+00
    outer loop
      vertex  7.967617e+01  5.863736e+00  1.500000e+01
      vertex  8.175726e+01  3.254128e+00  0.000000e+00
      vertex  8.175726e+01  3.254128e+00  1.500000e+01
    endloop
  endfacet
  facet normal -9.749277e-01 -2.225219e-01  -0.000000e+00
    outer loop
      vertex  8.175726e+01  3.254128e+00  1.500000e+01
      vertex  8.175726e+01  3.254128e+00  0.000000e+00
      vertex  8.250000e+01  0.000000e+00  0.000000e+00
    endloop
  endfacet
  facet normal -9.749277e-01 -2.225219e-01  0.000000e+00
    outer loop
      vertex  8.175726e+01  3.254128e+00  1.500000e+01
      vertex  8.250000e+01  0.000000e+00  0.000000e+00
      vertex  8.250000e+01  0.000000e+00  1.500000e+01
    endloop
  endfacet
  facet normal -4.338841e-01  9.009687e-01  0.000000e+00
    outer loop
      vertex  7.666891e+01 -7.311959e+00  0.000000e+00
      vertex  7.967617e+01 -5.863736e+00  1.500000e+01
      vertex  7.967617e+01 -5.863736e+00  0.000000e+00
    endloop
  endfacet
  facet normal -7.818315e-01  6.234897e-01  0.000000e+00
    outer loop
      vertex  7.967617e+01 -5.863736e+00  0.000000e+00
      vertex  7.967617e+01 -5.863736e+00  1.500000e+01
      vertex  8.175726e+01 -3.254128e+00  1.500000e+01
    endloop
  endfacet
  facet normal -7.818315e-01  6.234897e-01  0.000000e+00
    outer loop
      vertex  7.967617e+01 -5.863736e+00  0.000000e+00
      vertex  8.175726e+01 -3.254128e+00  1.500000e+01
      vertex  8.175726e+01 -3.254128e+00  0.000000e+00
    endloop
  endfacet
  facet normal -9.749277e-01  2.225219e-01  0.000000e+00
    outer loop
      vertex  8.175726e+01 -3.254128e+00  0.000000e+00
      vertex  8.175726e+01 -3.254128e+00  1.500000e+01
      vertex  8.250000e+01  0.000000e+00  1.500000e+01
    endloop
  endfacet
  facet normal -9.749277e-01  2.225219e-01  0.000000e+00
    outer loop
      vertex  8.175726e+01 -3.254128e+00  0.000000e+00
      vertex  8.250000e+01  0.000000e+00  1.500000e+01
      vertex  8.250000e+01  0.000000e+00  0.000000e+00
    endloop
  endfacet
  facet normal -4.338841e-01  9.009687e-01  0.000000e+00
    outer loop
      vertex  7.967617e+01 -5.863736e+00  1.500000e+01
      vertex  7.666891e+01 -7.311959e+00  0.000000e+00
      vertex  7.666891e+01 -7.311959e+00  1.500000e+01
    endloop
  endfacet
  facet normal  0.000000e+00  1.000000e+00  0.000000e+00
    outer loop
      vertex  7.666891e+01 -7.311959e+00  1.500000e+01
      vertex  7.666891e+01 -7.311959e+00  0.000000e+00
      vertex  7.333109e+01 -7.311959e+00  0.000000e+00
    endloop
  endfacet
  facet normal  0.000000e+00  1.000000e+00  0.000000e+00
    outer loop
      vertex  7.666891e+01 -7.311959e+00  1.500000e+01
      vertex  7.333109e+01 -7.311959e+00  0.000000e+00
      vertex  7.333109e+01 -7.311959e+00  1.500000e+01
    endloop
  endfacet
  facet normal  4.338841e-01  9.009687e-01  0.000000e+00
    outer loop
      vertex  7.333109e+01 -7.311959e+00  1.500000e+01
      vertex  7.333109e+01 -7.311959e+00  0.000000e+00
      vertex  7.032383e+01 -5.863736e+00  0.000000e+00
    endloop
  endfacet
  facet normal  4.338841e-01  9.009687e-01  -0.000000e+00
    outer loop
      vertex  7.333109e+01 -7.311959e+00  1.500000e+01
      vertex  7.032383e+01 -5.863736e+00  0.000000e+00
      vertex  7.032383e+01 -5.863736e+00  1.500000e+01
    endloop
  endfacet
  facet normal  7.818315e-01  6.234897e-01  0.000000e+00
    outer loop
      vertex  7.032383e+01 -5.863736e+00  1.500000e+01
      vertex  7.032383e+01 -5.863736e+00  0.000000e+00
      vertex  6.824274e+01 -3.254128e+00  0.000000e+00
    endloop
  endfacet
  facet normal  7.818315e-01  6.234897e-01  -0.000000e+00
    outer loop
      vertex  7.032383e+01 -5.863736e+00  1.500000e+01
      vertex  6.824274e+01 -3.254128e+00  0.000000e+00
      vertex  6.824274e+01 -3.254128e+00  1.500000e+01
    endloop
  endfacet
  facet normal  9.749277e-01  2.225219e-01  0.000000e+00
    outer loop
      vertex  6.824274e+01 -3.254128e+00  1.500000e+01
      vertex  6.824274e+01 -3.254128e+00  0.000000e+00
      vertex  6.750000e+01  4.249154e-15  0.000000e+00
    endloop
  endfacet
  facet normal  9.749277e-01  2.225219e-01  -0.000000e+00
    outer loop
      vertex  6.824274e+01 -3.254128e+00  1.500000e+01
      vertex  6.750000e+01  4.249154e-15  0.000000e+00
      vertex  6.750000e+01  4.249154e-15  1.500000e+01
    endloop
  endfacet
  facet normal  3.462000e-01  9.381607e-01  0.000000e+00
    outer loop
      vertex  7.800000e+01  1.469694e+01  0.000000e+00
      vertex  7.800000e+01  1.469694e+01  1.500000e+01
      vertex  8.226601e+01  1.312270e+01  0.000000e+00
    endloop
  endfacet
  facet normal  3.462000e-01  9.381607e-01  -0.000000e+00
    outer loop
      vertex  8.226601e+01  1.312270e+01  0.000000e+00
      vertex  7.800000e+01  1.469694e+01  1.500000e+01
      vertex  8.226601e+01  1.312270e+01  1.500000e+01
    endloop
  endfacet
  facet normal  6.114070e-01  7.913163e-01  0.000000e+00
    outer loop
      vertex  8.226601e+01  1.312270e+01  0.000000e+00
      vertex  8.226601e+01  1.312270e+01  1.500000e+01
      vertex  8.586428e+01  1.034251e+01  0.000000e+00
    endloop
  endfacet
  facet normal  6.114070e-01  7.913163e-01  -0.000000e+00
    outer loop
      vertex  8.586428e+01  1.034251e+01  0.000000e+00
      vertex  8.226601e+01  1.312270e+01  1.500000e+01
      vertex  8.586428e+01  1.034251e+01  1.500000e+01
    endloop
  endfacet
  facet normal  8.204268e-01  5.717515e-01  0.000000e+00
    outer loop
      vertex  8.586428e+01  1.034251e+01  0.000000e+00
      vertex  8.586428e+01  1.034251e+01  1.500000e+01
      vertex  8.846415e+01  6.611862e+00  0.000000e+00
    endloop
  endfacet
  facet normal  8.204268e-01  5.717515e-01  -0.000000e+00
    outer loop
      vertex  8.846415e+01  6.611862e+00  0.000000e+00
      vertex  8.586428e+01  1.034251e+01  1.500000e+01
      vertex  8.846415e+01  6.611862e+00  1.500000e+01
    endloop
  endfacet
  facet normal  9.540511e-01  2.996440e-01  0.000000e+00
    outer loop
      vertex  8.846415e+01  6.611862e+00  0.000000e+00
      vertex  8.846415e+01  6.611862e+00  1.500000e+01
      vertex  8.982669e+01  2.273600e+00  0.000000e+00
    endloop
  endfacet
  facet normal  9.540511e-01  2.996440e-01  -0.000000e+00
    outer loop
      vertex  8.982669e+01  2.273600e+00  0.000000e+00
      vertex  8.846415e+01  6.611862e+00  1.500000e+01
      vertex  8.982669e+01  2.273600e+00  1.500000e+01
    endloop
  endfacet
  facet normal  1.000000e+00  0.000000e+00  0.000000e+00
    outer loop
      vertex  8.982669e+01  2.273600e+00  0.000000e+00
      vertex  8.982669e+01  2.273600e+00  1.500000e+01
      vertex  8.982669e+01 -2.273600e+00  0.000000e+00
    endloop
  endfacet
  facet normal  1.000000e+00  0.000000e+00  0.000000e+00
    outer loop
      vertex  8.982669e+01 -2.273600e+00  0.000000e+00
      vertex  8.982669e+01  2.273600e+00  1.500000e+01
      vertex  8.982669e+01 -2.273600e+00  1.500000e+01
    endloop
  endfacet
  facet normal  9.540511e-01 -2.996440e-01  0.000000e+00
    outer loop
      vertex  8.982669e+01 -2.273600e+00  0.000000e+00
      vertex  8.982669e+01 -2.273600e+00  1.500000e+01
      vertex  8.846415e+01 -6.611862e+00  0.000000e+00
    endloop
  endfacet
  facet normal  9.540511e-01 -2.996440e-01  0.000000e+00
    outer loop
      vertex  8.846415e+01 -6.611862e+00  0.000000e+00
      vertex  8.982669e+01 -2.273600e+00  1.500000e+01
      vertex  8.846415e+01 -6.611862e+00  1.500000e+01
    endloop
  endfacet
  facet normal  8.204268e-01 -5.717515e-01  0.000000e+00
    outer loop
      vertex  8.846415e+01 -6.611862e+00  0.000000e+00
      vertex  8.846415e+01 -6.611862e+00  1.500000e+01
      vertex  8.586428e+01 -1.034251e+01  0.000000e+00
    endloop
  endfacet
  facet normal  8.204268e-01 -5.717515e-01  0.000000e+00
    outer loop
      vertex  8.586428e+01 -1.034251e+01  0.000000e+00
      vertex  8.846415e+01 -6.611862e+00  1.500000e+01
      vertex  8.586428e+01 -1.034251e+01  1.500000e+01
    endloop
  endfacet
  facet normal  6.114070e-01 -7.913163e-01  0.000000e+00
    outer loop
      vertex  8.586428e+01 -1.034251e+01  0.000000e+00
      vertex  8.586428e+01 -1.034251e+01  1.500000e+01
      vertex  8.226601e+01 -1.312270e+01  0.000000e+00
    endloop
  endfacet
  facet normal  6.114070e-01 -7.913163e-01  0.000000e+00
    outer loop
      vertex  8.226601e+01 -1.312270e+01  0.000000e+00
      vertex  8.586428e+01 -1.034251e+01  1.500000e+01
      vertex  8.226601e+01 -1.312270e+01  1.500000e+01
    endloop
  endfacet
  facet normal  3.462000e-01 -9.381607e-01  0.000000e+00
    outer loop
      vertex  8.226601e+01 -1.312270e+01  0.000000e+00
      vertex  8.226601e+01 -1.312270e+01  1.500000e+01
      vertex  7.800000e+01 -1.469694e+01  0.000000e+00
    endloop
  endfacet
  facet normal  3.462000e-01 -9.381607e-01  0.000000e+00
    outer loop
      vertex  7.800000e+01 -1.469694e+01  0.000000e+00
      vertex  8.226601e+01 -1.312270e+01  1.500000e+01
      vertex  7.800000e+01 -1.469694e+01  1.500000e+01
    endloop
  endfacet
  facet normal -3.462000e-01 -9.381607e-01  -0.000000e+00
    outer loop
      vertex -7.800000e+01 -1.469694e+01  0.000000e+00
      vertex -7.800000e+01 -1.469694e+01  1.500000e+01
      vertex -8.226601e+01 -1.312270e+01  0.000000e+00
    endloop
  endfacet
  facet normal -3.462000e-01 -9.381607e-01  0.000000e+00
    outer loop
      vertex -8.226601e+01 -1.312270e+01  0.000000e+00
      vertex -7.800000e+01 -1.469694e+01  1.500000e+01
      vertex -8.226601e+01 -1.312270e+01  1.500000e+01
    endloop
  endfacet
  facet normal -6.114070e-01 -7.913163e-01  -0.000000e+00
    outer loop
      vertex -8.226601e+01 -1.312270e+01  0.000000e+00
      vertex -8.226601e+01 -1.312270e+01  1.500000e+01
      vertex -8.586428e+01 -1.034251e+01  0.000000e+00
    endloop
  endfacet
  facet normal -6.114070e-01 -7.913163e-01  0.000000e+00
    outer loop
      vertex -8.586428e+01 -1.034251e+01  0.000000e+00
      vertex -8.226601e+01 -1.312270e+01  1.500000e+01
      vertex -8.586428e+01 -1.034251e+01  1.500000e+01
    endloop
  endfacet
  facet normal -8.204268e-01 -5.717515e-01  -0.000000e+00
    outer loop
      vertex -8.586428e+01 -1.034251e+01  0.000000e+00
      vertex -8.586428e+01 -1.034251e+01  1.500000e+01
      vertex -8.846415e+01 -6.611862e+00  0.000000e+00
    endloop
  endfacet
  facet normal -8.204268e-01 -5.717515e-01  0.000000e+00
    outer loop
      vertex -8.846415e+01 -6.611862e+00  0.000000e+00
      vertex -8.586428e+01 -1.034251e+01  1.500000e+01
      vertex -8.846415e+01 -6.611862e+00  1.500000e+01
    endloop
  endfacet
  facet normal -9.540511e-01 -2.996440e-01  -0.000000e+00
    outer loop
      vertex -8.846415e+01 -6.611862e+00  0.000000e+00
      vertex -8.846415e+01 -6.611862e+00  1.500000e+01
      vertex -8.982669e+01 -2.273600e+00  0.000000e+00
    endloop
  endfacet
  facet normal -9.540511e-01 -2.996440e-01  0.000000e+00
    outer loop
      vertex -8.982669e+01 -2.273600e+00  0.000000e+00
      vertex -8.846415e+01 -6.611862e+00  1.500000e+01
      vertex -8.982669e+01 -2.273600e+00  1.500000e+01
    endloop
  endfacet
  facet normal -1.000000e+00  0.000000e+00  0.000000e+00
    outer loop
      vertex -8.982669e+01 -2.273600e+00  0.000000e+00
      vertex -8.982669e+01 -2.273600e+00  1.500000e+01
      vertex -8.982669e+01  2.273600e+00  0.000000e+00
    endloop
  endfacet
  facet normal -1.000000e+00  0.000000e+00  0.000000e+00
    outer loop
      vertex -8.982669e+01  2.273600e+00  0.000000e+00
      vertex -8.982669e+01 -2.273600e+00  1.500000e+01
      vertex -8.982669e+01  2.273600e+00  1.500000e+01
    endloop
  endfacet
  facet normal -9.540511e-01  2.996440e-01  0.000000e+00
    outer loop
      vertex -8.982669e+01  2.273600e+00  0.000000e+00
      vertex -8.982669e+01  2.273600e+00  1.500000e+01
      vertex -8.846415e+01  6.611862e+00  0.000000e+00
    endloop
  endfacet
  facet normal -9.540511e-01  2.996440e-01  0.000000e+00
    outer loop
      vertex -8.846415e+01  6.611862e+00  0.000000e+00
      vertex -8.982669e+01  2.273600e+00  1.500000e+01
      vertex -8.846415e+01  6.611862e+00  1.500000e+01
    endloop
  endfacet
  facet normal -8.204268e-01  5.717515e-01  0.000000e+00
    outer loop
      vertex -8.846415e+01  6.611862e+00  0.000000e+00
      vertex -8.846415e+01  6.611862e+00  1.500000e+01
      vertex -8.586428e+01  1.034251e+01  0.000000e+00
    endloop
  endfacet
  facet normal -8.204268e-01  5.717515e-01  0.000000e+00
    outer loop
      vertex -8.586428e+01  1.034251e+01  0.000000e+00
      vertex -8.846415e+01  6.611862e+00  1.500000e+01
      vertex -8.586428e+01  1.034251e+01  1.500000e+01
    endloop
  endfacet
  facet normal -6.114070e-01  7.913163e-01  0.000000e+00
    outer loop
      vertex -8.586428e+01  1.034251e+01  0.000000e+00
      vertex -8.586428e+01  1.034251e+01  1.500000e+01
      vertex -8.226601e+01  1.312270e+01  0.000000e+00
    endloop
  endfacet
  facet normal -6.114070e-01  7.913163e-01  0.000000e+00
    outer loop
      vertex -8.226601e+01  1.312270e+01  0.000000e+00
      vertex -8.586428e+01  1.034251e+01  1.500000e+01
      vertex -8.226601e+01  1.312270e+01  1.500000e+01
    endloop
  endfacet
  facet normal -3.462000e-01  9.381607e-01  0.000000e+00
    outer loop
      vertex -8.226601e+01  1.312270e+01  0.000000e+00
      vertex -8.226601e+01  1.312270e+01  1.500000e+01
      vertex -7.800000e+01  1.469694e+01  0.000000e+00
    endloop
  endfacet
  facet normal -3.462000e-01  9.381607e-01  0.000000e+00
    outer loop
      vertex -7.800000e+01  1.469694e+01  0.000000e+00
      vertex -8.226601e+01  1.312270e+01  1.500000e+01
      vertex -7.800000e+01  1.469694e+01  1.500000e+01
    endloop
  endfacet
endsolid CATIA STL
