solid CATIA STL
  facet normal -1.000000e+00  0.000000e+00  0.000000e+00
    outer loop
      vertex -3.750000e+01 -2.500000e+01  2.500000e+01
      vertex -3.750000e+01 -2.500000e+01  5.000000e+01
      vertex -3.750000e+01 -5.000000e+00  2.500000e+01
    endloop
  endfacet
  facet normal -1.000000e+00  0.000000e+00  0.000000e+00
    outer loop
      vertex -3.750000e+01 -5.000000e+00  2.500000e+01
      vertex -3.750000e+01 -2.500000e+01  5.000000e+01
      vertex -3.750000e+01 -5.000000e+00  5.000000e+01
    endloop
  endfacet
  facet normal -1.000000e+00  0.000000e+00  0.000000e+00
    outer loop
      vertex -3.750000e+01  5.000000e+00  2.500000e+01
      vertex -3.750000e+01  5.000000e+00  5.000000e+01
      vertex -3.750000e+01  2.500000e+01  2.500000e+01
    endloop
  endfacet
  facet normal -1.000000e+00  0.000000e+00  0.000000e+00
    outer loop
      vertex -3.750000e+01  2.500000e+01  2.500000e+01
      vertex -3.750000e+01  5.000000e+00  5.000000e+01
      vertex -3.750000e+01  2.500000e+01  5.000000e+01
    endloop
  endfacet
  facet normal  0.000000e+00  0.000000e+00  1.000000e+00
    outer loop
      vertex -7.500000e+01  3.750000e+01  2.500000e+01
      vertex -7.500000e+01  5.000000e+00  2.500000e+01
      vertex -6.400000e+01  1.650000e+01  2.500000e+01
    endloop
  endfacet
  facet normal  0.000000e+00  -0.000000e+00  9.999999e-01
    outer loop
      vertex -7.500000e+01  3.750000e+01  2.500000e+01
      vertex -6.400000e+01  1.650000e+01  2.500000e+01
      vertex -6.400000e+01  2.650000e+01  2.500000e+01
    endloop
  endfacet
  facet normal  0.000000e+00  -0.000000e+00  1.000000e+00
    outer loop
      vertex -7.500000e+01  3.750000e+01  2.500000e+01
      vertex -6.400000e+01  2.650000e+01  2.500000e+01
      vertex -4.600000e+01  2.650000e+01  2.500000e+01
    endloop
  endfacet
  facet normal  0.000000e+00  -0.000000e+00  1.000000e+00
    outer loop
      vertex -7.500000e+01  3.750000e+01  2.500000e+01
      vertex -4.600000e+01  2.650000e+01  2.500000e+01
      vertex  4.600000e+01  2.650000e+01  2.500000e+01
    endloop
  endfacet
  facet normal  0.000000e+00  -0.000000e+00  1.000000e+00
    outer loop
      vertex -7.500000e+01  3.750000e+01  2.500000e+01
      vertex  4.600000e+01  2.650000e+01  2.500000e+01
      vertex  6.400000e+01  2.650000e+01  2.500000e+01
    endloop
  endfacet
  facet normal  0.000000e+00  -0.000000e+00  1.000000e+00
    outer loop
      vertex -7.500000e+01  3.750000e+01  2.500000e+01
      vertex  6.400000e+01  2.650000e+01  2.500000e+01
      vertex  7.500000e+01  3.750000e+01  2.500000e+01
    endloop
  endfacet
  facet normal  0.000000e+00  0.000000e+00  1.000000e+00
    outer loop
      vertex  3.750000e+01  2.500000e+01  2.500000e+01
      vertex  3.750000e+01  5.000000e+00  2.500000e+01
      vertex  4.600000e+01  1.650000e+01  2.500000e+01
    endloop
  endfacet
  facet normal  0.000000e+00  -0.000000e+00  1.000000e+00
    outer loop
      vertex  3.750000e+01  2.500000e+01  2.500000e+01
      vertex  4.600000e+01  1.650000e+01  2.500000e+01
      vertex  4.600000e+01  2.650000e+01  2.500000e+01
    endloop
  endfacet
  facet normal  0.000000e+00  0.000000e+00  1.000000e+00
    outer loop
      vertex  3.750000e+01  2.500000e+01  2.500000e+01
      vertex  4.600000e+01  2.650000e+01  2.500000e+01
      vertex -4.600000e+01  2.650000e+01  2.500000e+01
    endloop
  endfacet
  facet normal  0.000000e+00  0.000000e+00  1.000000e+00
    outer loop
      vertex  3.750000e+01  2.500000e+01  2.500000e+01
      vertex -4.600000e+01  2.650000e+01  2.500000e+01
      vertex -3.750000e+01  2.500000e+01  2.500000e+01
    endloop
  endfacet
  facet normal  0.000000e+00  0.000000e+00  1.000000e+00
    outer loop
      vertex -3.750000e+01  2.500000e+01  2.500000e+01
      vertex -4.600000e+01  2.650000e+01  2.500000e+01
      vertex -3.750000e+01  5.000000e+00  2.500000e+01
    endloop
  endfacet
  facet normal  0.000000e+00  0.000000e+00  1.000000e+00
    outer loop
      vertex -3.750000e+01  5.000000e+00  2.500000e+01
      vertex -4.600000e+01  2.650000e+01  2.500000e+01
      vertex -4.600000e+01  1.650000e+01  2.500000e+01
    endloop
  endfacet
  facet normal  0.000000e+00  0.000000e+00  9.999999e-01
    outer loop
      vertex -3.750000e+01  5.000000e+00  2.500000e+01
      vertex -4.600000e+01  1.650000e+01  2.500000e+01
      vertex -7.500000e+01  5.000000e+00  2.500000e+01
    endloop
  endfacet
  facet normal  0.000000e+00  0.000000e+00  1.000000e+00
    outer loop
      vertex -7.500000e+01  5.000000e+00  2.500000e+01
      vertex -4.600000e+01  1.650000e+01  2.500000e+01
      vertex -6.400000e+01  1.650000e+01  2.500000e+01
    endloop
  endfacet
  facet normal  -0.000000e+00  0.000000e+00  1.000000e+00
    outer loop
      vertex  7.500000e+01  3.750000e+01  2.500000e+01
      vertex  6.400000e+01  2.650000e+01  2.500000e+01
      vertex  7.500000e+01  5.000000e+00  2.500000e+01
    endloop
  endfacet
  facet normal  0.000000e+00  0.000000e+00  9.999999e-01
    outer loop
      vertex  7.500000e+01  5.000000e+00  2.500000e+01
      vertex  6.400000e+01  2.650000e+01  2.500000e+01
      vertex  6.400000e+01  1.650000e+01  2.500000e+01
    endloop
  endfacet
  facet normal  0.000000e+00  0.000000e+00  9.999999e-01
    outer loop
      vertex  7.500000e+01  5.000000e+00  2.500000e+01
      vertex  6.400000e+01  1.650000e+01  2.500000e+01
      vertex  3.750000e+01  5.000000e+00  2.500000e+01
    endloop
  endfacet
  facet normal  0.000000e+00  0.000000e+00  1.000000e+00
    outer loop
      vertex  3.750000e+01  5.000000e+00  2.500000e+01
      vertex  6.400000e+01  1.650000e+01  2.500000e+01
      vertex  4.600000e+01  1.650000e+01  2.500000e+01
    endloop
  endfacet
  facet normal  0.000000e+00  0.000000e+00  1.000000e+00
    outer loop
      vertex -7.500000e+01 -3.750000e+01  2.500000e+01
      vertex  7.500000e+01 -3.750000e+01  2.500000e+01
      vertex  6.400000e+01 -2.650000e+01  2.500000e+01
    endloop
  endfacet
  facet normal  0.000000e+00  0.000000e+00  1.000000e+00
    outer loop
      vertex -7.500000e+01 -3.750000e+01  2.500000e+01
      vertex  6.400000e+01 -2.650000e+01  2.500000e+01
      vertex  4.600000e+01 -2.650000e+01  2.500000e+01
    endloop
  endfacet
  facet normal  0.000000e+00  0.000000e+00  1.000000e+00
    outer loop
      vertex -7.500000e+01 -3.750000e+01  2.500000e+01
      vertex  4.600000e+01 -2.650000e+01  2.500000e+01
      vertex -4.600000e+01 -2.650000e+01  2.500000e+01
    endloop
  endfacet
  facet normal  0.000000e+00  0.000000e+00  1.000000e+00
    outer loop
      vertex -7.500000e+01 -3.750000e+01  2.500000e+01
      vertex -4.600000e+01 -2.650000e+01  2.500000e+01
      vertex -6.400000e+01 -2.650000e+01  2.500000e+01
    endloop
  endfacet
  facet normal  0.000000e+00  -0.000000e+00  9.999999e-01
    outer loop
      vertex -7.500000e+01 -3.750000e+01  2.500000e+01
      vertex -6.400000e+01 -2.650000e+01  2.500000e+01
      vertex -6.400000e+01 -1.650000e+01  2.500000e+01
    endloop
  endfacet
  facet normal  0.000000e+00  0.000000e+00  1.000000e+00
    outer loop
      vertex -7.500000e+01 -3.750000e+01  2.500000e+01
      vertex -6.400000e+01 -1.650000e+01  2.500000e+01
      vertex -7.500000e+01 -5.000000e+00  2.500000e+01
    endloop
  endfacet
  facet normal  0.000000e+00  0.000000e+00  9.999999e-01
    outer loop
      vertex  6.400000e+01 -2.650000e+01  2.500000e+01
      vertex  7.500000e+01 -3.750000e+01  2.500000e+01
      vertex  6.400000e+01 -1.650000e+01  2.500000e+01
    endloop
  endfacet
  facet normal  -0.000000e+00  0.000000e+00  1.000000e+00
    outer loop
      vertex  6.400000e+01 -1.650000e+01  2.500000e+01
      vertex  7.500000e+01 -3.750000e+01  2.500000e+01
      vertex  7.500000e+01 -5.000000e+00  2.500000e+01
    endloop
  endfacet
  facet normal  0.000000e+00  0.000000e+00  1.000000e+00
    outer loop
      vertex  6.400000e+01 -1.650000e+01  2.500000e+01
      vertex  7.500000e+01 -5.000000e+00  2.500000e+01
      vertex  4.600000e+01 -1.650000e+01  2.500000e+01
    endloop
  endfacet
  facet normal  0.000000e+00  -0.000000e+00  9.999999e-01
    outer loop
      vertex  4.600000e+01 -1.650000e+01  2.500000e+01
      vertex  7.500000e+01 -5.000000e+00  2.500000e+01
      vertex  3.750000e+01 -5.000000e+00  2.500000e+01
    endloop
  endfacet
  facet normal  0.000000e+00  0.000000e+00  1.000000e+00
    outer loop
      vertex  4.600000e+01 -1.650000e+01  2.500000e+01
      vertex  3.750000e+01 -5.000000e+00  2.500000e+01
      vertex  4.600000e+01 -2.650000e+01  2.500000e+01
    endloop
  endfacet
  facet normal  0.000000e+00  0.000000e+00  1.000000e+00
    outer loop
      vertex  4.600000e+01 -2.650000e+01  2.500000e+01
      vertex  3.750000e+01 -5.000000e+00  2.500000e+01
      vertex  3.750000e+01 -2.500000e+01  2.500000e+01
    endloop
  endfacet
  facet normal  0.000000e+00  0.000000e+00  1.000000e+00
    outer loop
      vertex  4.600000e+01 -2.650000e+01  2.500000e+01
      vertex  3.750000e+01 -2.500000e+01  2.500000e+01
      vertex -4.600000e+01 -2.650000e+01  2.500000e+01
    endloop
  endfacet
  facet normal  0.000000e+00  0.000000e+00  1.000000e+00
    outer loop
      vertex -4.600000e+01 -2.650000e+01  2.500000e+01
      vertex  3.750000e+01 -2.500000e+01  2.500000e+01
      vertex -3.750000e+01 -2.500000e+01  2.500000e+01
    endloop
  endfacet
  facet normal  0.000000e+00  0.000000e+00  1.000000e+00
    outer loop
      vertex -4.600000e+01 -2.650000e+01  2.500000e+01
      vertex -3.750000e+01 -2.500000e+01  2.500000e+01
      vertex -4.600000e+01 -1.650000e+01  2.500000e+01
    endloop
  endfacet
  facet normal  -0.000000e+00  0.000000e+00  1.000000e+00
    outer loop
      vertex -4.600000e+01 -1.650000e+01  2.500000e+01
      vertex -3.750000e+01 -2.500000e+01  2.500000e+01
      vertex -3.750000e+01 -5.000000e+00  2.500000e+01
    endloop
  endfacet
  facet normal  0.000000e+00  0.000000e+00  1.000000e+00
    outer loop
      vertex -4.600000e+01 -1.650000e+01  2.500000e+01
      vertex -3.750000e+01 -5.000000e+00  2.500000e+01
      vertex -6.400000e+01 -1.650000e+01  2.500000e+01
    endloop
  endfacet
  facet normal  0.000000e+00  -0.000000e+00  9.999999e-01
    outer loop
      vertex -6.400000e+01 -1.650000e+01  2.500000e+01
      vertex -3.750000e+01 -5.000000e+00  2.500000e+01
      vertex -7.500000e+01 -5.000000e+00  2.500000e+01
    endloop
  endfacet
  facet normal -1.000000e+00  0.000000e+00  0.000000e+00
    outer loop
      vertex -7.500000e+01 -3.750000e+01  0.000000e+00
      vertex -7.500000e+01 -3.750000e+01  2.500000e+01
      vertex -7.500000e+01 -5.000000e+00  2.500000e+01
    endloop
  endfacet
  facet normal -1.000000e+00  0.000000e+00  -0.000000e+00
    outer loop
      vertex -7.500000e+01 -3.750000e+01  0.000000e+00
      vertex -7.500000e+01 -5.000000e+00  2.500000e+01
      vertex -7.500000e+01  5.000000e+00  2.500000e+01
    endloop
  endfacet
  facet normal -1.000000e+00  0.000000e+00  -0.000000e+00
    outer loop
      vertex -7.500000e+01 -3.750000e+01  0.000000e+00
      vertex -7.500000e+01  5.000000e+00  2.500000e+01
      vertex -7.500000e+01  3.750000e+01  2.500000e+01
    endloop
  endfacet
  facet normal -1.000000e+00  0.000000e+00  -0.000000e+00
    outer loop
      vertex -7.500000e+01 -3.750000e+01  0.000000e+00
      vertex -7.500000e+01  3.750000e+01  2.500000e+01
      vertex -7.500000e+01  3.750000e+01  0.000000e+00
    endloop
  endfacet
  facet normal  0.000000e+00  0.000000e+00  9.999999e-01
    outer loop
      vertex  3.750000e+01 -2.500000e+01  5.000000e+01
      vertex  2.500000e+01 -1.200000e+01  5.000000e+01
      vertex -3.750000e+01 -2.500000e+01  5.000000e+01
    endloop
  endfacet
  facet normal  0.000000e+00  0.000000e+00  1.000000e+00
    outer loop
      vertex -3.750000e+01 -2.500000e+01  5.000000e+01
      vertex  2.500000e+01 -1.200000e+01  5.000000e+01
      vertex -2.500000e+01 -1.200000e+01  5.000000e+01
    endloop
  endfacet
  facet normal  0.000000e+00  0.000000e+00  1.000000e+00
    outer loop
      vertex -3.750000e+01 -2.500000e+01  5.000000e+01
      vertex -2.500000e+01 -1.200000e+01  5.000000e+01
      vertex -3.750000e+01 -5.000000e+00  5.000000e+01
    endloop
  endfacet
  facet normal  0.000000e+00  -0.000000e+00  9.999999e-01
    outer loop
      vertex -3.750000e+01  2.500000e+01  5.000000e+01
      vertex -2.500000e+01  1.200000e+01  5.000000e+01
      vertex  3.750000e+01  2.500000e+01  5.000000e+01
    endloop
  endfacet
  facet normal  0.000000e+00  0.000000e+00  1.000000e+00
    outer loop
      vertex  3.750000e+01  2.500000e+01  5.000000e+01
      vertex -2.500000e+01  1.200000e+01  5.000000e+01
      vertex  2.500000e+01  1.200000e+01  5.000000e+01
    endloop
  endfacet
  facet normal  -0.000000e+00  0.000000e+00  1.000000e+00
    outer loop
      vertex  3.750000e+01  2.500000e+01  5.000000e+01
      vertex  2.500000e+01  1.200000e+01  5.000000e+01
      vertex  3.750000e+01  5.000000e+00  5.000000e+01
    endloop
  endfacet
  facet normal  0.000000e+00  0.000000e+00  1.000000e+00
    outer loop
      vertex -3.750000e+01 -5.000000e+00  5.000000e+01
      vertex -2.500000e+01 -1.200000e+01  5.000000e+01
      vertex -3.750000e+01  5.000000e+00  5.000000e+01
    endloop
  endfacet
  facet normal  -0.000000e+00  0.000000e+00  1.000000e+00
    outer loop
      vertex -3.750000e+01  5.000000e+00  5.000000e+01
      vertex -2.500000e+01 -1.200000e+01  5.000000e+01
      vertex -2.500000e+01  1.200000e+01  5.000000e+01
    endloop
  endfacet
  facet normal  0.000000e+00  0.000000e+00  1.000000e+00
    outer loop
      vertex -3.750000e+01  5.000000e+00  5.000000e+01
      vertex -2.500000e+01  1.200000e+01  5.000000e+01
      vertex -3.750000e+01  2.500000e+01  5.000000e+01
    endloop
  endfacet
  facet normal  0.000000e+00  0.000000e+00  1.000000e+00
    outer loop
      vertex  3.750000e+01  5.000000e+00  5.000000e+01
      vertex  2.500000e+01  1.200000e+01  5.000000e+01
      vertex  3.750000e+01 -5.000000e+00  5.000000e+01
    endloop
  endfacet
  facet normal  0.000000e+00  0.000000e+00  1.000000e+00
    outer loop
      vertex  3.750000e+01 -5.000000e+00  5.000000e+01
      vertex  2.500000e+01  1.200000e+01  5.000000e+01
      vertex  2.500000e+01 -1.200000e+01  5.000000e+01
    endloop
  endfacet
  facet normal  -0.000000e+00  0.000000e+00  1.000000e+00
    outer loop
      vertex  3.750000e+01 -5.000000e+00  5.000000e+01
      vertex  2.500000e+01 -1.200000e+01  5.000000e+01
      vertex  3.750000e+01 -2.500000e+01  5.000000e+01
    endloop
  endfacet
  facet normal  0.000000e+00  1.000000e+00  -0.000000e+00
    outer loop
      vertex -3.750000e+01  5.000000e+00  5.000000e+01
      vertex -3.750000e+01  5.000000e+00  2.500000e+01
      vertex -7.500000e+01  5.000000e+00  2.500000e+01
    endloop
  endfacet
  facet normal  0.000000e+00 -1.000000e+00  0.000000e+00
    outer loop
      vertex -7.500000e+01 -5.000000e+00  2.500000e+01
      vertex -3.750000e+01 -5.000000e+00  2.500000e+01
      vertex -3.750000e+01 -5.000000e+00  5.000000e+01
    endloop
  endfacet
  facet normal -5.547002e-01  0.000000e+00  8.320503e-01
    outer loop
      vertex -7.500000e+01  5.000000e+00  2.500000e+01
      vertex -7.500000e+01 -5.000000e+00  2.500000e+01
      vertex -3.750000e+01  5.000000e+00  5.000000e+01
    endloop
  endfacet
  facet normal -5.547002e-01  0.000000e+00  8.320503e-01
    outer loop
      vertex -3.750000e+01  5.000000e+00  5.000000e+01
      vertex -7.500000e+01 -5.000000e+00  2.500000e+01
      vertex -3.750000e+01 -5.000000e+00  5.000000e+01
    endloop
  endfacet
  facet normal  1.000000e+00  0.000000e+00  0.000000e+00
    outer loop
      vertex -2.500000e+01 -1.200000e+01  3.000000e+01
      vertex -2.500000e+01  1.200000e+01  3.000000e+01
      vertex -2.500000e+01 -1.200000e+01  5.000000e+01
    endloop
  endfacet
  facet normal  1.000000e+00  -0.000000e+00  0.000000e+00
    outer loop
      vertex -2.500000e+01 -1.200000e+01  5.000000e+01
      vertex -2.500000e+01  1.200000e+01  3.000000e+01
      vertex -2.500000e+01  1.200000e+01  5.000000e+01
    endloop
  endfacet
  facet normal  0.000000e+00  0.000000e+00 -1.000000e+00
    outer loop
      vertex -4.600000e+01 -1.650000e+01  3.552714e-15
      vertex -6.400000e+01 -1.650000e+01  3.552714e-15
      vertex -6.400000e+01  1.650000e+01  3.552714e-15
    endloop
  endfacet
  facet normal  0.000000e+00  0.000000e+00 -1.000000e+00
    outer loop
      vertex -4.600000e+01 -1.650000e+01  3.552714e-15
      vertex -6.400000e+01  1.650000e+01  3.552714e-15
      vertex -4.600000e+01  1.650000e+01  3.552714e-15
    endloop
  endfacet
  facet normal  0.000000e+00  0.000000e+00 -1.000000e+00
    outer loop
      vertex -4.600000e+01 -1.650000e+01  3.552714e-15
      vertex -4.600000e+01  1.650000e+01  3.552714e-15
      vertex  4.600000e+01  1.650000e+01  3.552714e-15
    endloop
  endfacet
  facet normal  0.000000e+00  -0.000000e+00 -1.000000e+00
    outer loop
      vertex -4.600000e+01 -1.650000e+01  3.552714e-15
      vertex  4.600000e+01  1.650000e+01  3.552714e-15
      vertex  4.600000e+01 -1.650000e+01  3.552714e-15
    endloop
  endfacet
  facet normal  -0.000000e+00  -0.000000e+00 -9.999999e-01
    outer loop
      vertex -4.600000e+01 -1.650000e+01  3.552714e-15
      vertex  4.600000e+01 -1.650000e+01  3.552714e-15
      vertex  4.600000e+01 -2.650000e+01  3.552714e-15
    endloop
  endfacet
  facet normal  0.000000e+00  0.000000e+00 -9.999999e-01
    outer loop
      vertex -4.600000e+01 -1.650000e+01  3.552714e-15
      vertex  4.600000e+01 -2.650000e+01  3.552714e-15
      vertex -4.600000e+01 -2.650000e+01  3.552714e-15
    endloop
  endfacet
  facet normal  3.229740e-16  0.000000e+00 -1.000000e+00
    outer loop
      vertex -7.500000e+01 -3.750000e+01  0.000000e+00
      vertex -7.500000e+01  3.750000e+01  0.000000e+00
      vertex -6.400000e+01 -1.650000e+01  3.552714e-15
    endloop
  endfacet
  facet normal  3.229740e-16  0.000000e+00 -9.999999e-01
    outer loop
      vertex -7.500000e+01 -3.750000e+01  0.000000e+00
      vertex -6.400000e+01 -1.650000e+01  3.552714e-15
      vertex -6.400000e+01 -2.650000e+01  3.552714e-15
    endloop
  endfacet
  facet normal  0.000000e+00  3.229740e-16 -1.000000e+00
    outer loop
      vertex -7.500000e+01 -3.750000e+01  0.000000e+00
      vertex -6.400000e+01 -2.650000e+01  3.552714e-15
      vertex -4.600000e+01 -2.650000e+01  3.552714e-15
    endloop
  endfacet
  facet normal  0.000000e+00  3.229740e-16 -1.000000e+00
    outer loop
      vertex -7.500000e+01 -3.750000e+01  0.000000e+00
      vertex -4.600000e+01 -2.650000e+01  3.552714e-15
      vertex  4.600000e+01 -2.650000e+01  3.552714e-15
    endloop
  endfacet
  facet normal  0.000000e+00  3.229740e-16 -1.000000e+00
    outer loop
      vertex -7.500000e+01 -3.750000e+01  0.000000e+00
      vertex  4.600000e+01 -2.650000e+01  3.552714e-15
      vertex  6.400000e+01 -2.650000e+01  3.552714e-15
    endloop
  endfacet
  facet normal  0.000000e+00  3.229740e-16 -1.000000e+00
    outer loop
      vertex -7.500000e+01 -3.750000e+01  0.000000e+00
      vertex  6.400000e+01 -2.650000e+01  3.552714e-15
      vertex  7.500000e+01 -3.750000e+01  0.000000e+00
    endloop
  endfacet
  facet normal  -0.000000e+00 -3.229740e-16 -1.000000e+00
    outer loop
      vertex -7.500000e+01  3.750000e+01  0.000000e+00
      vertex  7.500000e+01  3.750000e+01  0.000000e+00
      vertex  6.400000e+01  2.650000e+01  3.552714e-15
    endloop
  endfacet
  facet normal  -0.000000e+00 -3.229740e-16 -1.000000e+00
    outer loop
      vertex -7.500000e+01  3.750000e+01  0.000000e+00
      vertex  6.400000e+01  2.650000e+01  3.552714e-15
      vertex  4.600000e+01  2.650000e+01  3.552714e-15
    endloop
  endfacet
  facet normal  -0.000000e+00 -3.229740e-16 -1.000000e+00
    outer loop
      vertex -7.500000e+01  3.750000e+01  0.000000e+00
      vertex  4.600000e+01  2.650000e+01  3.552714e-15
      vertex -4.600000e+01  2.650000e+01  3.552714e-15
    endloop
  endfacet
  facet normal  -0.000000e+00 -3.229740e-16 -1.000000e+00
    outer loop
      vertex -7.500000e+01  3.750000e+01  0.000000e+00
      vertex -4.600000e+01  2.650000e+01  3.552714e-15
      vertex -6.400000e+01  2.650000e+01  3.552714e-15
    endloop
  endfacet
  facet normal  3.229740e-16  0.000000e+00 -9.999999e-01
    outer loop
      vertex -7.500000e+01  3.750000e+01  0.000000e+00
      vertex -6.400000e+01  2.650000e+01  3.552714e-15
      vertex -6.400000e+01  1.650000e+01  3.552714e-15
    endloop
  endfacet
  facet normal  3.229740e-16  0.000000e+00 -1.000000e+00
    outer loop
      vertex -7.500000e+01  3.750000e+01  0.000000e+00
      vertex -6.400000e+01  1.650000e+01  3.552714e-15
      vertex -6.400000e+01 -1.650000e+01  3.552714e-15
    endloop
  endfacet
  facet normal -3.229740e-16  0.000000e+00 -1.000000e+00
    outer loop
      vertex  7.500000e+01  3.750000e+01  0.000000e+00
      vertex  7.500000e+01 -3.750000e+01  0.000000e+00
      vertex  6.400000e+01 -2.650000e+01  3.552714e-15
    endloop
  endfacet
  facet normal -3.229740e-16  0.000000e+00 -9.999999e-01
    outer loop
      vertex  7.500000e+01  3.750000e+01  0.000000e+00
      vertex  6.400000e+01 -2.650000e+01  3.552714e-15
      vertex  6.400000e+01 -1.650000e+01  3.552714e-15
    endloop
  endfacet
  facet normal -3.229740e-16  0.000000e+00 -1.000000e+00
    outer loop
      vertex  7.500000e+01  3.750000e+01  0.000000e+00
      vertex  6.400000e+01 -1.650000e+01  3.552714e-15
      vertex  6.400000e+01  1.650000e+01  3.552714e-15
    endloop
  endfacet
  facet normal -3.229740e-16  0.000000e+00 -9.999999e-01
    outer loop
      vertex  7.500000e+01  3.750000e+01  0.000000e+00
      vertex  6.400000e+01  1.650000e+01  3.552714e-15
      vertex  6.400000e+01  2.650000e+01  3.552714e-15
    endloop
  endfacet
  facet normal  -0.000000e+00  0.000000e+00 -1.000000e+00
    outer loop
      vertex  4.600000e+01  1.650000e+01  3.552714e-15
      vertex  6.400000e+01  1.650000e+01  3.552714e-15
      vertex  4.600000e+01 -1.650000e+01  3.552714e-15
    endloop
  endfacet
  facet normal  0.000000e+00  0.000000e+00 -1.000000e+00
    outer loop
      vertex  4.600000e+01 -1.650000e+01  3.552714e-15
      vertex  6.400000e+01  1.650000e+01  3.552714e-15
      vertex  6.400000e+01 -1.650000e+01  3.552714e-15
    endloop
  endfacet
  facet normal  0.000000e+00  0.000000e+00 -9.999999e-01
    outer loop
      vertex -4.600000e+01  1.650000e+01  3.552714e-15
      vertex -4.600000e+01  2.650000e+01  3.552714e-15
      vertex  4.600000e+01  1.650000e+01  3.552714e-15
    endloop
  endfacet
  facet normal  0.000000e+00  0.000000e+00 -9.999999e-01
    outer loop
      vertex  4.600000e+01  1.650000e+01  3.552714e-15
      vertex -4.600000e+01  2.650000e+01  3.552714e-15
      vertex  4.600000e+01  2.650000e+01  3.552714e-15
    endloop
  endfacet
  facet normal  0.000000e+00  0.000000e+00  1.000000e+00
    outer loop
      vertex -2.500000e+01 -1.200000e+01  3.000000e+01
      vertex  2.500000e+01 -1.200000e+01  3.000000e+01
      vertex -2.500000e+01  1.200000e+01  3.000000e+01
    endloop
  endfacet
  facet normal  -0.000000e+00  0.000000e+00  1.000000e+00
    outer loop
      vertex -2.500000e+01  1.200000e+01  3.000000e+01
      vertex  2.500000e+01 -1.200000e+01  3.000000e+01
      vertex  2.500000e+01  1.200000e+01  3.000000e+01
    endloop
  endfacet
  facet normal  1.000000e+00  0.000000e+00  0.000000e+00
    outer loop
      vertex  7.500000e+01  3.750000e+01  0.000000e+00
      vertex  7.500000e+01  3.750000e+01  2.500000e+01
      vertex  7.500000e+01  5.000000e+00  2.500000e+01
    endloop
  endfacet
  facet normal  1.000000e+00  0.000000e+00  0.000000e+00
    outer loop
      vertex  7.500000e+01  3.750000e+01  0.000000e+00
      vertex  7.500000e+01  5.000000e+00  2.500000e+01
      vertex  7.500000e+01 -5.000000e+00  2.500000e+01
    endloop
  endfacet
  facet normal  1.000000e+00  0.000000e+00  0.000000e+00
    outer loop
      vertex  7.500000e+01  3.750000e+01  0.000000e+00
      vertex  7.500000e+01 -5.000000e+00  2.500000e+01
      vertex  7.500000e+01 -3.750000e+01  2.500000e+01
    endloop
  endfacet
  facet normal  1.000000e+00  0.000000e+00  0.000000e+00
    outer loop
      vertex  7.500000e+01  3.750000e+01  0.000000e+00
      vertex  7.500000e+01 -3.750000e+01  2.500000e+01
      vertex  7.500000e+01 -3.750000e+01  0.000000e+00
    endloop
  endfacet
  facet normal -1.000000e+00  0.000000e+00  0.000000e+00
    outer loop
      vertex  2.500000e+01  1.200000e+01  3.000000e+01
      vertex  2.500000e+01 -1.200000e+01  3.000000e+01
      vertex  2.500000e+01  1.200000e+01  5.000000e+01
    endloop
  endfacet
  facet normal -1.000000e+00  -0.000000e+00  0.000000e+00
    outer loop
      vertex  2.500000e+01  1.200000e+01  5.000000e+01
      vertex  2.500000e+01 -1.200000e+01  3.000000e+01
      vertex  2.500000e+01 -1.200000e+01  5.000000e+01
    endloop
  endfacet
  facet normal  0.000000e+00  1.000000e+00  0.000000e+00
    outer loop
      vertex  3.750000e+01  5.000000e+00  5.000000e+01
      vertex  7.500000e+01  5.000000e+00  2.500000e+01
      vertex  3.750000e+01  5.000000e+00  2.500000e+01
    endloop
  endfacet
  facet normal  0.000000e+00 -1.000000e+00  0.000000e+00
    outer loop
      vertex  3.750000e+01 -5.000000e+00  2.500000e+01
      vertex  7.500000e+01 -5.000000e+00  2.500000e+01
      vertex  3.750000e+01 -5.000000e+00  5.000000e+01
    endloop
  endfacet
  facet normal  5.547002e-01  0.000000e+00  8.320503e-01
    outer loop
      vertex  7.500000e+01  5.000000e+00  2.500000e+01
      vertex  3.750000e+01  5.000000e+00  5.000000e+01
      vertex  7.500000e+01 -5.000000e+00  2.500000e+01
    endloop
  endfacet
  facet normal  5.547002e-01  0.000000e+00  8.320503e-01
    outer loop
      vertex  7.500000e+01 -5.000000e+00  2.500000e+01
      vertex  3.750000e+01  5.000000e+00  5.000000e+01
      vertex  3.750000e+01 -5.000000e+00  5.000000e+01
    endloop
  endfacet
  facet normal  1.000000e+00  0.000000e+00  0.000000e+00
    outer loop
      vertex  3.750000e+01 -5.000000e+00  2.500000e+01
      vertex  3.750000e+01 -5.000000e+00  5.000000e+01
      vertex  3.750000e+01 -2.500000e+01  2.500000e+01
    endloop
  endfacet
  facet normal  1.000000e+00  0.000000e+00  0.000000e+00
    outer loop
      vertex  3.750000e+01 -2.500000e+01  2.500000e+01
      vertex  3.750000e+01 -5.000000e+00  5.000000e+01
      vertex  3.750000e+01 -2.500000e+01  5.000000e+01
    endloop
  endfacet
  facet normal  1.000000e+00  0.000000e+00  0.000000e+00
    outer loop
      vertex  3.750000e+01  2.500000e+01  2.500000e+01
      vertex  3.750000e+01  2.500000e+01  5.000000e+01
      vertex  3.750000e+01  5.000000e+00  2.500000e+01
    endloop
  endfacet
  facet normal  1.000000e+00  0.000000e+00  0.000000e+00
    outer loop
      vertex  3.750000e+01  5.000000e+00  2.500000e+01
      vertex  3.750000e+01  2.500000e+01  5.000000e+01
      vertex  3.750000e+01  5.000000e+00  5.000000e+01
    endloop
  endfacet
  facet normal  0.000000e+00  1.000000e+00  0.000000e+00
    outer loop
      vertex  4.600000e+01 -2.650000e+01  3.552714e-15
      vertex  4.600000e+01 -2.650000e+01  2.500000e+01
      vertex  6.400000e+01 -2.650000e+01  3.552714e-15
    endloop
  endfacet
  facet normal  0.000000e+00  1.000000e+00  -0.000000e+00
    outer loop
      vertex  6.400000e+01 -2.650000e+01  3.552714e-15
      vertex  4.600000e+01 -2.650000e+01  2.500000e+01
      vertex  6.400000e+01 -2.650000e+01  2.500000e+01
    endloop
  endfacet
  facet normal -1.000000e+00  0.000000e+00  0.000000e+00
    outer loop
      vertex  6.400000e+01 -2.650000e+01  3.552714e-15
      vertex  6.400000e+01 -2.650000e+01  2.500000e+01
      vertex  6.400000e+01 -1.650000e+01  3.552714e-15
    endloop
  endfacet
  facet normal -1.000000e+00  0.000000e+00  0.000000e+00
    outer loop
      vertex  6.400000e+01 -1.650000e+01  3.552714e-15
      vertex  6.400000e+01 -2.650000e+01  2.500000e+01
      vertex  6.400000e+01 -1.650000e+01  2.500000e+01
    endloop
  endfacet
  facet normal  0.000000e+00 -1.000000e+00  -0.000000e+00
    outer loop
      vertex  6.400000e+01 -1.650000e+01  3.552714e-15
      vertex  6.400000e+01 -1.650000e+01  2.500000e+01
      vertex  4.600000e+01 -1.650000e+01  3.552714e-15
    endloop
  endfacet
  facet normal  0.000000e+00 -1.000000e+00  0.000000e+00
    outer loop
      vertex  4.600000e+01 -1.650000e+01  3.552714e-15
      vertex  6.400000e+01 -1.650000e+01  2.500000e+01
      vertex  4.600000e+01 -1.650000e+01  2.500000e+01
    endloop
  endfacet
  facet normal  1.000000e+00  0.000000e+00  0.000000e+00
    outer loop
      vertex  4.600000e+01 -1.650000e+01  3.552714e-15
      vertex  4.600000e+01 -1.650000e+01  2.500000e+01
      vertex  4.600000e+01 -2.650000e+01  3.552714e-15
    endloop
  endfacet
  facet normal  1.000000e+00  0.000000e+00  0.000000e+00
    outer loop
      vertex  4.600000e+01 -2.650000e+01  3.552714e-15
      vertex  4.600000e+01 -1.650000e+01  2.500000e+01
      vertex  4.600000e+01 -2.650000e+01  2.500000e+01
    endloop
  endfacet
  facet normal  0.000000e+00  1.000000e+00  0.000000e+00
    outer loop
      vertex -6.400000e+01 -2.650000e+01  3.552714e-15
      vertex -6.400000e+01 -2.650000e+01  2.500000e+01
      vertex -4.600000e+01 -2.650000e+01  3.552714e-15
    endloop
  endfacet
  facet normal  0.000000e+00  1.000000e+00  -0.000000e+00
    outer loop
      vertex -4.600000e+01 -2.650000e+01  3.552714e-15
      vertex -6.400000e+01 -2.650000e+01  2.500000e+01
      vertex -4.600000e+01 -2.650000e+01  2.500000e+01
    endloop
  endfacet
  facet normal -1.000000e+00  0.000000e+00  0.000000e+00
    outer loop
      vertex -4.600000e+01 -1.650000e+01  3.552714e-15
      vertex -4.600000e+01 -2.650000e+01  3.552714e-15
      vertex -4.600000e+01 -1.650000e+01  2.500000e+01
    endloop
  endfacet
  facet normal -1.000000e+00  -0.000000e+00  0.000000e+00
    outer loop
      vertex -4.600000e+01 -1.650000e+01  2.500000e+01
      vertex -4.600000e+01 -2.650000e+01  3.552714e-15
      vertex -4.600000e+01 -2.650000e+01  2.500000e+01
    endloop
  endfacet
  facet normal  0.000000e+00 -1.000000e+00  -0.000000e+00
    outer loop
      vertex -4.600000e+01 -1.650000e+01  3.552714e-15
      vertex -4.600000e+01 -1.650000e+01  2.500000e+01
      vertex -6.400000e+01 -1.650000e+01  3.552714e-15
    endloop
  endfacet
  facet normal  0.000000e+00 -1.000000e+00  0.000000e+00
    outer loop
      vertex -6.400000e+01 -1.650000e+01  3.552714e-15
      vertex -4.600000e+01 -1.650000e+01  2.500000e+01
      vertex -6.400000e+01 -1.650000e+01  2.500000e+01
    endloop
  endfacet
  facet normal  1.000000e+00  0.000000e+00  0.000000e+00
    outer loop
      vertex -6.400000e+01 -2.650000e+01  3.552714e-15
      vertex -6.400000e+01 -1.650000e+01  3.552714e-15
      vertex -6.400000e+01 -2.650000e+01  2.500000e+01
    endloop
  endfacet
  facet normal  1.000000e+00  -0.000000e+00  0.000000e+00
    outer loop
      vertex -6.400000e+01 -2.650000e+01  2.500000e+01
      vertex -6.400000e+01 -1.650000e+01  3.552714e-15
      vertex -6.400000e+01 -1.650000e+01  2.500000e+01
    endloop
  endfacet
  facet normal -1.000000e+00  0.000000e+00  0.000000e+00
    outer loop
      vertex  6.400000e+01  1.650000e+01  3.552714e-15
      vertex  6.400000e+01  1.650000e+01  2.500000e+01
      vertex  6.400000e+01  2.650000e+01  3.552714e-15
    endloop
  endfacet
  facet normal -1.000000e+00  0.000000e+00  0.000000e+00
    outer loop
      vertex  6.400000e+01  2.650000e+01  3.552714e-15
      vertex  6.400000e+01  1.650000e+01  2.500000e+01
      vertex  6.400000e+01  2.650000e+01  2.500000e+01
    endloop
  endfacet
  facet normal  0.000000e+00 -1.000000e+00  0.000000e+00
    outer loop
      vertex  4.600000e+01  2.650000e+01  3.552714e-15
      vertex  6.400000e+01  2.650000e+01  3.552714e-15
      vertex  4.600000e+01  2.650000e+01  2.500000e+01
    endloop
  endfacet
  facet normal  0.000000e+00 -1.000000e+00  0.000000e+00
    outer loop
      vertex  4.600000e+01  2.650000e+01  2.500000e+01
      vertex  6.400000e+01  2.650000e+01  3.552714e-15
      vertex  6.400000e+01  2.650000e+01  2.500000e+01
    endloop
  endfacet
  facet normal  1.000000e+00  0.000000e+00  0.000000e+00
    outer loop
      vertex  4.600000e+01  2.650000e+01  3.552714e-15
      vertex  4.600000e+01  2.650000e+01  2.500000e+01
      vertex  4.600000e+01  1.650000e+01  3.552714e-15
    endloop
  endfacet
  facet normal  1.000000e+00  0.000000e+00  0.000000e+00
    outer loop
      vertex  4.600000e+01  1.650000e+01  3.552714e-15
      vertex  4.600000e+01  2.650000e+01  2.500000e+01
      vertex  4.600000e+01  1.650000e+01  2.500000e+01
    endloop
  endfacet
  facet normal  0.000000e+00  1.000000e+00  0.000000e+00
    outer loop
      vertex  6.400000e+01  1.650000e+01  3.552714e-15
      vertex  4.600000e+01  1.650000e+01  3.552714e-15
      vertex  6.400000e+01  1.650000e+01  2.500000e+01
    endloop
  endfacet
  facet normal  0.000000e+00  1.000000e+00  0.000000e+00
    outer loop
      vertex  6.400000e+01  1.650000e+01  2.500000e+01
      vertex  4.600000e+01  1.650000e+01  3.552714e-15
      vertex  4.600000e+01  1.650000e+01  2.500000e+01
    endloop
  endfacet
  facet normal  0.000000e+00 -1.000000e+00  0.000000e+00
    outer loop
      vertex -6.400000e+01  2.650000e+01  3.552714e-15
      vertex -4.600000e+01  2.650000e+01  3.552714e-15
      vertex -6.400000e+01  2.650000e+01  2.500000e+01
    endloop
  endfacet
  facet normal  0.000000e+00 -1.000000e+00  0.000000e+00
    outer loop
      vertex -6.400000e+01  2.650000e+01  2.500000e+01
      vertex -4.600000e+01  2.650000e+01  3.552714e-15
      vertex -4.600000e+01  2.650000e+01  2.500000e+01
    endloop
  endfacet
  facet normal  1.000000e+00  0.000000e+00  0.000000e+00
    outer loop
      vertex -6.400000e+01  1.650000e+01  3.552714e-15
      vertex -6.400000e+01  2.650000e+01  3.552714e-15
      vertex -6.400000e+01  1.650000e+01  2.500000e+01
    endloop
  endfacet
  facet normal  1.000000e+00  -0.000000e+00  0.000000e+00
    outer loop
      vertex -6.400000e+01  1.650000e+01  2.500000e+01
      vertex -6.400000e+01  2.650000e+01  3.552714e-15
      vertex -6.400000e+01  2.650000e+01  2.500000e+01
    endloop
  endfacet
  facet normal  0.000000e+00  1.000000e+00  0.000000e+00
    outer loop
      vertex -4.600000e+01  1.650000e+01  3.552714e-15
      vertex -6.400000e+01  1.650000e+01  3.552714e-15
      vertex -4.600000e+01  1.650000e+01  2.500000e+01
    endloop
  endfacet
  facet normal  0.000000e+00  1.000000e+00  0.000000e+00
    outer loop
      vertex -4.600000e+01  1.650000e+01  2.500000e+01
      vertex -6.400000e+01  1.650000e+01  3.552714e-15
      vertex -6.400000e+01  1.650000e+01  2.500000e+01
    endloop
  endfacet
  facet normal -1.000000e+00  0.000000e+00  0.000000e+00
    outer loop
      vertex -4.600000e+01  2.650000e+01  3.552714e-15
      vertex -4.600000e+01  1.650000e+01  3.552714e-15
      vertex -4.600000e+01  2.650000e+01  2.500000e+01
    endloop
  endfacet
  facet normal -1.000000e+00  -0.000000e+00  0.000000e+00
    outer loop
      vertex -4.600000e+01  2.650000e+01  2.500000e+01
      vertex -4.600000e+01  1.650000e+01  3.552714e-15
      vertex -4.600000e+01  1.650000e+01  2.500000e+01
    endloop
  endfacet
  facet normal  0.000000e+00  1.000000e+00  0.000000e+00
    outer loop
      vertex  2.500000e+01 -1.200000e+01  3.000000e+01
      vertex -2.500000e+01 -1.200000e+01  3.000000e+01
      vertex  2.500000e+01 -1.200000e+01  5.000000e+01
    endloop
  endfacet
  facet normal  0.000000e+00  1.000000e+00  0.000000e+00
    outer loop
      vertex  2.500000e+01 -1.200000e+01  5.000000e+01
      vertex -2.500000e+01 -1.200000e+01  3.000000e+01
      vertex -2.500000e+01 -1.200000e+01  5.000000e+01
    endloop
  endfacet
  facet normal  0.000000e+00 -1.000000e+00  0.000000e+00
    outer loop
      vertex -2.500000e+01  1.200000e+01  3.000000e+01
      vertex  2.500000e+01  1.200000e+01  3.000000e+01
      vertex -2.500000e+01  1.200000e+01  5.000000e+01
    endloop
  endfacet
  facet normal  0.000000e+00 -1.000000e+00  0.000000e+00
    outer loop
      vertex -2.500000e+01  1.200000e+01  5.000000e+01
      vertex  2.500000e+01  1.200000e+01  3.000000e+01
      vertex  2.500000e+01  1.200000e+01  5.000000e+01
    endloop
  endfacet
  facet normal  0.000000e+00  1.000000e+00  0.000000e+00
    outer loop
      vertex -3.750000e+01  2.500000e+01  5.000000e+01
      vertex  3.750000e+01  2.500000e+01  5.000000e+01
      vertex -3.750000e+01  2.500000e+01  2.500000e+01
    endloop
  endfacet
  facet normal  0.000000e+00  1.000000e+00  0.000000e+00
    outer loop
      vertex -3.750000e+01  2.500000e+01  2.500000e+01
      vertex  3.750000e+01  2.500000e+01  5.000000e+01
      vertex  3.750000e+01  2.500000e+01  2.500000e+01
    endloop
  endfacet
  facet normal  0.000000e+00 -1.000000e+00  0.000000e+00
    outer loop
      vertex  3.750000e+01 -2.500000e+01  5.000000e+01
      vertex -3.750000e+01 -2.500000e+01  5.000000e+01
      vertex  3.750000e+01 -2.500000e+01  2.500000e+01
    endloop
  endfacet
  facet normal  0.000000e+00 -1.000000e+00  0.000000e+00
    outer loop
      vertex  3.750000e+01 -2.500000e+01  2.500000e+01
      vertex -3.750000e+01 -2.500000e+01  5.000000e+01
      vertex -3.750000e+01 -2.500000e+01  2.500000e+01
    endloop
  endfacet
  facet normal  0.000000e+00 -1.000000e+00  0.000000e+00
    outer loop
      vertex  7.500000e+01 -3.750000e+01  2.500000e+01
      vertex -7.500000e+01 -3.750000e+01  2.500000e+01
      vertex  7.500000e+01 -3.750000e+01  0.000000e+00
    endloop
  endfacet
  facet normal  0.000000e+00 -1.000000e+00  0.000000e+00
    outer loop
      vertex  7.500000e+01 -3.750000e+01  0.000000e+00
      vertex -7.500000e+01 -3.750000e+01  2.500000e+01
      vertex -7.500000e+01 -3.750000e+01  0.000000e+00
    endloop
  endfacet
  facet normal  0.000000e+00  1.000000e+00  0.000000e+00
    outer loop
      vertex -7.500000e+01  3.750000e+01  2.500000e+01
      vertex  7.500000e+01  3.750000e+01  2.500000e+01
      vertex -7.500000e+01  3.750000e+01  0.000000e+00
    endloop
  endfacet
  facet normal  0.000000e+00  1.000000e+00  0.000000e+00
    outer loop
      vertex -7.500000e+01  3.750000e+01  0.000000e+00
      vertex  7.500000e+01  3.750000e+01  2.500000e+01
      vertex  7.500000e+01  3.750000e+01  0.000000e+00
    endloop
  endfacet
endsolid CATIA STL
