solid CATIA STL
  facet normal  -0.000000e+00  0.000000e+00  1.000000e+00
    outer loop
      vertex  2.500000e+01  1.300000e+02  6.000000e+01
      vertex -2.500000e+01  1.300000e+02  6.000000e+01
      vertex  3.826834e+00  1.092388e+02  6.000000e+01
    endloop
  endfacet
  facet normal  -0.000000e+00  0.000000e+00  1.000000e+00
    outer loop
      vertex  2.500000e+01  1.300000e+02  6.000000e+01
      vertex  3.826834e+00  1.092388e+02  6.000000e+01
      vertex  7.071068e+00  1.070711e+02  6.000000e+01
    endloop
  endfacet
  facet normal  -0.000000e+00  0.000000e+00  1.000000e+00
    outer loop
      vertex  2.500000e+01  1.300000e+02  6.000000e+01
      vertex  7.071068e+00  1.070711e+02  6.000000e+01
      vertex  9.238795e+00  1.038268e+02  6.000000e+01
    endloop
  endfacet
  facet normal  -0.000000e+00  0.000000e+00  1.000000e+00
    outer loop
      vertex  2.500000e+01  1.300000e+02  6.000000e+01
      vertex  9.238795e+00  1.038268e+02  6.000000e+01
      vertex  2.500000e+01  7.000000e+01  6.000000e+01
    endloop
  endfacet
  facet normal  0.000000e+00  -0.000000e+00  1.000000e+00
    outer loop
      vertex -2.500000e+01  7.000000e+01  6.000000e+01
      vertex -1.500000e+01  7.000000e+01  6.000000e+01
      vertex -1.836970e-15  9.000000e+01  6.000000e+01
    endloop
  endfacet
  facet normal  0.000000e+00  0.000000e+00  1.000000e+00
    outer loop
      vertex -2.500000e+01  7.000000e+01  6.000000e+01
      vertex -1.836970e-15  9.000000e+01  6.000000e+01
      vertex -3.826834e+00  9.076121e+01  6.000000e+01
    endloop
  endfacet
  facet normal  0.000000e+00  0.000000e+00  1.000000e+00
    outer loop
      vertex -2.500000e+01  7.000000e+01  6.000000e+01
      vertex -3.826834e+00  9.076121e+01  6.000000e+01
      vertex -7.071068e+00  9.292893e+01  6.000000e+01
    endloop
  endfacet
  facet normal  0.000000e+00  0.000000e+00  1.000000e+00
    outer loop
      vertex -2.500000e+01  7.000000e+01  6.000000e+01
      vertex -7.071068e+00  9.292893e+01  6.000000e+01
      vertex -9.238795e+00  9.617316e+01  6.000000e+01
    endloop
  endfacet
  facet normal  0.000000e+00  0.000000e+00  1.000000e+00
    outer loop
      vertex -2.500000e+01  7.000000e+01  6.000000e+01
      vertex -9.238795e+00  9.617316e+01  6.000000e+01
      vertex -1.000000e+01  1.000000e+02  6.000000e+01
    endloop
  endfacet
  facet normal  0.000000e+00  -0.000000e+00  1.000000e+00
    outer loop
      vertex -2.500000e+01  7.000000e+01  6.000000e+01
      vertex -1.000000e+01  1.000000e+02  6.000000e+01
      vertex -9.238795e+00  1.038268e+02  6.000000e+01
    endloop
  endfacet
  facet normal  0.000000e+00  0.000000e+00  1.000000e+00
    outer loop
      vertex -2.500000e+01  1.300000e+02  6.000000e+01
      vertex -2.500000e+01  7.000000e+01  6.000000e+01
      vertex -9.238795e+00  1.038268e+02  6.000000e+01
    endloop
  endfacet
  facet normal  0.000000e+00  -0.000000e+00  1.000000e+00
    outer loop
      vertex -2.500000e+01  1.300000e+02  6.000000e+01
      vertex -9.238795e+00  1.038268e+02  6.000000e+01
      vertex -7.071068e+00  1.070711e+02  6.000000e+01
    endloop
  endfacet
  facet normal  0.000000e+00  -0.000000e+00  1.000000e+00
    outer loop
      vertex -2.500000e+01  1.300000e+02  6.000000e+01
      vertex -7.071068e+00  1.070711e+02  6.000000e+01
      vertex -3.826834e+00  1.092388e+02  6.000000e+01
    endloop
  endfacet
  facet normal  0.000000e+00  -0.000000e+00  1.000000e+00
    outer loop
      vertex -2.500000e+01  1.300000e+02  6.000000e+01
      vertex -3.826834e+00  1.092388e+02  6.000000e+01
      vertex  6.123234e-16  1.100000e+02  6.000000e+01
    endloop
  endfacet
  facet normal  -0.000000e+00  -0.000000e+00  1.000000e+00
    outer loop
      vertex -2.500000e+01  1.300000e+02  6.000000e+01
      vertex  6.123234e-16  1.100000e+02  6.000000e+01
      vertex  3.826834e+00  1.092388e+02  6.000000e+01
    endloop
  endfacet
  facet normal  0.000000e+00  0.000000e+00  1.000000e+00
    outer loop
      vertex  2.500000e+01  7.000000e+01  6.000000e+01
      vertex  9.238795e+00  1.038268e+02  6.000000e+01
      vertex  1.000000e+01  1.000000e+02  6.000000e+01
    endloop
  endfacet
  facet normal  0.000000e+00  0.000000e+00  1.000000e+00
    outer loop
      vertex  2.500000e+01  7.000000e+01  6.000000e+01
      vertex  1.000000e+01  1.000000e+02  6.000000e+01
      vertex  9.238795e+00  9.617316e+01  6.000000e+01
    endloop
  endfacet
  facet normal  0.000000e+00  0.000000e+00  1.000000e+00
    outer loop
      vertex  2.500000e+01  7.000000e+01  6.000000e+01
      vertex  9.238795e+00  9.617316e+01  6.000000e+01
      vertex  7.071068e+00  9.292893e+01  6.000000e+01
    endloop
  endfacet
  facet normal  0.000000e+00  0.000000e+00  1.000000e+00
    outer loop
      vertex  2.500000e+01  7.000000e+01  6.000000e+01
      vertex  7.071068e+00  9.292893e+01  6.000000e+01
      vertex  3.826834e+00  9.076121e+01  6.000000e+01
    endloop
  endfacet
  facet normal  0.000000e+00  0.000000e+00  1.000000e+00
    outer loop
      vertex  2.500000e+01  7.000000e+01  6.000000e+01
      vertex  3.826834e+00  9.076121e+01  6.000000e+01
      vertex -1.836970e-15  9.000000e+01  6.000000e+01
    endloop
  endfacet
  facet normal  0.000000e+00  0.000000e+00  1.000000e+00
    outer loop
      vertex  2.500000e+01  7.000000e+01  6.000000e+01
      vertex -1.836970e-15  9.000000e+01  6.000000e+01
      vertex  1.500000e+01  7.000000e+01  6.000000e+01
    endloop
  endfacet
  facet normal  0.000000e+00  0.000000e+00  1.000000e+00
    outer loop
      vertex -1.500000e+01  7.000000e+01  6.000000e+01
      vertex -1.500000e+01  0.000000e+00  6.000000e+01
      vertex -1.836970e-15  9.000000e+01  6.000000e+01
    endloop
  endfacet
  facet normal  0.000000e+00  0.000000e+00  1.000000e+00
    outer loop
      vertex -1.836970e-15  9.000000e+01  6.000000e+01
      vertex -1.500000e+01  0.000000e+00  6.000000e+01
      vertex  1.500000e+01  1.421085e-14  6.000000e+01
    endloop
  endfacet
  facet normal  0.000000e+00  -0.000000e+00  1.000000e+00
    outer loop
      vertex -1.836970e-15  9.000000e+01  6.000000e+01
      vertex  1.500000e+01  1.421085e-14  6.000000e+01
      vertex  1.500000e+01  7.000000e+01  6.000000e+01
    endloop
  endfacet
  facet normal  1.000000e+00  0.000000e+00  0.000000e+00
    outer loop
      vertex -1.500000e+01  7.000000e+01  6.000000e+01
      vertex -1.500000e+01  3.000000e+01  8.000000e+01
      vertex -1.500000e+01  0.000000e+00  6.000000e+01
    endloop
  endfacet
  facet normal  1.000000e+00  0.000000e+00  0.000000e+00
    outer loop
      vertex -1.500000e+01  0.000000e+00  6.000000e+01
      vertex -1.500000e+01  3.000000e+01  8.000000e+01
      vertex -1.500000e+01  0.000000e+00  8.000000e+01
    endloop
  endfacet
  facet normal -1.000000e+00  0.000000e+00  0.000000e+00
    outer loop
      vertex  1.500000e+01  1.421085e-14  6.000000e+01
      vertex  1.500000e+01  1.421085e-14  8.000000e+01
      vertex  1.500000e+01  7.000000e+01  6.000000e+01
    endloop
  endfacet
  facet normal -1.000000e+00  0.000000e+00  0.000000e+00
    outer loop
      vertex  1.500000e+01  7.000000e+01  6.000000e+01
      vertex  1.500000e+01  1.421085e-14  8.000000e+01
      vertex  1.500000e+01  3.000000e+01  8.000000e+01
    endloop
  endfacet
  facet normal  0.000000e+00  4.472136e-01  8.944272e-01
    outer loop
      vertex  1.500000e+01  3.000000e+01  8.000000e+01
      vertex  2.500000e+01  7.000000e+01  6.000000e+01
      vertex  1.500000e+01  7.000000e+01  6.000000e+01
    endloop
  endfacet
  facet normal  0.000000e+00  4.472136e-01  8.944272e-01
    outer loop
      vertex -1.500000e+01  3.000000e+01  8.000000e+01
      vertex -1.500000e+01  7.000000e+01  6.000000e+01
      vertex -5.000000e+01  3.000000e+01  8.000000e+01
    endloop
  endfacet
  facet normal  0.000000e+00  4.472136e-01  8.944272e-01
    outer loop
      vertex -5.000000e+01  3.000000e+01  8.000000e+01
      vertex -1.500000e+01  7.000000e+01  6.000000e+01
      vertex -2.500000e+01  7.000000e+01  6.000000e+01
    endloop
  endfacet
  facet normal  0.000000e+00  4.472136e-01  8.944271e-01
    outer loop
      vertex -5.000000e+01  3.000000e+01  8.000000e+01
      vertex -2.500000e+01  7.000000e+01  6.000000e+01
      vertex -5.000000e+01  1.500000e+02  2.000000e+01
    endloop
  endfacet
  facet normal  0.000000e+00  4.472136e-01  8.944271e-01
    outer loop
      vertex -5.000000e+01  1.500000e+02  2.000000e+01
      vertex -2.500000e+01  7.000000e+01  6.000000e+01
      vertex -2.500000e+01  1.300000e+02  3.000000e+01
    endloop
  endfacet
  facet normal  0.000000e+00  4.472136e-01  8.944272e-01
    outer loop
      vertex -5.000000e+01  1.500000e+02  2.000000e+01
      vertex -2.500000e+01  1.300000e+02  3.000000e+01
      vertex  5.000000e+01  1.500000e+02  2.000000e+01
    endloop
  endfacet
  facet normal  0.000000e+00  4.472136e-01  8.944272e-01
    outer loop
      vertex  5.000000e+01  1.500000e+02  2.000000e+01
      vertex -2.500000e+01  1.300000e+02  3.000000e+01
      vertex  2.500000e+01  1.300000e+02  3.000000e+01
    endloop
  endfacet
  facet normal  0.000000e+00  4.472136e-01  8.944271e-01
    outer loop
      vertex  5.000000e+01  1.500000e+02  2.000000e+01
      vertex  2.500000e+01  1.300000e+02  3.000000e+01
      vertex  5.000000e+01  1.200000e+02  3.500000e+01
    endloop
  endfacet
  facet normal  0.000000e+00  4.472136e-01  8.944272e-01
    outer loop
      vertex  5.000000e+01  1.200000e+02  3.500000e+01
      vertex  2.500000e+01  1.300000e+02  3.000000e+01
      vertex  3.500000e+01  1.200000e+02  3.500000e+01
    endloop
  endfacet
  facet normal  0.000000e+00  4.472136e-01  8.944272e-01
    outer loop
      vertex  1.500000e+01  3.000000e+01  8.000000e+01
      vertex  5.000000e+01  3.000000e+01  8.000000e+01
      vertex  2.500000e+01  7.000000e+01  6.000000e+01
    endloop
  endfacet
  facet normal  0.000000e+00  4.472136e-01  8.944272e-01
    outer loop
      vertex  2.500000e+01  7.000000e+01  6.000000e+01
      vertex  5.000000e+01  3.000000e+01  8.000000e+01
      vertex  5.000000e+01  8.000000e+01  5.500000e+01
    endloop
  endfacet
  facet normal  0.000000e+00  4.472136e-01  8.944272e-01
    outer loop
      vertex  2.500000e+01  7.000000e+01  6.000000e+01
      vertex  5.000000e+01  8.000000e+01  5.500000e+01
      vertex  3.500000e+01  8.000000e+01  5.500000e+01
    endloop
  endfacet
  facet normal  0.000000e+00  4.472136e-01  8.944272e-01
    outer loop
      vertex  3.500000e+01  1.200000e+02  3.500000e+01
      vertex  2.500000e+01  1.300000e+02  3.000000e+01
      vertex  3.500000e+01  8.000000e+01  5.500000e+01
    endloop
  endfacet
  facet normal  0.000000e+00  4.472136e-01  8.944272e-01
    outer loop
      vertex  3.500000e+01  8.000000e+01  5.500000e+01
      vertex  2.500000e+01  1.300000e+02  3.000000e+01
      vertex  2.500000e+01  7.000000e+01  6.000000e+01
    endloop
  endfacet
  facet normal  0.000000e+00  0.000000e+00  1.000000e+00
    outer loop
      vertex  1.500000e+01  3.000000e+01  8.000000e+01
      vertex  1.500000e+01  1.421085e-14  8.000000e+01
      vertex  5.000000e+01  3.000000e+01  8.000000e+01
    endloop
  endfacet
  facet normal  0.000000e+00  0.000000e+00  1.000000e+00
    outer loop
      vertex  5.000000e+01  3.000000e+01  8.000000e+01
      vertex  1.500000e+01  1.421085e-14  8.000000e+01
      vertex  5.000000e+01 -7.105427e-15  8.000000e+01
    endloop
  endfacet
  facet normal  0.000000e+00  0.000000e+00  1.000000e+00
    outer loop
      vertex -5.000000e+01  3.000000e+01  8.000000e+01
      vertex -5.000000e+01 -7.105427e-15  8.000000e+01
      vertex -1.500000e+01  3.000000e+01  8.000000e+01
    endloop
  endfacet
  facet normal  0.000000e+00  0.000000e+00  1.000000e+00
    outer loop
      vertex -1.500000e+01  3.000000e+01  8.000000e+01
      vertex -5.000000e+01 -7.105427e-15  8.000000e+01
      vertex -1.500000e+01  0.000000e+00  8.000000e+01
    endloop
  endfacet
  facet normal  0.000000e+00 -1.000000e+00  3.552714e-16
    outer loop
      vertex -5.000000e+01 -7.105427e-15  0.000000e+00
      vertex  3.500000e+01 -7.105427e-15  0.000000e+00
      vertex  1.500000e+01  1.421085e-14  6.000000e+01
    endloop
  endfacet
  facet normal  4.736952e-16 -1.000000e+00 -1.578984e-16
    outer loop
      vertex -5.000000e+01 -7.105427e-15  0.000000e+00
      vertex  1.500000e+01  1.421085e-14  6.000000e+01
      vertex -1.500000e+01  0.000000e+00  6.000000e+01
    endloop
  endfacet
  facet normal  2.030122e-16 -1.000000e+00  0.000000e+00
    outer loop
      vertex -5.000000e+01 -7.105427e-15  0.000000e+00
      vertex -1.500000e+01  0.000000e+00  6.000000e+01
      vertex -1.500000e+01  0.000000e+00  8.000000e+01
    endloop
  endfacet
  facet normal  2.030122e-16 -1.000000e+00  0.000000e+00
    outer loop
      vertex -5.000000e+01 -7.105427e-15  0.000000e+00
      vertex -1.500000e+01  0.000000e+00  8.000000e+01
      vertex -5.000000e+01 -7.105427e-15  8.000000e+01
    endloop
  endfacet
  facet normal -1.065814e-15 -1.000000e+00  0.000000e+00
    outer loop
      vertex  1.500000e+01  1.421085e-14  8.000000e+01
      vertex  1.500000e+01  1.421085e-14  6.000000e+01
      vertex  3.500000e+01 -7.105427e-15  0.000000e+00
    endloop
  endfacet
  facet normal -2.524506e-16 -1.000000e+00  2.033409e-16
    outer loop
      vertex  1.500000e+01  1.421085e-14  8.000000e+01
      vertex  3.500000e+01 -7.105427e-15  0.000000e+00
      vertex  3.500000e+01  3.061617e-15  5.000000e+01
    endloop
  endfacet
  facet normal -6.778030e-16 -1.000000e+00 -8.022738e-17
    outer loop
      vertex  1.500000e+01  1.421085e-14  8.000000e+01
      vertex  3.500000e+01  3.061617e-15  5.000000e+01
      vertex  5.000000e+01 -7.105427e-15  5.000000e+01
    endloop
  endfacet
  facet normal -6.090366e-16 -1.000000e+00  0.000000e+00
    outer loop
      vertex  1.500000e+01  1.421085e-14  8.000000e+01
      vertex  5.000000e+01 -7.105427e-15  5.000000e+01
      vertex  5.000000e+01 -7.105427e-15  8.000000e+01
    endloop
  endfacet
  facet normal -1.766749e-16  3.514280e-17 -9.999999e-01
    outer loop
      vertex -5.000000e+01 -7.105427e-15  0.000000e+00
      vertex -9.238795e+00  1.038268e+02 -3.552714e-15
      vertex -1.000000e+01  1.000000e+02 -3.552714e-15
    endloop
  endfacet
  facet normal -5.931943e-17 -1.179937e-17 -1.000000e+00
    outer loop
      vertex -5.000000e+01 -7.105427e-15  0.000000e+00
      vertex -1.000000e+01  1.000000e+02 -3.552714e-15
      vertex -9.238795e+00  9.617316e+01 -3.552714e-15
    endloop
  endfacet
  facet normal -3.382826e-17 -2.260333e-17 -9.999999e-01
    outer loop
      vertex -5.000000e+01 -7.105427e-15  0.000000e+00
      vertex -9.238795e+00  9.617316e+01 -3.552714e-15
      vertex -7.071068e+00  9.292893e+01 -3.552714e-15
    endloop
  endfacet
  facet normal -1.951964e-17 -2.921325e-17 -1.000000e+00
    outer loop
      vertex -5.000000e+01 -7.105427e-15  0.000000e+00
      vertex -7.071068e+00  9.292893e+01 -3.552714e-15
      vertex -3.826834e+00  9.076121e+01 -3.552714e-15
    endloop
  endfacet
  facet normal -7.070656e-18 -3.554645e-17 -1.000000e+00
    outer loop
      vertex -5.000000e+01 -7.105427e-15  0.000000e+00
      vertex -3.826834e+00  9.076121e+01 -3.552714e-15
      vertex  1.224647e-15  9.000000e+01 -3.552714e-15
    endloop
  endfacet
  facet normal  3.449237e-17 -5.863702e-17 -1.000000e+00
    outer loop
      vertex -5.000000e+01 -7.105427e-15  0.000000e+00
      vertex  1.224647e-15  9.000000e+01 -3.552714e-15
      vertex  3.500000e+01  5.000000e+01  0.000000e+00
    endloop
  endfacet
  facet normal  0.000000e+00  -0.000000e+00 -1.000000e+00
    outer loop
      vertex -5.000000e+01 -7.105427e-15  0.000000e+00
      vertex  3.500000e+01  5.000000e+01  0.000000e+00
      vertex  3.500000e+01 -7.105427e-15  0.000000e+00
    endloop
  endfacet
  facet normal  -0.000000e+00  -0.000000e+00 -1.000000e+00
    outer loop
      vertex -5.000000e+01  1.500000e+02 -3.552714e-15
      vertex  5.000000e+01  1.500000e+02 -3.552714e-15
      vertex  5.000000e+01  1.200000e+02 -3.552714e-15
    endloop
  endfacet
  facet normal  0.000000e+00  0.000000e+00 -1.000000e+00
    outer loop
      vertex -5.000000e+01  1.500000e+02 -3.552714e-15
      vertex  5.000000e+01  1.200000e+02 -3.552714e-15
      vertex  3.500000e+01  1.200000e+02 -3.552714e-15
    endloop
  endfacet
  facet normal  -0.000000e+00  0.000000e+00 -9.999999e-01
    outer loop
      vertex -5.000000e+01  1.500000e+02 -3.552714e-15
      vertex  3.500000e+01  1.200000e+02 -3.552714e-15
      vertex -2.449294e-15  1.100000e+02 -3.552714e-15
    endloop
  endfacet
  facet normal  -0.000000e+00  0.000000e+00 -1.000000e+00
    outer loop
      vertex -5.000000e+01  1.500000e+02 -3.552714e-15
      vertex -2.449294e-15  1.100000e+02 -3.552714e-15
      vertex -3.826834e+00  1.092388e+02 -3.552714e-15
    endloop
  endfacet
  facet normal  -0.000000e+00  0.000000e+00 -1.000000e+00
    outer loop
      vertex -5.000000e+01  1.500000e+02 -3.552714e-15
      vertex -3.826834e+00  1.092388e+02 -3.552714e-15
      vertex -7.071068e+00  1.070711e+02 -3.552714e-15
    endloop
  endfacet
  facet normal  -0.000000e+00  0.000000e+00 -1.000000e+00
    outer loop
      vertex -5.000000e+01  1.500000e+02 -3.552714e-15
      vertex -7.071068e+00  1.070711e+02 -3.552714e-15
      vertex -9.238795e+00  1.038268e+02 -3.552714e-15
    endloop
  endfacet
  facet normal -2.682944e-17 -2.368476e-17 -1.000000e+00
    outer loop
      vertex -5.000000e+01  1.500000e+02 -3.552714e-15
      vertex -9.238795e+00  1.038268e+02 -3.552714e-15
      vertex -5.000000e+01 -7.105427e-15  0.000000e+00
    endloop
  endfacet
  facet normal  -0.000000e+00  -0.000000e+00 -1.000000e+00
    outer loop
      vertex  3.500000e+01  8.000000e+01 -3.552714e-15
      vertex  5.000000e+01  8.000000e+01 -3.552714e-15
      vertex  5.000000e+01  5.000000e+01 -3.552714e-15
    endloop
  endfacet
  facet normal -2.368476e-16 -1.184238e-16 -1.000000e+00
    outer loop
      vertex  3.500000e+01  8.000000e+01 -3.552714e-15
      vertex  5.000000e+01  5.000000e+01 -3.552714e-15
      vertex  3.500000e+01  5.000000e+01  0.000000e+00
    endloop
  endfacet
  facet normal -3.383537e-17 -1.184238e-16 -1.000000e+00
    outer loop
      vertex  3.500000e+01  8.000000e+01 -3.552714e-15
      vertex  3.500000e+01  5.000000e+01  0.000000e+00
      vertex  1.224647e-15  9.000000e+01 -3.552714e-15
    endloop
  endfacet
  facet normal  0.000000e+00  0.000000e+00 -1.000000e+00
    outer loop
      vertex  3.500000e+01  8.000000e+01 -3.552714e-15
      vertex  1.224647e-15  9.000000e+01 -3.552714e-15
      vertex  3.826834e+00  9.076121e+01 -3.552714e-15
    endloop
  endfacet
  facet normal  0.000000e+00  0.000000e+00 -9.999999e-01
    outer loop
      vertex  3.500000e+01  8.000000e+01 -3.552714e-15
      vertex  3.826834e+00  9.076121e+01 -3.552714e-15
      vertex  7.071068e+00  9.292893e+01 -3.552714e-15
    endloop
  endfacet
  facet normal  0.000000e+00  0.000000e+00 -1.000000e+00
    outer loop
      vertex  3.500000e+01  8.000000e+01 -3.552714e-15
      vertex  7.071068e+00  9.292893e+01 -3.552714e-15
      vertex  9.238795e+00  9.617316e+01 -3.552714e-15
    endloop
  endfacet
  facet normal  0.000000e+00  0.000000e+00 -1.000000e+00
    outer loop
      vertex  3.500000e+01  8.000000e+01 -3.552714e-15
      vertex  9.238795e+00  9.617316e+01 -3.552714e-15
      vertex  1.000000e+01  1.000000e+02 -3.552714e-15
    endloop
  endfacet
  facet normal  0.000000e+00  0.000000e+00 -1.000000e+00
    outer loop
      vertex  3.500000e+01  8.000000e+01 -3.552714e-15
      vertex  1.000000e+01  1.000000e+02 -3.552714e-15
      vertex  9.238795e+00  1.038268e+02 -3.552714e-15
    endloop
  endfacet
  facet normal  0.000000e+00  0.000000e+00 -1.000000e+00
    outer loop
      vertex  3.500000e+01  8.000000e+01 -3.552714e-15
      vertex  9.238795e+00  1.038268e+02 -3.552714e-15
      vertex  7.071068e+00  1.070711e+02 -3.552714e-15
    endloop
  endfacet
  facet normal  0.000000e+00  0.000000e+00 -1.000000e+00
    outer loop
      vertex  3.500000e+01  1.200000e+02 -3.552714e-15
      vertex  3.500000e+01  8.000000e+01 -3.552714e-15
      vertex  7.071068e+00  1.070711e+02 -3.552714e-15
    endloop
  endfacet
  facet normal  0.000000e+00  0.000000e+00 -9.999999e-01
    outer loop
      vertex  3.500000e+01  1.200000e+02 -3.552714e-15
      vertex  7.071068e+00  1.070711e+02 -3.552714e-15
      vertex  3.826834e+00  1.092388e+02 -3.552714e-15
    endloop
  endfacet
  facet normal  0.000000e+00  0.000000e+00 -1.000000e+00
    outer loop
      vertex  3.500000e+01  1.200000e+02 -3.552714e-15
      vertex  3.826834e+00  1.092388e+02 -3.552714e-15
      vertex -2.449294e-15  1.100000e+02 -3.552714e-15
    endloop
  endfacet
  facet normal  1.950910e-01 -9.807851e-01  0.000000e+00
    outer loop
      vertex -2.449294e-15  1.100000e+02 -3.552714e-15
      vertex -3.826834e+00  1.092388e+02  6.000000e+01
      vertex -3.826834e+00  1.092388e+02 -3.552714e-15
    endloop
  endfacet
  facet normal  5.555697e-01 -8.314699e-01  0.000000e+00
    outer loop
      vertex -3.826834e+00  1.092388e+02 -3.552714e-15
      vertex -3.826834e+00  1.092388e+02  6.000000e+01
      vertex -7.071068e+00  1.070711e+02  6.000000e+01
    endloop
  endfacet
  facet normal  5.555697e-01 -8.314699e-01  0.000000e+00
    outer loop
      vertex -3.826834e+00  1.092388e+02 -3.552714e-15
      vertex -7.071068e+00  1.070711e+02  6.000000e+01
      vertex -7.071068e+00  1.070711e+02 -3.552714e-15
    endloop
  endfacet
  facet normal  8.314695e-01 -5.555704e-01  0.000000e+00
    outer loop
      vertex -7.071068e+00  1.070711e+02 -3.552714e-15
      vertex -7.071068e+00  1.070711e+02  6.000000e+01
      vertex -9.238795e+00  1.038268e+02  6.000000e+01
    endloop
  endfacet
  facet normal  8.314695e-01 -5.555704e-01  0.000000e+00
    outer loop
      vertex -7.071068e+00  1.070711e+02 -3.552714e-15
      vertex -9.238795e+00  1.038268e+02  6.000000e+01
      vertex -9.238795e+00  1.038268e+02 -3.552714e-15
    endloop
  endfacet
  facet normal  9.807853e-01 -1.950903e-01  0.000000e+00
    outer loop
      vertex -9.238795e+00  1.038268e+02 -3.552714e-15
      vertex -9.238795e+00  1.038268e+02  6.000000e+01
      vertex -1.000000e+01  1.000000e+02  6.000000e+01
    endloop
  endfacet
  facet normal  9.807853e-01 -1.950903e-01  0.000000e+00
    outer loop
      vertex -9.238795e+00  1.038268e+02 -3.552714e-15
      vertex -1.000000e+01  1.000000e+02  6.000000e+01
      vertex -1.000000e+01  1.000000e+02 -3.552714e-15
    endloop
  endfacet
  facet normal  1.950910e-01 -9.807851e-01 -9.954901e-18
    outer loop
      vertex -3.826834e+00  1.092388e+02  6.000000e+01
      vertex -2.449294e-15  1.100000e+02 -3.552714e-15
      vertex  6.123234e-16  1.100000e+02  6.000000e+01
    endloop
  endfacet
  facet normal -1.950910e-01 -9.807851e-01  9.954901e-18
    outer loop
      vertex  6.123234e-16  1.100000e+02  6.000000e+01
      vertex -2.449294e-15  1.100000e+02 -3.552714e-15
      vertex  3.826834e+00  1.092388e+02 -3.552714e-15
    endloop
  endfacet
  facet normal -1.950910e-01 -9.807851e-01  0.000000e+00
    outer loop
      vertex  6.123234e-16  1.100000e+02  6.000000e+01
      vertex  3.826834e+00  1.092388e+02 -3.552714e-15
      vertex  3.826834e+00  1.092388e+02  6.000000e+01
    endloop
  endfacet
  facet normal -5.555697e-01 -8.314699e-01  -0.000000e+00
    outer loop
      vertex  3.826834e+00  1.092388e+02  6.000000e+01
      vertex  3.826834e+00  1.092388e+02 -3.552714e-15
      vertex  7.071068e+00  1.070711e+02 -3.552714e-15
    endloop
  endfacet
  facet normal -5.555697e-01 -8.314699e-01  0.000000e+00
    outer loop
      vertex  3.826834e+00  1.092388e+02  6.000000e+01
      vertex  7.071068e+00  1.070711e+02 -3.552714e-15
      vertex  7.071068e+00  1.070711e+02  6.000000e+01
    endloop
  endfacet
  facet normal -8.314695e-01 -5.555704e-01  -0.000000e+00
    outer loop
      vertex  7.071068e+00  1.070711e+02  6.000000e+01
      vertex  7.071068e+00  1.070711e+02 -3.552714e-15
      vertex  9.238795e+00  1.038268e+02 -3.552714e-15
    endloop
  endfacet
  facet normal -8.314695e-01 -5.555704e-01  0.000000e+00
    outer loop
      vertex  7.071068e+00  1.070711e+02  6.000000e+01
      vertex  9.238795e+00  1.038268e+02 -3.552714e-15
      vertex  9.238795e+00  1.038268e+02  6.000000e+01
    endloop
  endfacet
  facet normal -9.807853e-01 -1.950903e-01  -0.000000e+00
    outer loop
      vertex  9.238795e+00  1.038268e+02  6.000000e+01
      vertex  9.238795e+00  1.038268e+02 -3.552714e-15
      vertex  1.000000e+01  1.000000e+02 -3.552714e-15
    endloop
  endfacet
  facet normal -9.807853e-01 -1.950903e-01  0.000000e+00
    outer loop
      vertex  9.238795e+00  1.038268e+02  6.000000e+01
      vertex  1.000000e+01  1.000000e+02 -3.552714e-15
      vertex  1.000000e+01  1.000000e+02  6.000000e+01
    endloop
  endfacet
  facet normal -1.950910e-01  9.807851e-01  0.000000e+00
    outer loop
      vertex  1.224647e-15  9.000000e+01 -3.552714e-15
      vertex  3.826834e+00  9.076121e+01  6.000000e+01
      vertex  3.826834e+00  9.076121e+01 -3.552714e-15
    endloop
  endfacet
  facet normal -5.555697e-01  8.314699e-01  0.000000e+00
    outer loop
      vertex  3.826834e+00  9.076121e+01 -3.552714e-15
      vertex  3.826834e+00  9.076121e+01  6.000000e+01
      vertex  7.071068e+00  9.292893e+01  6.000000e+01
    endloop
  endfacet
  facet normal -5.555697e-01  8.314699e-01  0.000000e+00
    outer loop
      vertex  3.826834e+00  9.076121e+01 -3.552714e-15
      vertex  7.071068e+00  9.292893e+01  6.000000e+01
      vertex  7.071068e+00  9.292893e+01 -3.552714e-15
    endloop
  endfacet
  facet normal -8.314695e-01  5.555704e-01  0.000000e+00
    outer loop
      vertex  7.071068e+00  9.292893e+01 -3.552714e-15
      vertex  7.071068e+00  9.292893e+01  6.000000e+01
      vertex  9.238795e+00  9.617316e+01  6.000000e+01
    endloop
  endfacet
  facet normal -8.314695e-01  5.555704e-01  0.000000e+00
    outer loop
      vertex  7.071068e+00  9.292893e+01 -3.552714e-15
      vertex  9.238795e+00  9.617316e+01  6.000000e+01
      vertex  9.238795e+00  9.617316e+01 -3.552714e-15
    endloop
  endfacet
  facet normal -9.807853e-01  1.950903e-01  0.000000e+00
    outer loop
      vertex  9.238795e+00  9.617316e+01 -3.552714e-15
      vertex  9.238795e+00  9.617316e+01  6.000000e+01
      vertex  1.000000e+01  1.000000e+02  6.000000e+01
    endloop
  endfacet
  facet normal -9.807853e-01  1.950903e-01  0.000000e+00
    outer loop
      vertex  9.238795e+00  9.617316e+01 -3.552714e-15
      vertex  1.000000e+01  1.000000e+02  6.000000e+01
      vertex  1.000000e+01  1.000000e+02 -3.552714e-15
    endloop
  endfacet
  facet normal -1.950910e-01  9.807851e-01 -9.954900e-18
    outer loop
      vertex  3.826834e+00  9.076121e+01  6.000000e+01
      vertex  1.224647e-15  9.000000e+01 -3.552714e-15
      vertex -1.836970e-15  9.000000e+01  6.000000e+01
    endloop
  endfacet
  facet normal  1.950910e-01  9.807851e-01  9.954900e-18
    outer loop
      vertex -1.836970e-15  9.000000e+01  6.000000e+01
      vertex  1.224647e-15  9.000000e+01 -3.552714e-15
      vertex -3.826834e+00  9.076121e+01 -3.552714e-15
    endloop
  endfacet
  facet normal  1.950910e-01  9.807851e-01  -0.000000e+00
    outer loop
      vertex -1.836970e-15  9.000000e+01  6.000000e+01
      vertex -3.826834e+00  9.076121e+01 -3.552714e-15
      vertex -3.826834e+00  9.076121e+01  6.000000e+01
    endloop
  endfacet
  facet normal  5.555697e-01  8.314699e-01  0.000000e+00
    outer loop
      vertex -3.826834e+00  9.076121e+01  6.000000e+01
      vertex -3.826834e+00  9.076121e+01 -3.552714e-15
      vertex -7.071068e+00  9.292893e+01 -3.552714e-15
    endloop
  endfacet
  facet normal  5.555697e-01  8.314699e-01  -0.000000e+00
    outer loop
      vertex -3.826834e+00  9.076121e+01  6.000000e+01
      vertex -7.071068e+00  9.292893e+01 -3.552714e-15
      vertex -7.071068e+00  9.292893e+01  6.000000e+01
    endloop
  endfacet
  facet normal  8.314695e-01  5.555704e-01  0.000000e+00
    outer loop
      vertex -7.071068e+00  9.292893e+01  6.000000e+01
      vertex -7.071068e+00  9.292893e+01 -3.552714e-15
      vertex -9.238795e+00  9.617316e+01 -3.552714e-15
    endloop
  endfacet
  facet normal  8.314695e-01  5.555704e-01  -0.000000e+00
    outer loop
      vertex -7.071068e+00  9.292893e+01  6.000000e+01
      vertex -9.238795e+00  9.617316e+01 -3.552714e-15
      vertex -9.238795e+00  9.617316e+01  6.000000e+01
    endloop
  endfacet
  facet normal  9.807853e-01  1.950903e-01  0.000000e+00
    outer loop
      vertex -9.238795e+00  9.617316e+01  6.000000e+01
      vertex -9.238795e+00  9.617316e+01 -3.552714e-15
      vertex -1.000000e+01  1.000000e+02 -3.552714e-15
    endloop
  endfacet
  facet normal  9.807853e-01  1.950903e-01  -0.000000e+00
    outer loop
      vertex -9.238795e+00  9.617316e+01  6.000000e+01
      vertex -1.000000e+01  1.000000e+02 -3.552714e-15
      vertex -1.000000e+01  1.000000e+02  6.000000e+01
    endloop
  endfacet
  facet normal  1.000000e+00  0.000000e+00  -0.000000e+00
    outer loop
      vertex  2.500000e+01  7.000000e+01  6.000000e+01
      vertex  2.500000e+01  1.300000e+02  3.000000e+01
      vertex  2.500000e+01  1.300000e+02  6.000000e+01
    endloop
  endfacet
  facet normal -1.000000e+00  0.000000e+00  0.000000e+00
    outer loop
      vertex -2.500000e+01  1.300000e+02  6.000000e+01
      vertex -2.500000e+01  1.300000e+02  3.000000e+01
      vertex -2.500000e+01  7.000000e+01  6.000000e+01
    endloop
  endfacet
  facet normal  0.000000e+00  1.000000e+00  0.000000e+00
    outer loop
      vertex -2.500000e+01  1.300000e+02  6.000000e+01
      vertex  2.500000e+01  1.300000e+02  6.000000e+01
      vertex -2.500000e+01  1.300000e+02  3.000000e+01
    endloop
  endfacet
  facet normal  0.000000e+00  1.000000e+00  0.000000e+00
    outer loop
      vertex -2.500000e+01  1.300000e+02  3.000000e+01
      vertex  2.500000e+01  1.300000e+02  6.000000e+01
      vertex  2.500000e+01  1.300000e+02  3.000000e+01
    endloop
  endfacet
  facet normal  1.000000e+00  0.000000e+00  0.000000e+00
    outer loop
      vertex  5.000000e+01  8.000000e+01 -3.552714e-15
      vertex  5.000000e+01  3.213938e+01  3.830222e+01
      vertex  5.000000e+01  3.830222e+01  3.213938e+01
    endloop
  endfacet
  facet normal  1.000000e+00  0.000000e+00  0.000000e+00
    outer loop
      vertex  5.000000e+01  8.000000e+01 -3.552714e-15
      vertex  5.000000e+01  3.830222e+01  3.213938e+01
      vertex  5.000000e+01  4.330127e+01  2.500000e+01
    endloop
  endfacet
  facet normal  1.000000e+00  0.000000e+00  0.000000e+00
    outer loop
      vertex  5.000000e+01  8.000000e+01 -3.552714e-15
      vertex  5.000000e+01  4.330127e+01  2.500000e+01
      vertex  5.000000e+01  4.698463e+01  1.710101e+01
    endloop
  endfacet
  facet normal  1.000000e+00  0.000000e+00  0.000000e+00
    outer loop
      vertex  5.000000e+01  8.000000e+01 -3.552714e-15
      vertex  5.000000e+01  4.698463e+01  1.710101e+01
      vertex  5.000000e+01  4.924039e+01  8.682409e+00
    endloop
  endfacet
  facet normal  1.000000e+00  0.000000e+00  0.000000e+00
    outer loop
      vertex  5.000000e+01  8.000000e+01 -3.552714e-15
      vertex  5.000000e+01  4.924039e+01  8.682409e+00
      vertex  5.000000e+01  5.000000e+01 -3.552714e-15
    endloop
  endfacet
  facet normal  1.000000e+00  0.000000e+00  0.000000e+00
    outer loop
      vertex  5.000000e+01  8.000000e+01  5.500000e+01
      vertex  5.000000e+01  3.000000e+01  8.000000e+01
      vertex  5.000000e+01 -7.105427e-15  8.000000e+01
    endloop
  endfacet
  facet normal  1.000000e+00  0.000000e+00  0.000000e+00
    outer loop
      vertex  5.000000e+01  8.000000e+01  5.500000e+01
      vertex  5.000000e+01 -7.105427e-15  8.000000e+01
      vertex  5.000000e+01 -7.105427e-15  5.000000e+01
    endloop
  endfacet
  facet normal  1.000000e+00  -0.000000e+00  0.000000e+00
    outer loop
      vertex  5.000000e+01  8.000000e+01  5.500000e+01
      vertex  5.000000e+01 -7.105427e-15  5.000000e+01
      vertex  5.000000e+01  8.682409e+00  4.924039e+01
    endloop
  endfacet
  facet normal  9.999999e-01  -0.000000e+00  0.000000e+00
    outer loop
      vertex  5.000000e+01  8.000000e+01  5.500000e+01
      vertex  5.000000e+01  8.682409e+00  4.924039e+01
      vertex  5.000000e+01  1.710101e+01  4.698463e+01
    endloop
  endfacet
  facet normal  1.000000e+00  -0.000000e+00  0.000000e+00
    outer loop
      vertex  5.000000e+01  8.000000e+01  5.500000e+01
      vertex  5.000000e+01  1.710101e+01  4.698463e+01
      vertex  5.000000e+01  2.500000e+01  4.330127e+01
    endloop
  endfacet
  facet normal  1.000000e+00  -0.000000e+00  0.000000e+00
    outer loop
      vertex  5.000000e+01  8.000000e+01  5.500000e+01
      vertex  5.000000e+01  2.500000e+01  4.330127e+01
      vertex  5.000000e+01  3.213938e+01  3.830222e+01
    endloop
  endfacet
  facet normal  1.000000e+00  -0.000000e+00  0.000000e+00
    outer loop
      vertex  5.000000e+01  8.000000e+01  5.500000e+01
      vertex  5.000000e+01  3.213938e+01  3.830222e+01
      vertex  5.000000e+01  8.000000e+01 -3.552714e-15
    endloop
  endfacet
  facet normal  1.000000e+00  0.000000e+00  0.000000e+00
    outer loop
      vertex  5.000000e+01  1.200000e+02 -3.552714e-15
      vertex  5.000000e+01  1.500000e+02 -3.552714e-15
      vertex  5.000000e+01  1.200000e+02  3.500000e+01
    endloop
  endfacet
  facet normal  1.000000e+00  0.000000e+00  0.000000e+00
    outer loop
      vertex  5.000000e+01  1.200000e+02  3.500000e+01
      vertex  5.000000e+01  1.500000e+02 -3.552714e-15
      vertex  5.000000e+01  1.500000e+02  2.000000e+01
    endloop
  endfacet
  facet normal  0.000000e+00  1.000000e+00  0.000000e+00
    outer loop
      vertex  3.500000e+01  8.000000e+01 -3.552714e-15
      vertex  3.500000e+01  8.000000e+01  5.500000e+01
      vertex  5.000000e+01  8.000000e+01 -3.552714e-15
    endloop
  endfacet
  facet normal  0.000000e+00  1.000000e+00  -0.000000e+00
    outer loop
      vertex  5.000000e+01  8.000000e+01 -3.552714e-15
      vertex  3.500000e+01  8.000000e+01  5.500000e+01
      vertex  5.000000e+01  8.000000e+01  5.500000e+01
    endloop
  endfacet
  facet normal  1.000000e+00  0.000000e+00  0.000000e+00
    outer loop
      vertex  3.500000e+01  8.000000e+01 -3.552714e-15
      vertex  3.500000e+01  1.200000e+02 -3.552714e-15
      vertex  3.500000e+01  8.000000e+01  5.500000e+01
    endloop
  endfacet
  facet normal  1.000000e+00  0.000000e+00  0.000000e+00
    outer loop
      vertex  3.500000e+01  8.000000e+01  5.500000e+01
      vertex  3.500000e+01  1.200000e+02 -3.552714e-15
      vertex  3.500000e+01  1.200000e+02  3.500000e+01
    endloop
  endfacet
  facet normal  0.000000e+00 -1.000000e+00  -0.000000e+00
    outer loop
      vertex  5.000000e+01  1.200000e+02 -3.552714e-15
      vertex  5.000000e+01  1.200000e+02  3.500000e+01
      vertex  3.500000e+01  1.200000e+02 -3.552714e-15
    endloop
  endfacet
  facet normal  0.000000e+00 -1.000000e+00  0.000000e+00
    outer loop
      vertex  3.500000e+01  1.200000e+02 -3.552714e-15
      vertex  5.000000e+01  1.200000e+02  3.500000e+01
      vertex  3.500000e+01  1.200000e+02  3.500000e+01
    endloop
  endfacet
  facet normal  -0.000000e+00 -5.735763e-01 -8.191522e-01
    outer loop
      vertex  3.500000e+01  3.213938e+01  3.830222e+01
      vertex  5.000000e+01  2.500000e+01  4.330127e+01
      vertex  3.500000e+01  2.500000e+01  4.330127e+01
    endloop
  endfacet
  facet normal  0.000000e+00 -4.226183e-01 -9.063078e-01
    outer loop
      vertex  3.500000e+01  2.500000e+01  4.330127e+01
      vertex  5.000000e+01  2.500000e+01  4.330127e+01
      vertex  5.000000e+01  1.710101e+01  4.698463e+01
    endloop
  endfacet
  facet normal  -0.000000e+00 -4.226183e-01 -9.063078e-01
    outer loop
      vertex  3.500000e+01  2.500000e+01  4.330127e+01
      vertex  5.000000e+01  1.710101e+01  4.698463e+01
      vertex  3.500000e+01  1.710101e+01  4.698463e+01
    endloop
  endfacet
  facet normal  0.000000e+00 -2.588190e-01 -9.659259e-01
    outer loop
      vertex  3.500000e+01  1.710101e+01  4.698463e+01
      vertex  5.000000e+01  1.710101e+01  4.698463e+01
      vertex  5.000000e+01  8.682409e+00  4.924039e+01
    endloop
  endfacet
  facet normal  -0.000000e+00 -2.588190e-01 -9.659259e-01
    outer loop
      vertex  3.500000e+01  1.710101e+01  4.698463e+01
      vertex  5.000000e+01  8.682409e+00  4.924039e+01
      vertex  3.500000e+01  8.682409e+00  4.924039e+01
    endloop
  endfacet
  facet normal  0.000000e+00 -8.715581e-02 -9.961947e-01
    outer loop
      vertex  3.500000e+01  8.682409e+00  4.924039e+01
      vertex  5.000000e+01  8.682409e+00  4.924039e+01
      vertex  5.000000e+01 -7.105427e-15  5.000000e+01
    endloop
  endfacet
  facet normal -5.907447e-17 -8.715581e-02 -9.961947e-01
    outer loop
      vertex  3.500000e+01  8.682409e+00  4.924039e+01
      vertex  5.000000e+01 -7.105427e-15  5.000000e+01
      vertex  3.500000e+01  3.061617e-15  5.000000e+01
    endloop
  endfacet
  facet normal  0.000000e+00 -5.735763e-01 -8.191522e-01
    outer loop
      vertex  5.000000e+01  2.500000e+01  4.330127e+01
      vertex  3.500000e+01  3.213938e+01  3.830222e+01
      vertex  5.000000e+01  3.213938e+01  3.830222e+01
    endloop
  endfacet
  facet normal  -0.000000e+00 -7.071068e-01 -7.071068e-01
    outer loop
      vertex  5.000000e+01  3.213938e+01  3.830222e+01
      vertex  3.500000e+01  3.213938e+01  3.830222e+01
      vertex  3.500000e+01  3.830222e+01  3.213938e+01
    endloop
  endfacet
  facet normal  0.000000e+00 -7.071068e-01 -7.071068e-01
    outer loop
      vertex  5.000000e+01  3.213938e+01  3.830222e+01
      vertex  3.500000e+01  3.830222e+01  3.213938e+01
      vertex  5.000000e+01  3.830222e+01  3.213938e+01
    endloop
  endfacet
  facet normal  -0.000000e+00 -8.191522e-01 -5.735763e-01
    outer loop
      vertex  5.000000e+01  3.830222e+01  3.213938e+01
      vertex  3.500000e+01  3.830222e+01  3.213938e+01
      vertex  3.500000e+01  4.330127e+01  2.500000e+01
    endloop
  endfacet
  facet normal  0.000000e+00 -8.191522e-01 -5.735763e-01
    outer loop
      vertex  5.000000e+01  3.830222e+01  3.213938e+01
      vertex  3.500000e+01  4.330127e+01  2.500000e+01
      vertex  5.000000e+01  4.330127e+01  2.500000e+01
    endloop
  endfacet
  facet normal  -0.000000e+00 -9.063078e-01 -4.226183e-01
    outer loop
      vertex  5.000000e+01  4.330127e+01  2.500000e+01
      vertex  3.500000e+01  4.330127e+01  2.500000e+01
      vertex  3.500000e+01  4.698463e+01  1.710101e+01
    endloop
  endfacet
  facet normal  0.000000e+00 -9.063078e-01 -4.226183e-01
    outer loop
      vertex  5.000000e+01  4.330127e+01  2.500000e+01
      vertex  3.500000e+01  4.698463e+01  1.710101e+01
      vertex  5.000000e+01  4.698463e+01  1.710101e+01
    endloop
  endfacet
  facet normal  -0.000000e+00 -9.659259e-01 -2.588190e-01
    outer loop
      vertex  5.000000e+01  4.698463e+01  1.710101e+01
      vertex  3.500000e+01  4.698463e+01  1.710101e+01
      vertex  3.500000e+01  4.924039e+01  8.682409e+00
    endloop
  endfacet
  facet normal  0.000000e+00 -9.659259e-01 -2.588190e-01
    outer loop
      vertex  5.000000e+01  4.698463e+01  1.710101e+01
      vertex  3.500000e+01  4.924039e+01  8.682409e+00
      vertex  5.000000e+01  4.924039e+01  8.682409e+00
    endloop
  endfacet
  facet normal  -0.000000e+00 -9.961947e-01 -8.715581e-02
    outer loop
      vertex  5.000000e+01  4.924039e+01  8.682409e+00
      vertex  3.500000e+01  4.924039e+01  8.682409e+00
      vertex  3.500000e+01  5.000000e+01  0.000000e+00
    endloop
  endfacet
  facet normal -2.064264e-17 -9.961947e-01 -8.715581e-02
    outer loop
      vertex  5.000000e+01  4.924039e+01  8.682409e+00
      vertex  3.500000e+01  5.000000e+01  0.000000e+00
      vertex  5.000000e+01  5.000000e+01 -3.552714e-15
    endloop
  endfacet
  facet normal  1.000000e+00  0.000000e+00  0.000000e+00
    outer loop
      vertex  3.500000e+01 -7.105427e-15  0.000000e+00
      vertex  3.500000e+01  5.000000e+01  0.000000e+00
      vertex  3.500000e+01  4.924039e+01  8.682409e+00
    endloop
  endfacet
  facet normal  1.000000e+00  0.000000e+00  0.000000e+00
    outer loop
      vertex  3.500000e+01 -7.105427e-15  0.000000e+00
      vertex  3.500000e+01  4.924039e+01  8.682409e+00
      vertex  3.500000e+01  4.698463e+01  1.710101e+01
    endloop
  endfacet
  facet normal  1.000000e+00  0.000000e+00  0.000000e+00
    outer loop
      vertex  3.500000e+01 -7.105427e-15  0.000000e+00
      vertex  3.500000e+01  4.698463e+01  1.710101e+01
      vertex  3.500000e+01  4.330127e+01  2.500000e+01
    endloop
  endfacet
  facet normal  1.000000e+00  0.000000e+00  0.000000e+00
    outer loop
      vertex  3.500000e+01 -7.105427e-15  0.000000e+00
      vertex  3.500000e+01  4.330127e+01  2.500000e+01
      vertex  3.500000e+01  3.830222e+01  3.213938e+01
    endloop
  endfacet
  facet normal  1.000000e+00  0.000000e+00  0.000000e+00
    outer loop
      vertex  3.500000e+01 -7.105427e-15  0.000000e+00
      vertex  3.500000e+01  3.830222e+01  3.213938e+01
      vertex  3.500000e+01  3.213938e+01  3.830222e+01
    endloop
  endfacet
  facet normal  1.000000e+00  0.000000e+00  0.000000e+00
    outer loop
      vertex  3.500000e+01 -7.105427e-15  0.000000e+00
      vertex  3.500000e+01  3.213938e+01  3.830222e+01
      vertex  3.500000e+01  2.500000e+01  4.330127e+01
    endloop
  endfacet
  facet normal  1.000000e+00  0.000000e+00  0.000000e+00
    outer loop
      vertex  3.500000e+01 -7.105427e-15  0.000000e+00
      vertex  3.500000e+01  2.500000e+01  4.330127e+01
      vertex  3.500000e+01  1.710101e+01  4.698463e+01
    endloop
  endfacet
  facet normal  1.000000e+00  0.000000e+00  0.000000e+00
    outer loop
      vertex  3.500000e+01 -7.105427e-15  0.000000e+00
      vertex  3.500000e+01  1.710101e+01  4.698463e+01
      vertex  3.500000e+01  8.682409e+00  4.924039e+01
    endloop
  endfacet
  facet normal  9.999999e-01  0.000000e+00  0.000000e+00
    outer loop
      vertex  3.500000e+01 -7.105427e-15  0.000000e+00
      vertex  3.500000e+01  8.682409e+00  4.924039e+01
      vertex  3.500000e+01  3.061617e-15  5.000000e+01
    endloop
  endfacet
  facet normal -1.000000e+00  0.000000e+00  0.000000e+00
    outer loop
      vertex -5.000000e+01  3.000000e+01  8.000000e+01
      vertex -5.000000e+01  1.500000e+02  2.000000e+01
      vertex -5.000000e+01 -7.105427e-15  8.000000e+01
    endloop
  endfacet
  facet normal -1.000000e+00  0.000000e+00  0.000000e+00
    outer loop
      vertex -5.000000e+01 -7.105427e-15  8.000000e+01
      vertex -5.000000e+01  1.500000e+02  2.000000e+01
      vertex -5.000000e+01  1.500000e+02 -3.552714e-15
    endloop
  endfacet
  facet normal -1.000000e+00  0.000000e+00  0.000000e+00
    outer loop
      vertex -5.000000e+01 -7.105427e-15  8.000000e+01
      vertex -5.000000e+01  1.500000e+02 -3.552714e-15
      vertex -5.000000e+01 -7.105427e-15  0.000000e+00
    endloop
  endfacet
  facet normal  0.000000e+00  1.000000e+00  0.000000e+00
    outer loop
      vertex -5.000000e+01  1.500000e+02 -3.552714e-15
      vertex -5.000000e+01  1.500000e+02  2.000000e+01
      vertex  5.000000e+01  1.500000e+02 -3.552714e-15
    endloop
  endfacet
  facet normal  0.000000e+00  1.000000e+00  -0.000000e+00
    outer loop
      vertex  5.000000e+01  1.500000e+02 -3.552714e-15
      vertex -5.000000e+01  1.500000e+02  2.000000e+01
      vertex  5.000000e+01  1.500000e+02  2.000000e+01
    endloop
  endfacet
endsolid CATIA STL
