solid CATIA STL
  facet normal  0.000000e+00  0.000000e+00 -1.000000e+00
    outer loop
      vertex  0.000000e+00  1.000000e+02  0.000000e+00
      vertex  0.000000e+00  0.000000e+00  0.000000e+00
      vertex -1.200000e+02  1.000000e+02  0.000000e+00
    endloop
  endfacet
  facet normal  0.000000e+00  0.000000e+00 -1.000000e+00
    outer loop
      vertex -1.200000e+02  1.000000e+02  0.000000e+00
      vertex  0.000000e+00  0.000000e+00  0.000000e+00
      vertex -1.200000e+02  6.000000e+01  0.000000e+00
    endloop
  endfacet
  facet normal  0.000000e+00  0.000000e+00 -1.000000e+00
    outer loop
      vertex  0.000000e+00  0.000000e+00  0.000000e+00
      vertex -1.500000e+02  0.000000e+00  0.000000e+00
      vertex -1.200000e+02  6.000000e+01  0.000000e+00
    endloop
  endfacet
  facet normal  -0.000000e+00  0.000000e+00 -1.000000e+00
    outer loop
      vertex -1.200000e+02  6.000000e+01  0.000000e+00
      vertex -1.500000e+02  0.000000e+00  0.000000e+00
      vertex -1.500000e+02  6.000000e+01  0.000000e+00
    endloop
  endfacet
  facet normal  0.000000e+00  1.000000e+00  0.000000e+00
    outer loop
      vertex  0.000000e+00  1.000000e+02  0.000000e+00
      vertex -1.200000e+02  1.000000e+02  0.000000e+00
      vertex  0.000000e+00  1.000000e+02  4.000000e+01
    endloop
  endfacet
  facet normal  0.000000e+00  1.000000e+00  0.000000e+00
    outer loop
      vertex  0.000000e+00  1.000000e+02  4.000000e+01
      vertex -1.200000e+02  1.000000e+02  0.000000e+00
      vertex -1.200000e+02  1.000000e+02  8.000000e+01
    endloop
  endfacet
  facet normal  -0.000000e+00  1.000000e+00  0.000000e+00
    outer loop
      vertex  0.000000e+00  1.000000e+02  4.000000e+01
      vertex -1.200000e+02  1.000000e+02  8.000000e+01
      vertex -7.000000e+01  1.000000e+02  8.000000e+01
    endloop
  endfacet
  facet normal -1.000000e+00  0.000000e+00  0.000000e+00
    outer loop
      vertex -1.500000e+02  6.000000e+01  8.000000e+01
      vertex -1.500000e+02  6.000000e+01  0.000000e+00
      vertex -1.500000e+02  3.000000e+01  8.000000e+01
    endloop
  endfacet
  facet normal -1.000000e+00  0.000000e+00  0.000000e+00
    outer loop
      vertex -1.500000e+02  3.000000e+01  8.000000e+01
      vertex -1.500000e+02  6.000000e+01  0.000000e+00
      vertex -1.500000e+02  3.000000e+01  5.000000e+01
    endloop
  endfacet
  facet normal -1.000000e+00  0.000000e+00  0.000000e+00
    outer loop
      vertex -1.500000e+02  6.000000e+01  0.000000e+00
      vertex -1.500000e+02  0.000000e+00  0.000000e+00
      vertex -1.500000e+02  3.000000e+01  5.000000e+01
    endloop
  endfacet
  facet normal -1.000000e+00  -0.000000e+00  0.000000e+00
    outer loop
      vertex -1.500000e+02  3.000000e+01  5.000000e+01
      vertex -1.500000e+02  0.000000e+00  0.000000e+00
      vertex -1.500000e+02  0.000000e+00  5.000000e+01
    endloop
  endfacet
  facet normal  0.000000e+00  0.000000e+00  1.000000e+00
    outer loop
      vertex -1.000000e+02  3.000000e+01  8.000000e+01
      vertex -1.000000e+02  0.000000e+00  8.000000e+01
      vertex -7.000000e+01  0.000000e+00  8.000000e+01
    endloop
  endfacet
  facet normal  0.000000e+00  -0.000000e+00  1.000000e+00
    outer loop
      vertex -1.000000e+02  3.000000e+01  8.000000e+01
      vertex -7.000000e+01  0.000000e+00  8.000000e+01
      vertex -7.000000e+01  1.000000e+02  8.000000e+01
    endloop
  endfacet
  facet normal  0.000000e+00  0.000000e+00  1.000000e+00
    outer loop
      vertex -1.000000e+02  3.000000e+01  8.000000e+01
      vertex -7.000000e+01  1.000000e+02  8.000000e+01
      vertex -1.200000e+02  1.000000e+02  8.000000e+01
    endloop
  endfacet
  facet normal  0.000000e+00  0.000000e+00  1.000000e+00
    outer loop
      vertex -1.000000e+02  3.000000e+01  8.000000e+01
      vertex -1.200000e+02  1.000000e+02  8.000000e+01
      vertex -1.200000e+02  6.000000e+01  8.000000e+01
    endloop
  endfacet
  facet normal  0.000000e+00  0.000000e+00  1.000000e+00
    outer loop
      vertex -1.000000e+02  3.000000e+01  8.000000e+01
      vertex -1.200000e+02  6.000000e+01  8.000000e+01
      vertex -1.500000e+02  6.000000e+01  8.000000e+01
    endloop
  endfacet
  facet normal  0.000000e+00  0.000000e+00  1.000000e+00
    outer loop
      vertex -1.000000e+02  3.000000e+01  8.000000e+01
      vertex -1.500000e+02  6.000000e+01  8.000000e+01
      vertex -1.500000e+02  3.000000e+01  8.000000e+01
    endloop
  endfacet
  facet normal  0.000000e+00  1.000000e+00  -0.000000e+00
    outer loop
      vertex -1.200000e+02  6.000000e+01  8.000000e+01
      vertex -1.200000e+02  6.000000e+01  0.000000e+00
      vertex -1.500000e+02  6.000000e+01  8.000000e+01
    endloop
  endfacet
  facet normal  0.000000e+00  1.000000e+00  0.000000e+00
    outer loop
      vertex -1.500000e+02  6.000000e+01  8.000000e+01
      vertex -1.200000e+02  6.000000e+01  0.000000e+00
      vertex -1.500000e+02  6.000000e+01  0.000000e+00
    endloop
  endfacet
  facet normal -1.000000e+00  -0.000000e+00  0.000000e+00
    outer loop
      vertex -1.200000e+02  6.000000e+01  8.000000e+01
      vertex -1.200000e+02  1.000000e+02  8.000000e+01
      vertex -1.200000e+02  6.000000e+01  0.000000e+00
    endloop
  endfacet
  facet normal -1.000000e+00  0.000000e+00  0.000000e+00
    outer loop
      vertex -1.200000e+02  6.000000e+01  0.000000e+00
      vertex -1.200000e+02  1.000000e+02  8.000000e+01
      vertex -1.200000e+02  1.000000e+02  0.000000e+00
    endloop
  endfacet
  facet normal  -0.000000e+00 -1.000000e+00  -0.000000e+00
    outer loop
      vertex  0.000000e+00  0.000000e+00  4.000000e+01
      vertex -7.000000e+01  0.000000e+00  8.000000e+01
      vertex -1.000000e+02  0.000000e+00  8.000000e+01
    endloop
  endfacet
  facet normal  0.000000e+00 -1.000000e+00  0.000000e+00
    outer loop
      vertex  0.000000e+00  0.000000e+00  4.000000e+01
      vertex -1.000000e+02  0.000000e+00  8.000000e+01
      vertex -1.000000e+02  0.000000e+00  5.000000e+01
    endloop
  endfacet
  facet normal  -0.000000e+00 -1.000000e+00  -0.000000e+00
    outer loop
      vertex  0.000000e+00  0.000000e+00  4.000000e+01
      vertex -1.000000e+02  0.000000e+00  5.000000e+01
      vertex -1.500000e+02  0.000000e+00  5.000000e+01
    endloop
  endfacet
  facet normal  0.000000e+00 -1.000000e+00  0.000000e+00
    outer loop
      vertex  0.000000e+00  0.000000e+00  4.000000e+01
      vertex -1.500000e+02  0.000000e+00  5.000000e+01
      vertex -1.500000e+02  0.000000e+00  0.000000e+00
    endloop
  endfacet
  facet normal  0.000000e+00 -1.000000e+00  0.000000e+00
    outer loop
      vertex  0.000000e+00  0.000000e+00  4.000000e+01
      vertex -1.500000e+02  0.000000e+00  0.000000e+00
      vertex  0.000000e+00  0.000000e+00  0.000000e+00
    endloop
  endfacet
  facet normal  0.000000e+00  0.000000e+00  1.000000e+00
    outer loop
      vertex -1.500000e+02  0.000000e+00  5.000000e+01
      vertex -1.000000e+02  0.000000e+00  5.000000e+01
      vertex -1.500000e+02  3.000000e+01  5.000000e+01
    endloop
  endfacet
  facet normal  -0.000000e+00  0.000000e+00  1.000000e+00
    outer loop
      vertex -1.500000e+02  3.000000e+01  5.000000e+01
      vertex -1.000000e+02  0.000000e+00  5.000000e+01
      vertex -1.000000e+02  3.000000e+01  5.000000e+01
    endloop
  endfacet
  facet normal  0.000000e+00 -1.000000e+00  -0.000000e+00
    outer loop
      vertex -1.000000e+02  3.000000e+01  5.000000e+01
      vertex -1.000000e+02  3.000000e+01  8.000000e+01
      vertex -1.500000e+02  3.000000e+01  5.000000e+01
    endloop
  endfacet
  facet normal  0.000000e+00 -1.000000e+00  0.000000e+00
    outer loop
      vertex -1.500000e+02  3.000000e+01  5.000000e+01
      vertex -1.000000e+02  3.000000e+01  8.000000e+01
      vertex -1.500000e+02  3.000000e+01  8.000000e+01
    endloop
  endfacet
  facet normal -1.000000e+00  -0.000000e+00  0.000000e+00
    outer loop
      vertex -1.000000e+02  0.000000e+00  8.000000e+01
      vertex -1.000000e+02  3.000000e+01  8.000000e+01
      vertex -1.000000e+02  0.000000e+00  5.000000e+01
    endloop
  endfacet
  facet normal -1.000000e+00  0.000000e+00  0.000000e+00
    outer loop
      vertex -1.000000e+02  0.000000e+00  5.000000e+01
      vertex -1.000000e+02  3.000000e+01  8.000000e+01
      vertex -1.000000e+02  3.000000e+01  5.000000e+01
    endloop
  endfacet
  facet normal  1.000000e+00  0.000000e+00  0.000000e+00
    outer loop
      vertex  0.000000e+00  0.000000e+00  0.000000e+00
      vertex  0.000000e+00  1.000000e+02  0.000000e+00
      vertex  0.000000e+00  0.000000e+00  4.000000e+01
    endloop
  endfacet
  facet normal  1.000000e+00  -0.000000e+00  0.000000e+00
    outer loop
      vertex  0.000000e+00  0.000000e+00  4.000000e+01
      vertex  0.000000e+00  1.000000e+02  0.000000e+00
      vertex  0.000000e+00  1.000000e+02  4.000000e+01
    endloop
  endfacet
  facet normal  4.961389e-01  0.000000e+00  8.682432e-01
    outer loop
      vertex  0.000000e+00  0.000000e+00  4.000000e+01
      vertex  0.000000e+00  1.000000e+02  4.000000e+01
      vertex -7.000000e+01  0.000000e+00  8.000000e+01
    endloop
  endfacet
  facet normal  4.961389e-01  -0.000000e+00  8.682432e-01
    outer loop
      vertex -7.000000e+01  0.000000e+00  8.000000e+01
      vertex  0.000000e+00  1.000000e+02  4.000000e+01
      vertex -7.000000e+01  1.000000e+02  8.000000e+01
    endloop
  endfacet
endsolid CATIA STL
