solid CATIA STL
  facet normal  0.000000e+00  1.000000e+00  -0.000000e+00
    outer loop
      vertex  5.000000e+01  5.000000e+01  8.000000e+01
      vertex  5.000000e+01  5.000000e+01  2.000000e+01
      vertex  3.500000e+01  5.000000e+01  2.000000e+01
    endloop
  endfacet
  facet normal  0.000000e+00  1.000000e+00  0.000000e+00
    outer loop
      vertex  5.000000e+01  5.000000e+01  8.000000e+01
      vertex  3.500000e+01  5.000000e+01  2.000000e+01
      vertex  3.500000e+01  5.000000e+01  7.500000e+01
    endloop
  endfacet
  facet normal  0.000000e+00  1.000000e+00  -0.000000e+00
    outer loop
      vertex  5.000000e+01  5.000000e+01  8.000000e+01
      vertex  3.500000e+01  5.000000e+01  7.500000e+01
      vertex  2.000000e+01  5.000000e+01  7.500000e+01
    endloop
  endfacet
  facet normal  0.000000e+00  1.000000e+00  -0.000000e+00
    outer loop
      vertex  5.000000e+01  5.000000e+01  8.000000e+01
      vertex  2.000000e+01  5.000000e+01  7.500000e+01
      vertex -2.000000e+01  5.000000e+01  7.500000e+01
    endloop
  endfacet
  facet normal  0.000000e+00  1.000000e+00  -0.000000e+00
    outer loop
      vertex  5.000000e+01  5.000000e+01  8.000000e+01
      vertex -2.000000e+01  5.000000e+01  7.500000e+01
      vertex -3.500000e+01  5.000000e+01  7.500000e+01
    endloop
  endfacet
  facet normal  0.000000e+00  1.000000e+00  -0.000000e+00
    outer loop
      vertex  5.000000e+01  5.000000e+01  8.000000e+01
      vertex -3.500000e+01  5.000000e+01  7.500000e+01
      vertex -5.000000e+01  5.000000e+01  8.000000e+01
    endloop
  endfacet
  facet normal  0.000000e+00  1.000000e+00  0.000000e+00
    outer loop
      vertex  2.000000e+01  5.000000e+01  2.000000e+01
      vertex -2.000000e+01  5.000000e+01  2.000000e+01
      vertex  2.000000e+01  5.000000e+01  7.500000e+01
    endloop
  endfacet
  facet normal  0.000000e+00  1.000000e+00  0.000000e+00
    outer loop
      vertex  2.000000e+01  5.000000e+01  7.500000e+01
      vertex -2.000000e+01  5.000000e+01  2.000000e+01
      vertex -2.000000e+01  5.000000e+01  7.500000e+01
    endloop
  endfacet
  facet normal  0.000000e+00  1.000000e+00  0.000000e+00
    outer loop
      vertex -5.000000e+01  5.000000e+01  2.000000e+01
      vertex -5.000000e+01  5.000000e+01  8.000000e+01
      vertex -3.500000e+01  5.000000e+01  2.000000e+01
    endloop
  endfacet
  facet normal  0.000000e+00  1.000000e+00  -0.000000e+00
    outer loop
      vertex -3.500000e+01  5.000000e+01  2.000000e+01
      vertex -5.000000e+01  5.000000e+01  8.000000e+01
      vertex -3.500000e+01  5.000000e+01  7.500000e+01
    endloop
  endfacet
  facet normal  0.000000e+00  0.000000e+00  1.000000e+00
    outer loop
      vertex  5.000000e+01  5.000000e+01  2.000000e+01
      vertex  3.500000e+01  1.400000e+02  2.000000e+01
      vertex  3.500000e+01  5.000000e+01  2.000000e+01
    endloop
  endfacet
  facet normal  -0.000000e+00  0.000000e+00  1.000000e+00
    outer loop
      vertex  5.000000e+01  1.500000e+02  2.000000e+01
      vertex -5.000000e+01  1.500000e+02  2.000000e+01
      vertex -3.500000e+01  1.400000e+02  2.000000e+01
    endloop
  endfacet
  facet normal  0.000000e+00  0.000000e+00  1.000000e+00
    outer loop
      vertex  5.000000e+01  1.500000e+02  2.000000e+01
      vertex -3.500000e+01  1.400000e+02  2.000000e+01
      vertex -2.000000e+01  1.400000e+02  2.000000e+01
    endloop
  endfacet
  facet normal  0.000000e+00  0.000000e+00  1.000000e+00
    outer loop
      vertex  5.000000e+01  1.500000e+02  2.000000e+01
      vertex -2.000000e+01  1.400000e+02  2.000000e+01
      vertex  2.000000e+01  1.400000e+02  2.000000e+01
    endloop
  endfacet
  facet normal  0.000000e+00  0.000000e+00  1.000000e+00
    outer loop
      vertex  5.000000e+01  1.500000e+02  2.000000e+01
      vertex  2.000000e+01  1.400000e+02  2.000000e+01
      vertex  3.500000e+01  1.400000e+02  2.000000e+01
    endloop
  endfacet
  facet normal  -0.000000e+00  0.000000e+00  1.000000e+00
    outer loop
      vertex  5.000000e+01  1.500000e+02  2.000000e+01
      vertex  3.500000e+01  1.400000e+02  2.000000e+01
      vertex  5.000000e+01  5.000000e+01  2.000000e+01
    endloop
  endfacet
  facet normal  0.000000e+00  0.000000e+00  1.000000e+00
    outer loop
      vertex -2.000000e+01  1.400000e+02  2.000000e+01
      vertex -2.000000e+01  5.000000e+01  2.000000e+01
      vertex  2.000000e+01  1.400000e+02  2.000000e+01
    endloop
  endfacet
  facet normal  0.000000e+00  0.000000e+00  1.000000e+00
    outer loop
      vertex  2.000000e+01  1.400000e+02  2.000000e+01
      vertex -2.000000e+01  5.000000e+01  2.000000e+01
      vertex  2.000000e+01  5.000000e+01  2.000000e+01
    endloop
  endfacet
  facet normal  0.000000e+00  0.000000e+00  1.000000e+00
    outer loop
      vertex -5.000000e+01  1.500000e+02  2.000000e+01
      vertex -5.000000e+01  5.000000e+01  2.000000e+01
      vertex -3.500000e+01  1.400000e+02  2.000000e+01
    endloop
  endfacet
  facet normal  0.000000e+00  0.000000e+00  1.000000e+00
    outer loop
      vertex -3.500000e+01  1.400000e+02  2.000000e+01
      vertex -5.000000e+01  5.000000e+01  2.000000e+01
      vertex -3.500000e+01  5.000000e+01  2.000000e+01
    endloop
  endfacet
  facet normal -1.000000e+00  0.000000e+00  0.000000e+00
    outer loop
      vertex -3.500000e+01  1.400000e+02  2.000000e+01
      vertex -3.500000e+01  5.000000e+01  2.000000e+01
      vertex -3.500000e+01  5.000000e+01  7.500000e+01
    endloop
  endfacet
  facet normal  1.000000e+00  0.000000e+00  0.000000e+00
    outer loop
      vertex -2.000000e+01  5.000000e+01  7.500000e+01
      vertex -2.000000e+01  5.000000e+01  2.000000e+01
      vertex -2.000000e+01  1.400000e+02  2.000000e+01
    endloop
  endfacet
  facet normal  -0.000000e+00  5.214500e-01  8.532819e-01
    outer loop
      vertex -2.000000e+01  1.400000e+02  2.000000e+01
      vertex -3.500000e+01  1.400000e+02  2.000000e+01
      vertex -2.000000e+01  5.000000e+01  7.500000e+01
    endloop
  endfacet
  facet normal  0.000000e+00  5.214500e-01  8.532819e-01
    outer loop
      vertex -2.000000e+01  5.000000e+01  7.500000e+01
      vertex -3.500000e+01  1.400000e+02  2.000000e+01
      vertex -3.500000e+01  5.000000e+01  7.500000e+01
    endloop
  endfacet
  facet normal  1.000000e+00  0.000000e+00  0.000000e+00
    outer loop
      vertex  3.500000e+01  5.000000e+01  7.500000e+01
      vertex  3.500000e+01  5.000000e+01  2.000000e+01
      vertex  3.500000e+01  1.400000e+02  2.000000e+01
    endloop
  endfacet
  facet normal -1.000000e+00  0.000000e+00  0.000000e+00
    outer loop
      vertex  2.000000e+01  1.400000e+02  2.000000e+01
      vertex  2.000000e+01  5.000000e+01  2.000000e+01
      vertex  2.000000e+01  5.000000e+01  7.500000e+01
    endloop
  endfacet
  facet normal  -0.000000e+00  5.214500e-01  8.532819e-01
    outer loop
      vertex  3.500000e+01  1.400000e+02  2.000000e+01
      vertex  2.000000e+01  1.400000e+02  2.000000e+01
      vertex  3.500000e+01  5.000000e+01  7.500000e+01
    endloop
  endfacet
  facet normal  0.000000e+00  5.214500e-01  8.532819e-01
    outer loop
      vertex  3.500000e+01  5.000000e+01  7.500000e+01
      vertex  2.000000e+01  1.400000e+02  2.000000e+01
      vertex  2.000000e+01  5.000000e+01  7.500000e+01
    endloop
  endfacet
  facet normal  1.000000e+00  0.000000e+00  0.000000e+00
    outer loop
      vertex  5.000000e+01  1.500000e+01  8.000000e+01
      vertex  5.000000e+01  1.576120e+01  8.382684e+01
      vertex  5.000000e+01  0.000000e+00  8.000000e+01
    endloop
  endfacet
  facet normal  1.000000e+00  0.000000e+00  0.000000e+00
    outer loop
      vertex  5.000000e+01  3.500000e+01  8.000000e+01
      vertex  5.000000e+01  5.000000e+01  8.000000e+01
      vertex  5.000000e+01  3.423880e+01  8.382684e+01
    endloop
  endfacet
  facet normal  1.000000e+00  -0.000000e+00  0.000000e+00
    outer loop
      vertex  5.000000e+01  1.500000e+02  2.000000e+01
      vertex  5.000000e+01  2.882683e+01  1.576120e+01
      vertex  5.000000e+01  2.500000e+01  1.500000e+01
    endloop
  endfacet
  facet normal  1.000000e+00  0.000000e+00  0.000000e+00
    outer loop
      vertex  5.000000e+01  5.000000e+01  2.000000e+01
      vertex  5.000000e+01  5.000000e+01  8.000000e+01
      vertex  5.000000e+01  3.500000e+01  8.000000e+01
    endloop
  endfacet
  facet normal  1.000000e+00  0.000000e+00  0.000000e+00
    outer loop
      vertex  5.000000e+01  5.000000e+01  2.000000e+01
      vertex  5.000000e+01  3.500000e+01  8.000000e+01
      vertex  5.000000e+01  3.500000e+01  2.500000e+01
    endloop
  endfacet
  facet normal  1.000000e+00  0.000000e+00  0.000000e+00
    outer loop
      vertex  5.000000e+01  5.000000e+01  2.000000e+01
      vertex  5.000000e+01  3.500000e+01  2.500000e+01
      vertex  5.000000e+01  3.423880e+01  2.117317e+01
    endloop
  endfacet
  facet normal  1.000000e+00  0.000000e+00  0.000000e+00
    outer loop
      vertex  5.000000e+01  5.000000e+01  2.000000e+01
      vertex  5.000000e+01  3.423880e+01  2.117317e+01
      vertex  5.000000e+01  3.207107e+01  1.792893e+01
    endloop
  endfacet
  facet normal  1.000000e+00  -0.000000e+00  0.000000e+00
    outer loop
      vertex  5.000000e+01  5.000000e+01  2.000000e+01
      vertex  5.000000e+01  3.207107e+01  1.792893e+01
      vertex  5.000000e+01  2.882683e+01  1.576120e+01
    endloop
  endfacet
  facet normal  1.000000e+00  0.000000e+00  0.000000e+00
    outer loop
      vertex  5.000000e+01  5.000000e+01  2.000000e+01
      vertex  5.000000e+01  2.882683e+01  1.576120e+01
      vertex  5.000000e+01  1.500000e+02  2.000000e+01
    endloop
  endfacet
  facet normal  1.000000e+00  -0.000000e+00  -0.000000e+00
    outer loop
      vertex  5.000000e+01  2.500000e+01  9.000000e+01
      vertex  5.000000e+01  2.882683e+01  8.923879e+01
      vertex  5.000000e+01  4.927354e+01  8.598289e+01
    endloop
  endfacet
  facet normal  1.000000e+00  0.000000e+00  0.000000e+00
    outer loop
      vertex  5.000000e+01  2.500000e+01  9.000000e+01
      vertex  5.000000e+01  4.927354e+01  8.598289e+01
      vertex  5.000000e+01  4.713640e+01  9.161808e+01
    endloop
  endfacet
  facet normal  9.999999e-01  0.000000e+00  0.000000e+00
    outer loop
      vertex  5.000000e+01  2.500000e+01  9.000000e+01
      vertex  5.000000e+01  4.713640e+01  9.161808e+01
      vertex  5.000000e+01  4.371277e+01  9.657806e+01
    endloop
  endfacet
  facet normal  1.000000e+00  0.000000e+00  0.000000e+00
    outer loop
      vertex  5.000000e+01  2.500000e+01  9.000000e+01
      vertex  5.000000e+01  4.371277e+01  9.657806e+01
      vertex  5.000000e+01  3.920162e+01  1.005746e+02
    endloop
  endfacet
  facet normal  1.000000e+00  0.000000e+00  0.000000e+00
    outer loop
      vertex  5.000000e+01  2.500000e+01  9.000000e+01
      vertex  5.000000e+01  3.920162e+01  1.005746e+02
      vertex  5.000000e+01  3.386512e+01  1.033754e+02
    endloop
  endfacet
  facet normal  1.000000e+00  0.000000e+00  0.000000e+00
    outer loop
      vertex  5.000000e+01  2.500000e+01  9.000000e+01
      vertex  5.000000e+01  3.386512e+01  1.033754e+02
      vertex  5.000000e+01  2.801342e+01  1.048177e+02
    endloop
  endfacet
  facet normal  1.000000e+00  0.000000e+00  0.000000e+00
    outer loop
      vertex  5.000000e+01  2.500000e+01  9.000000e+01
      vertex  5.000000e+01  2.801342e+01  1.048177e+02
      vertex  5.000000e+01  2.198658e+01  1.048177e+02
    endloop
  endfacet
  facet normal  1.000000e+00  0.000000e+00  0.000000e+00
    outer loop
      vertex  5.000000e+01  2.500000e+01  9.000000e+01
      vertex  5.000000e+01  2.198658e+01  1.048177e+02
      vertex  5.000000e+01  1.613488e+01  1.033754e+02
    endloop
  endfacet
  facet normal  1.000000e+00  0.000000e+00  0.000000e+00
    outer loop
      vertex  5.000000e+01  2.500000e+01  9.000000e+01
      vertex  5.000000e+01  1.613488e+01  1.033754e+02
      vertex  5.000000e+01  1.079838e+01  1.005746e+02
    endloop
  endfacet
  facet normal  1.000000e+00  0.000000e+00  0.000000e+00
    outer loop
      vertex  5.000000e+01  2.500000e+01  9.000000e+01
      vertex  5.000000e+01  1.079838e+01  1.005746e+02
      vertex  5.000000e+01  6.287231e+00  9.657806e+01
    endloop
  endfacet
  facet normal  9.999999e-01  0.000000e+00  0.000000e+00
    outer loop
      vertex  5.000000e+01  2.500000e+01  9.000000e+01
      vertex  5.000000e+01  6.287231e+00  9.657806e+01
      vertex  5.000000e+01  2.863599e+00  9.161808e+01
    endloop
  endfacet
  facet normal  9.999999e-01  0.000000e+00  0.000000e+00
    outer loop
      vertex  5.000000e+01  7.264546e-01  8.598289e+01
      vertex  5.000000e+01  0.000000e+00  8.000000e+01
      vertex  5.000000e+01  1.576120e+01  8.382684e+01
    endloop
  endfacet
  facet normal  1.000000e+00  0.000000e+00  -0.000000e+00
    outer loop
      vertex  5.000000e+01  7.264546e-01  8.598289e+01
      vertex  5.000000e+01  1.576120e+01  8.382684e+01
      vertex  5.000000e+01  1.792893e+01  8.707107e+01
    endloop
  endfacet
  facet normal  1.000000e+00  0.000000e+00  -0.000000e+00
    outer loop
      vertex  5.000000e+01  7.264546e-01  8.598289e+01
      vertex  5.000000e+01  1.792893e+01  8.707107e+01
      vertex  5.000000e+01  2.117317e+01  8.923879e+01
    endloop
  endfacet
  facet normal  1.000000e+00  0.000000e+00  -0.000000e+00
    outer loop
      vertex  5.000000e+01  7.264546e-01  8.598289e+01
      vertex  5.000000e+01  2.117317e+01  8.923879e+01
      vertex  5.000000e+01  2.500000e+01  9.000000e+01
    endloop
  endfacet
  facet normal  1.000000e+00  0.000000e+00  0.000000e+00
    outer loop
      vertex  5.000000e+01  7.264546e-01  8.598289e+01
      vertex  5.000000e+01  2.500000e+01  9.000000e+01
      vertex  5.000000e+01  2.863599e+00  9.161808e+01
    endloop
  endfacet
  facet normal  1.000000e+00  0.000000e+00  -0.000000e+00
    outer loop
      vertex  5.000000e+01  0.000000e+00  0.000000e+00
      vertex  5.000000e+01  1.500000e+02  0.000000e+00
      vertex  5.000000e+01  1.500000e+02  2.000000e+01
    endloop
  endfacet
  facet normal  1.000000e+00  0.000000e+00  0.000000e+00
    outer loop
      vertex  5.000000e+01  0.000000e+00  0.000000e+00
      vertex  5.000000e+01  1.500000e+02  2.000000e+01
      vertex  5.000000e+01  2.500000e+01  1.500000e+01
    endloop
  endfacet
  facet normal  1.000000e+00  0.000000e+00  0.000000e+00
    outer loop
      vertex  5.000000e+01  0.000000e+00  0.000000e+00
      vertex  5.000000e+01  2.500000e+01  1.500000e+01
      vertex  5.000000e+01  2.117317e+01  1.576120e+01
    endloop
  endfacet
  facet normal  1.000000e+00  0.000000e+00  0.000000e+00
    outer loop
      vertex  5.000000e+01  0.000000e+00  0.000000e+00
      vertex  5.000000e+01  2.117317e+01  1.576120e+01
      vertex  5.000000e+01  1.792893e+01  1.792893e+01
    endloop
  endfacet
  facet normal  1.000000e+00  0.000000e+00  0.000000e+00
    outer loop
      vertex  5.000000e+01  0.000000e+00  0.000000e+00
      vertex  5.000000e+01  1.792893e+01  1.792893e+01
      vertex  5.000000e+01  1.576120e+01  2.117317e+01
    endloop
  endfacet
  facet normal  1.000000e+00  0.000000e+00  0.000000e+00
    outer loop
      vertex  5.000000e+01  0.000000e+00  0.000000e+00
      vertex  5.000000e+01  1.576120e+01  2.117317e+01
      vertex  5.000000e+01  1.500000e+01  2.500000e+01
    endloop
  endfacet
  facet normal  1.000000e+00  0.000000e+00  -0.000000e+00
    outer loop
      vertex  5.000000e+01  0.000000e+00  0.000000e+00
      vertex  5.000000e+01  1.500000e+01  2.500000e+01
      vertex  5.000000e+01  1.500000e+01  8.000000e+01
    endloop
  endfacet
  facet normal  1.000000e+00  0.000000e+00  0.000000e+00
    outer loop
      vertex  5.000000e+01  0.000000e+00  0.000000e+00
      vertex  5.000000e+01  1.500000e+01  8.000000e+01
      vertex  5.000000e+01  0.000000e+00  8.000000e+01
    endloop
  endfacet
  facet normal  1.000000e+00  0.000000e+00  0.000000e+00
    outer loop
      vertex  5.000000e+01  3.423880e+01  8.382684e+01
      vertex  5.000000e+01  5.000000e+01  8.000000e+01
      vertex  5.000000e+01  3.207107e+01  8.707107e+01
    endloop
  endfacet
  facet normal  1.000000e+00  0.000000e+00  0.000000e+00
    outer loop
      vertex  5.000000e+01  3.207107e+01  8.707107e+01
      vertex  5.000000e+01  5.000000e+01  8.000000e+01
      vertex  5.000000e+01  4.927354e+01  8.598289e+01
    endloop
  endfacet
  facet normal  1.000000e+00  0.000000e+00  0.000000e+00
    outer loop
      vertex  5.000000e+01  3.207107e+01  8.707107e+01
      vertex  5.000000e+01  4.927354e+01  8.598289e+01
      vertex  5.000000e+01  2.882683e+01  8.923879e+01
    endloop
  endfacet
  facet normal -1.000000e+00  0.000000e+00  0.000000e+00
    outer loop
      vertex -5.000000e+01  0.000000e+00  8.000000e+01
      vertex -5.000000e+01  1.576120e+01  8.382684e+01
      vertex -5.000000e+01  1.500000e+01  8.000000e+01
    endloop
  endfacet
  facet normal -1.000000e+00  0.000000e+00  0.000000e+00
    outer loop
      vertex -5.000000e+01  3.423880e+01  8.382684e+01
      vertex -5.000000e+01  5.000000e+01  8.000000e+01
      vertex -5.000000e+01  3.500000e+01  8.000000e+01
    endloop
  endfacet
  facet normal -1.000000e+00  0.000000e+00  -0.000000e+00
    outer loop
      vertex -5.000000e+01  2.500000e+01  1.500000e+01
      vertex -5.000000e+01  2.882683e+01  1.576120e+01
      vertex -5.000000e+01  1.500000e+02  2.000000e+01
    endloop
  endfacet
  facet normal -1.000000e+00  -0.000000e+00  0.000000e+00
    outer loop
      vertex -5.000000e+01  5.000000e+01  2.000000e+01
      vertex -5.000000e+01  1.500000e+02  2.000000e+01
      vertex -5.000000e+01  2.882683e+01  1.576120e+01
    endloop
  endfacet
  facet normal -1.000000e+00  0.000000e+00  0.000000e+00
    outer loop
      vertex -5.000000e+01  5.000000e+01  2.000000e+01
      vertex -5.000000e+01  2.882683e+01  1.576120e+01
      vertex -5.000000e+01  3.207107e+01  1.792893e+01
    endloop
  endfacet
  facet normal -1.000000e+00  0.000000e+00  0.000000e+00
    outer loop
      vertex -5.000000e+01  5.000000e+01  2.000000e+01
      vertex -5.000000e+01  3.207107e+01  1.792893e+01
      vertex -5.000000e+01  3.423880e+01  2.117317e+01
    endloop
  endfacet
  facet normal -1.000000e+00  0.000000e+00  0.000000e+00
    outer loop
      vertex -5.000000e+01  5.000000e+01  2.000000e+01
      vertex -5.000000e+01  3.423880e+01  2.117317e+01
      vertex -5.000000e+01  3.500000e+01  2.500000e+01
    endloop
  endfacet
  facet normal -1.000000e+00  0.000000e+00  0.000000e+00
    outer loop
      vertex -5.000000e+01  5.000000e+01  2.000000e+01
      vertex -5.000000e+01  3.500000e+01  2.500000e+01
      vertex -5.000000e+01  3.500000e+01  8.000000e+01
    endloop
  endfacet
  facet normal -1.000000e+00  0.000000e+00  0.000000e+00
    outer loop
      vertex -5.000000e+01  5.000000e+01  2.000000e+01
      vertex -5.000000e+01  3.500000e+01  8.000000e+01
      vertex -5.000000e+01  5.000000e+01  8.000000e+01
    endloop
  endfacet
  facet normal -1.000000e+00  0.000000e+00  0.000000e+00
    outer loop
      vertex -5.000000e+01  2.500000e+01  9.000000e+01
      vertex -5.000000e+01  2.863599e+00  9.161808e+01
      vertex -5.000000e+01  6.287231e+00  9.657806e+01
    endloop
  endfacet
  facet normal -1.000000e+00  0.000000e+00  0.000000e+00
    outer loop
      vertex -5.000000e+01  2.500000e+01  9.000000e+01
      vertex -5.000000e+01  6.287231e+00  9.657806e+01
      vertex -5.000000e+01  1.079838e+01  1.005746e+02
    endloop
  endfacet
  facet normal -1.000000e+00  0.000000e+00  0.000000e+00
    outer loop
      vertex -5.000000e+01  2.500000e+01  9.000000e+01
      vertex -5.000000e+01  1.079838e+01  1.005746e+02
      vertex -5.000000e+01  1.613488e+01  1.033754e+02
    endloop
  endfacet
  facet normal -1.000000e+00  0.000000e+00  0.000000e+00
    outer loop
      vertex -5.000000e+01  2.500000e+01  9.000000e+01
      vertex -5.000000e+01  1.613488e+01  1.033754e+02
      vertex -5.000000e+01  2.198658e+01  1.048177e+02
    endloop
  endfacet
  facet normal -1.000000e+00  0.000000e+00  0.000000e+00
    outer loop
      vertex -5.000000e+01  2.500000e+01  9.000000e+01
      vertex -5.000000e+01  2.198658e+01  1.048177e+02
      vertex -5.000000e+01  2.801342e+01  1.048177e+02
    endloop
  endfacet
  facet normal -1.000000e+00  0.000000e+00  -0.000000e+00
    outer loop
      vertex -5.000000e+01  2.500000e+01  9.000000e+01
      vertex -5.000000e+01  2.801342e+01  1.048177e+02
      vertex -5.000000e+01  3.386512e+01  1.033754e+02
    endloop
  endfacet
  facet normal -1.000000e+00  0.000000e+00  -0.000000e+00
    outer loop
      vertex -5.000000e+01  2.500000e+01  9.000000e+01
      vertex -5.000000e+01  3.386512e+01  1.033754e+02
      vertex -5.000000e+01  3.920162e+01  1.005746e+02
    endloop
  endfacet
  facet normal -1.000000e+00  0.000000e+00  -0.000000e+00
    outer loop
      vertex -5.000000e+01  2.500000e+01  9.000000e+01
      vertex -5.000000e+01  3.920162e+01  1.005746e+02
      vertex -5.000000e+01  4.371277e+01  9.657806e+01
    endloop
  endfacet
  facet normal -1.000000e+00  0.000000e+00  -0.000000e+00
    outer loop
      vertex -5.000000e+01  2.500000e+01  9.000000e+01
      vertex -5.000000e+01  4.371277e+01  9.657806e+01
      vertex -5.000000e+01  4.713640e+01  9.161808e+01
    endloop
  endfacet
  facet normal -1.000000e+00  0.000000e+00  -0.000000e+00
    outer loop
      vertex -5.000000e+01  2.500000e+01  9.000000e+01
      vertex -5.000000e+01  4.713640e+01  9.161808e+01
      vertex -5.000000e+01  4.927354e+01  8.598289e+01
    endloop
  endfacet
  facet normal -1.000000e+00  0.000000e+00  0.000000e+00
    outer loop
      vertex -5.000000e+01  2.500000e+01  9.000000e+01
      vertex -5.000000e+01  4.927354e+01  8.598289e+01
      vertex -5.000000e+01  2.882683e+01  8.923879e+01
    endloop
  endfacet
  facet normal -1.000000e+00  0.000000e+00  -0.000000e+00
    outer loop
      vertex -5.000000e+01  7.264546e-01  8.598289e+01
      vertex -5.000000e+01  2.863599e+00  9.161808e+01
      vertex -5.000000e+01  2.500000e+01  9.000000e+01
    endloop
  endfacet
  facet normal -1.000000e+00  0.000000e+00  0.000000e+00
    outer loop
      vertex -5.000000e+01  7.264546e-01  8.598289e+01
      vertex -5.000000e+01  2.500000e+01  9.000000e+01
      vertex -5.000000e+01  2.117317e+01  8.923879e+01
    endloop
  endfacet
  facet normal -1.000000e+00  0.000000e+00  0.000000e+00
    outer loop
      vertex -5.000000e+01  7.264546e-01  8.598289e+01
      vertex -5.000000e+01  2.117317e+01  8.923879e+01
      vertex -5.000000e+01  1.792893e+01  8.707107e+01
    endloop
  endfacet
  facet normal -1.000000e+00  0.000000e+00  0.000000e+00
    outer loop
      vertex -5.000000e+01  7.264546e-01  8.598289e+01
      vertex -5.000000e+01  1.792893e+01  8.707107e+01
      vertex -5.000000e+01  1.576120e+01  8.382684e+01
    endloop
  endfacet
  facet normal -9.999999e-01  -0.000000e+00  0.000000e+00
    outer loop
      vertex -5.000000e+01  7.264546e-01  8.598289e+01
      vertex -5.000000e+01  1.576120e+01  8.382684e+01
      vertex -5.000000e+01  0.000000e+00  8.000000e+01
    endloop
  endfacet
  facet normal -1.000000e+00  0.000000e+00  0.000000e+00
    outer loop
      vertex -5.000000e+01  0.000000e+00  0.000000e+00
      vertex -5.000000e+01  0.000000e+00  8.000000e+01
      vertex -5.000000e+01  1.500000e+01  8.000000e+01
    endloop
  endfacet
  facet normal -1.000000e+00  0.000000e+00  -0.000000e+00
    outer loop
      vertex -5.000000e+01  0.000000e+00  0.000000e+00
      vertex -5.000000e+01  1.500000e+01  8.000000e+01
      vertex -5.000000e+01  1.500000e+01  2.500000e+01
    endloop
  endfacet
  facet normal -1.000000e+00  0.000000e+00  -0.000000e+00
    outer loop
      vertex -5.000000e+01  0.000000e+00  0.000000e+00
      vertex -5.000000e+01  1.500000e+01  2.500000e+01
      vertex -5.000000e+01  1.576120e+01  2.117317e+01
    endloop
  endfacet
  facet normal -1.000000e+00  0.000000e+00  -0.000000e+00
    outer loop
      vertex -5.000000e+01  0.000000e+00  0.000000e+00
      vertex -5.000000e+01  1.576120e+01  2.117317e+01
      vertex -5.000000e+01  1.792893e+01  1.792893e+01
    endloop
  endfacet
  facet normal -1.000000e+00  0.000000e+00  -0.000000e+00
    outer loop
      vertex -5.000000e+01  0.000000e+00  0.000000e+00
      vertex -5.000000e+01  1.792893e+01  1.792893e+01
      vertex -5.000000e+01  2.117317e+01  1.576120e+01
    endloop
  endfacet
  facet normal -1.000000e+00  0.000000e+00  -0.000000e+00
    outer loop
      vertex -5.000000e+01  0.000000e+00  0.000000e+00
      vertex -5.000000e+01  2.117317e+01  1.576120e+01
      vertex -5.000000e+01  2.500000e+01  1.500000e+01
    endloop
  endfacet
  facet normal -1.000000e+00  0.000000e+00  -0.000000e+00
    outer loop
      vertex -5.000000e+01  0.000000e+00  0.000000e+00
      vertex -5.000000e+01  2.500000e+01  1.500000e+01
      vertex -5.000000e+01  1.500000e+02  2.000000e+01
    endloop
  endfacet
  facet normal -1.000000e+00  0.000000e+00  -0.000000e+00
    outer loop
      vertex -5.000000e+01  0.000000e+00  0.000000e+00
      vertex -5.000000e+01  1.500000e+02  2.000000e+01
      vertex -5.000000e+01  1.500000e+02  0.000000e+00
    endloop
  endfacet
  facet normal -1.000000e+00  0.000000e+00  0.000000e+00
    outer loop
      vertex -5.000000e+01  2.882683e+01  8.923879e+01
      vertex -5.000000e+01  4.927354e+01  8.598289e+01
      vertex -5.000000e+01  3.207107e+01  8.707107e+01
    endloop
  endfacet
  facet normal -1.000000e+00  0.000000e+00  0.000000e+00
    outer loop
      vertex -5.000000e+01  3.207107e+01  8.707107e+01
      vertex -5.000000e+01  4.927354e+01  8.598289e+01
      vertex -5.000000e+01  5.000000e+01  8.000000e+01
    endloop
  endfacet
  facet normal -1.000000e+00  0.000000e+00  0.000000e+00
    outer loop
      vertex -5.000000e+01  3.207107e+01  8.707107e+01
      vertex -5.000000e+01  5.000000e+01  8.000000e+01
      vertex -5.000000e+01  3.423880e+01  8.382684e+01
    endloop
  endfacet
  facet normal  0.000000e+00  1.950911e-01 -9.807851e-01
    outer loop
      vertex -5.000000e+01  2.500000e+01  9.000000e+01
      vertex  5.000000e+01  2.117317e+01  8.923879e+01
      vertex -5.000000e+01  2.117317e+01  8.923879e+01
    endloop
  endfacet
  facet normal  0.000000e+00  5.555696e-01 -8.314700e-01
    outer loop
      vertex -5.000000e+01  2.117317e+01  8.923879e+01
      vertex  5.000000e+01  2.117317e+01  8.923879e+01
      vertex  5.000000e+01  1.792893e+01  8.707107e+01
    endloop
  endfacet
  facet normal  0.000000e+00  5.555696e-01 -8.314700e-01
    outer loop
      vertex -5.000000e+01  2.117317e+01  8.923879e+01
      vertex  5.000000e+01  1.792893e+01  8.707107e+01
      vertex -5.000000e+01  1.792893e+01  8.707107e+01
    endloop
  endfacet
  facet normal  0.000000e+00  8.314695e-01 -5.555704e-01
    outer loop
      vertex -5.000000e+01  1.792893e+01  8.707107e+01
      vertex  5.000000e+01  1.792893e+01  8.707107e+01
      vertex  5.000000e+01  1.576120e+01  8.382684e+01
    endloop
  endfacet
  facet normal  0.000000e+00  8.314695e-01 -5.555704e-01
    outer loop
      vertex -5.000000e+01  1.792893e+01  8.707107e+01
      vertex  5.000000e+01  1.576120e+01  8.382684e+01
      vertex -5.000000e+01  1.576120e+01  8.382684e+01
    endloop
  endfacet
  facet normal  0.000000e+00  9.807854e-01 -1.950903e-01
    outer loop
      vertex -5.000000e+01  1.576120e+01  8.382684e+01
      vertex  5.000000e+01  1.576120e+01  8.382684e+01
      vertex  5.000000e+01  1.500000e+01  8.000000e+01
    endloop
  endfacet
  facet normal  0.000000e+00  9.807854e-01 -1.950903e-01
    outer loop
      vertex -5.000000e+01  1.576120e+01  8.382684e+01
      vertex  5.000000e+01  1.500000e+01  8.000000e+01
      vertex -5.000000e+01  1.500000e+01  8.000000e+01
    endloop
  endfacet
  facet normal  0.000000e+00  1.950911e-01 -9.807851e-01
    outer loop
      vertex  5.000000e+01  2.117317e+01  8.923879e+01
      vertex -5.000000e+01  2.500000e+01  9.000000e+01
      vertex  5.000000e+01  2.500000e+01  9.000000e+01
    endloop
  endfacet
  facet normal  -0.000000e+00 -1.950911e-01 -9.807851e-01
    outer loop
      vertex  5.000000e+01  2.500000e+01  9.000000e+01
      vertex -5.000000e+01  2.500000e+01  9.000000e+01
      vertex -5.000000e+01  2.882683e+01  8.923879e+01
    endloop
  endfacet
  facet normal  0.000000e+00 -1.950911e-01 -9.807851e-01
    outer loop
      vertex  5.000000e+01  2.500000e+01  9.000000e+01
      vertex -5.000000e+01  2.882683e+01  8.923879e+01
      vertex  5.000000e+01  2.882683e+01  8.923879e+01
    endloop
  endfacet
  facet normal  -0.000000e+00 -5.555696e-01 -8.314700e-01
    outer loop
      vertex  5.000000e+01  2.882683e+01  8.923879e+01
      vertex -5.000000e+01  2.882683e+01  8.923879e+01
      vertex -5.000000e+01  3.207107e+01  8.707107e+01
    endloop
  endfacet
  facet normal  0.000000e+00 -5.555696e-01 -8.314700e-01
    outer loop
      vertex  5.000000e+01  2.882683e+01  8.923879e+01
      vertex -5.000000e+01  3.207107e+01  8.707107e+01
      vertex  5.000000e+01  3.207107e+01  8.707107e+01
    endloop
  endfacet
  facet normal  -0.000000e+00 -8.314694e-01 -5.555705e-01
    outer loop
      vertex  5.000000e+01  3.207107e+01  8.707107e+01
      vertex -5.000000e+01  3.207107e+01  8.707107e+01
      vertex -5.000000e+01  3.423880e+01  8.382684e+01
    endloop
  endfacet
  facet normal  0.000000e+00 -8.314694e-01 -5.555705e-01
    outer loop
      vertex  5.000000e+01  3.207107e+01  8.707107e+01
      vertex -5.000000e+01  3.423880e+01  8.382684e+01
      vertex  5.000000e+01  3.423880e+01  8.382684e+01
    endloop
  endfacet
  facet normal  -0.000000e+00 -9.807854e-01 -1.950900e-01
    outer loop
      vertex  5.000000e+01  3.423880e+01  8.382684e+01
      vertex -5.000000e+01  3.423880e+01  8.382684e+01
      vertex -5.000000e+01  3.500000e+01  8.000000e+01
    endloop
  endfacet
  facet normal  0.000000e+00 -9.807854e-01 -1.950900e-01
    outer loop
      vertex  5.000000e+01  3.423880e+01  8.382684e+01
      vertex -5.000000e+01  3.500000e+01  8.000000e+01
      vertex  5.000000e+01  3.500000e+01  8.000000e+01
    endloop
  endfacet
  facet normal  0.000000e+00  1.000000e+00  0.000000e+00
    outer loop
      vertex -5.000000e+01  1.500000e+01  2.500000e+01
      vertex -5.000000e+01  1.500000e+01  8.000000e+01
      vertex  5.000000e+01  1.500000e+01  2.500000e+01
    endloop
  endfacet
  facet normal  0.000000e+00  1.000000e+00  -0.000000e+00
    outer loop
      vertex  5.000000e+01  1.500000e+01  2.500000e+01
      vertex -5.000000e+01  1.500000e+01  8.000000e+01
      vertex  5.000000e+01  1.500000e+01  8.000000e+01
    endloop
  endfacet
  facet normal  0.000000e+00 -1.950904e-01  9.807853e-01
    outer loop
      vertex -5.000000e+01  2.500000e+01  1.500000e+01
      vertex  5.000000e+01  2.882683e+01  1.576120e+01
      vertex -5.000000e+01  2.882683e+01  1.576120e+01
    endloop
  endfacet
  facet normal  0.000000e+00 -5.555702e-01  8.314697e-01
    outer loop
      vertex -5.000000e+01  2.882683e+01  1.576120e+01
      vertex  5.000000e+01  2.882683e+01  1.576120e+01
      vertex  5.000000e+01  3.207107e+01  1.792893e+01
    endloop
  endfacet
  facet normal  0.000000e+00 -5.555702e-01  8.314697e-01
    outer loop
      vertex -5.000000e+01  2.882683e+01  1.576120e+01
      vertex  5.000000e+01  3.207107e+01  1.792893e+01
      vertex -5.000000e+01  3.207107e+01  1.792893e+01
    endloop
  endfacet
  facet normal  0.000000e+00 -8.314695e-01  5.555703e-01
    outer loop
      vertex -5.000000e+01  3.207107e+01  1.792893e+01
      vertex  5.000000e+01  3.207107e+01  1.792893e+01
      vertex  5.000000e+01  3.423880e+01  2.117317e+01
    endloop
  endfacet
  facet normal  0.000000e+00 -8.314695e-01  5.555703e-01
    outer loop
      vertex -5.000000e+01  3.207107e+01  1.792893e+01
      vertex  5.000000e+01  3.423880e+01  2.117317e+01
      vertex -5.000000e+01  3.423880e+01  2.117317e+01
    endloop
  endfacet
  facet normal  0.000000e+00 -9.807853e-01  1.950901e-01
    outer loop
      vertex -5.000000e+01  3.423880e+01  2.117317e+01
      vertex  5.000000e+01  3.423880e+01  2.117317e+01
      vertex  5.000000e+01  3.500000e+01  2.500000e+01
    endloop
  endfacet
  facet normal  0.000000e+00 -9.807853e-01  1.950901e-01
    outer loop
      vertex -5.000000e+01  3.423880e+01  2.117317e+01
      vertex  5.000000e+01  3.500000e+01  2.500000e+01
      vertex -5.000000e+01  3.500000e+01  2.500000e+01
    endloop
  endfacet
  facet normal  0.000000e+00 -1.950904e-01  9.807853e-01
    outer loop
      vertex  5.000000e+01  2.882683e+01  1.576120e+01
      vertex -5.000000e+01  2.500000e+01  1.500000e+01
      vertex  5.000000e+01  2.500000e+01  1.500000e+01
    endloop
  endfacet
  facet normal  0.000000e+00  1.950904e-01  9.807853e-01
    outer loop
      vertex  5.000000e+01  2.500000e+01  1.500000e+01
      vertex -5.000000e+01  2.500000e+01  1.500000e+01
      vertex -5.000000e+01  2.117317e+01  1.576120e+01
    endloop
  endfacet
  facet normal  -0.000000e+00  1.950904e-01  9.807853e-01
    outer loop
      vertex  5.000000e+01  2.500000e+01  1.500000e+01
      vertex -5.000000e+01  2.117317e+01  1.576120e+01
      vertex  5.000000e+01  2.117317e+01  1.576120e+01
    endloop
  endfacet
  facet normal  0.000000e+00  5.555702e-01  8.314697e-01
    outer loop
      vertex  5.000000e+01  2.117317e+01  1.576120e+01
      vertex -5.000000e+01  2.117317e+01  1.576120e+01
      vertex -5.000000e+01  1.792893e+01  1.792893e+01
    endloop
  endfacet
  facet normal  -0.000000e+00  5.555702e-01  8.314697e-01
    outer loop
      vertex  5.000000e+01  2.117317e+01  1.576120e+01
      vertex -5.000000e+01  1.792893e+01  1.792893e+01
      vertex  5.000000e+01  1.792893e+01  1.792893e+01
    endloop
  endfacet
  facet normal  0.000000e+00  8.314697e-01  5.555702e-01
    outer loop
      vertex  5.000000e+01  1.792893e+01  1.792893e+01
      vertex -5.000000e+01  1.792893e+01  1.792893e+01
      vertex -5.000000e+01  1.576120e+01  2.117317e+01
    endloop
  endfacet
  facet normal  -0.000000e+00  8.314697e-01  5.555702e-01
    outer loop
      vertex  5.000000e+01  1.792893e+01  1.792893e+01
      vertex -5.000000e+01  1.576120e+01  2.117317e+01
      vertex  5.000000e+01  1.576120e+01  2.117317e+01
    endloop
  endfacet
  facet normal  0.000000e+00  9.807853e-01  1.950904e-01
    outer loop
      vertex  5.000000e+01  1.576120e+01  2.117317e+01
      vertex -5.000000e+01  1.576120e+01  2.117317e+01
      vertex -5.000000e+01  1.500000e+01  2.500000e+01
    endloop
  endfacet
  facet normal  -0.000000e+00  9.807853e-01  1.950904e-01
    outer loop
      vertex  5.000000e+01  1.576120e+01  2.117317e+01
      vertex -5.000000e+01  1.500000e+01  2.500000e+01
      vertex  5.000000e+01  1.500000e+01  2.500000e+01
    endloop
  endfacet
  facet normal  0.000000e+00 -1.000000e+00  0.000000e+00
    outer loop
      vertex -5.000000e+01  3.500000e+01  8.000000e+01
      vertex -5.000000e+01  3.500000e+01  2.500000e+01
      vertex  5.000000e+01  3.500000e+01  8.000000e+01
    endloop
  endfacet
  facet normal  0.000000e+00 -1.000000e+00  -0.000000e+00
    outer loop
      vertex  5.000000e+01  3.500000e+01  8.000000e+01
      vertex -5.000000e+01  3.500000e+01  2.500000e+01
      vertex  5.000000e+01  3.500000e+01  2.500000e+01
    endloop
  endfacet
  facet normal  0.000000e+00 -9.927089e-01  1.205366e-01
    outer loop
      vertex -5.000000e+01  0.000000e+00  8.000000e+01
      vertex  5.000000e+01  0.000000e+00  8.000000e+01
      vertex -5.000000e+01  7.264546e-01  8.598289e+01
    endloop
  endfacet
  facet normal  0.000000e+00 -9.927089e-01  1.205366e-01
    outer loop
      vertex -5.000000e+01  7.264546e-01  8.598289e+01
      vertex  5.000000e+01  0.000000e+00  8.000000e+01
      vertex  5.000000e+01  7.264546e-01  8.598289e+01
    endloop
  endfacet
  facet normal  0.000000e+00 -9.350163e-01  3.546050e-01
    outer loop
      vertex -5.000000e+01  7.264546e-01  8.598289e+01
      vertex  5.000000e+01  7.264546e-01  8.598289e+01
      vertex -5.000000e+01  2.863599e+00  9.161808e+01
    endloop
  endfacet
  facet normal  0.000000e+00 -9.350163e-01  3.546050e-01
    outer loop
      vertex -5.000000e+01  2.863599e+00  9.161808e+01
      vertex  5.000000e+01  7.264546e-01  8.598289e+01
      vertex  5.000000e+01  2.863599e+00  9.161808e+01
    endloop
  endfacet
  facet normal  0.000000e+00 -8.229836e-01  5.680650e-01
    outer loop
      vertex -5.000000e+01  2.863599e+00  9.161808e+01
      vertex  5.000000e+01  2.863599e+00  9.161808e+01
      vertex -5.000000e+01  6.287231e+00  9.657806e+01
    endloop
  endfacet
  facet normal  0.000000e+00 -8.229836e-01  5.680650e-01
    outer loop
      vertex -5.000000e+01  6.287231e+00  9.657806e+01
      vertex  5.000000e+01  2.863599e+00  9.161808e+01
      vertex  5.000000e+01  6.287231e+00  9.657806e+01
    endloop
  endfacet
  facet normal  0.000000e+00 -6.631232e-01  7.485103e-01
    outer loop
      vertex -5.000000e+01  6.287231e+00  9.657806e+01
      vertex  5.000000e+01  6.287231e+00  9.657806e+01
      vertex -5.000000e+01  1.079838e+01  1.005746e+02
    endloop
  endfacet
  facet normal  0.000000e+00 -6.631232e-01  7.485103e-01
    outer loop
      vertex -5.000000e+01  1.079838e+01  1.005746e+02
      vertex  5.000000e+01  6.287231e+00  9.657806e+01
      vertex  5.000000e+01  1.079838e+01  1.005746e+02
    endloop
  endfacet
  facet normal  0.000000e+00 -4.647225e-01  8.854564e-01
    outer loop
      vertex -5.000000e+01  1.079838e+01  1.005746e+02
      vertex  5.000000e+01  1.079838e+01  1.005746e+02
      vertex -5.000000e+01  1.613488e+01  1.033754e+02
    endloop
  endfacet
  facet normal  0.000000e+00 -4.647225e-01  8.854564e-01
    outer loop
      vertex -5.000000e+01  1.613488e+01  1.033754e+02
      vertex  5.000000e+01  1.079838e+01  1.005746e+02
      vertex  5.000000e+01  1.613488e+01  1.033754e+02
    endloop
  endfacet
  facet normal  0.000000e+00 -2.393154e-01  9.709420e-01
    outer loop
      vertex -5.000000e+01  1.613488e+01  1.033754e+02
      vertex  5.000000e+01  1.613488e+01  1.033754e+02
      vertex -5.000000e+01  2.198658e+01  1.048177e+02
    endloop
  endfacet
  facet normal  0.000000e+00 -2.393154e-01  9.709420e-01
    outer loop
      vertex -5.000000e+01  2.198658e+01  1.048177e+02
      vertex  5.000000e+01  1.613488e+01  1.033754e+02
      vertex  5.000000e+01  2.198658e+01  1.048177e+02
    endloop
  endfacet
  facet normal  0.000000e+00  0.000000e+00  1.000000e+00
    outer loop
      vertex -5.000000e+01  2.198658e+01  1.048177e+02
      vertex  5.000000e+01  2.198658e+01  1.048177e+02
      vertex -5.000000e+01  2.801342e+01  1.048177e+02
    endloop
  endfacet
  facet normal  -0.000000e+00  0.000000e+00  1.000000e+00
    outer loop
      vertex -5.000000e+01  2.801342e+01  1.048177e+02
      vertex  5.000000e+01  2.198658e+01  1.048177e+02
      vertex  5.000000e+01  2.801342e+01  1.048177e+02
    endloop
  endfacet
  facet normal  0.000000e+00  2.393153e-01  9.709420e-01
    outer loop
      vertex -5.000000e+01  2.801342e+01  1.048177e+02
      vertex  5.000000e+01  2.801342e+01  1.048177e+02
      vertex -5.000000e+01  3.386512e+01  1.033754e+02
    endloop
  endfacet
  facet normal  -0.000000e+00  2.393153e-01  9.709420e-01
    outer loop
      vertex -5.000000e+01  3.386512e+01  1.033754e+02
      vertex  5.000000e+01  2.801342e+01  1.048177e+02
      vertex  5.000000e+01  3.386512e+01  1.033754e+02
    endloop
  endfacet
  facet normal  0.000000e+00  4.647227e-01  8.854564e-01
    outer loop
      vertex -5.000000e+01  3.386512e+01  1.033754e+02
      vertex  5.000000e+01  3.386512e+01  1.033754e+02
      vertex -5.000000e+01  3.920162e+01  1.005746e+02
    endloop
  endfacet
  facet normal  -0.000000e+00  4.647227e-01  8.854564e-01
    outer loop
      vertex -5.000000e+01  3.920162e+01  1.005746e+02
      vertex  5.000000e+01  3.386512e+01  1.033754e+02
      vertex  5.000000e+01  3.920162e+01  1.005746e+02
    endloop
  endfacet
  facet normal  0.000000e+00  6.631232e-01  7.485103e-01
    outer loop
      vertex -5.000000e+01  3.920162e+01  1.005746e+02
      vertex  5.000000e+01  3.920162e+01  1.005746e+02
      vertex -5.000000e+01  4.371277e+01  9.657806e+01
    endloop
  endfacet
  facet normal  -0.000000e+00  6.631232e-01  7.485103e-01
    outer loop
      vertex -5.000000e+01  4.371277e+01  9.657806e+01
      vertex  5.000000e+01  3.920162e+01  1.005746e+02
      vertex  5.000000e+01  4.371277e+01  9.657806e+01
    endloop
  endfacet
  facet normal  0.000000e+00  8.229835e-01  5.680652e-01
    outer loop
      vertex -5.000000e+01  4.371277e+01  9.657806e+01
      vertex  5.000000e+01  4.371277e+01  9.657806e+01
      vertex -5.000000e+01  4.713640e+01  9.161808e+01
    endloop
  endfacet
  facet normal  -0.000000e+00  8.229835e-01  5.680652e-01
    outer loop
      vertex -5.000000e+01  4.713640e+01  9.161808e+01
      vertex  5.000000e+01  4.371277e+01  9.657806e+01
      vertex  5.000000e+01  4.713640e+01  9.161808e+01
    endloop
  endfacet
  facet normal  0.000000e+00  9.350163e-01  3.546046e-01
    outer loop
      vertex -5.000000e+01  4.713640e+01  9.161808e+01
      vertex  5.000000e+01  4.713640e+01  9.161808e+01
      vertex -5.000000e+01  4.927354e+01  8.598289e+01
    endloop
  endfacet
  facet normal  -0.000000e+00  9.350163e-01  3.546046e-01
    outer loop
      vertex -5.000000e+01  4.927354e+01  8.598289e+01
      vertex  5.000000e+01  4.713640e+01  9.161808e+01
      vertex  5.000000e+01  4.927354e+01  8.598289e+01
    endloop
  endfacet
  facet normal  0.000000e+00  9.927089e-01  1.205368e-01
    outer loop
      vertex -5.000000e+01  4.927354e+01  8.598289e+01
      vertex  5.000000e+01  4.927354e+01  8.598289e+01
      vertex -5.000000e+01  5.000000e+01  8.000000e+01
    endloop
  endfacet
  facet normal  -0.000000e+00  9.927089e-01  1.205368e-01
    outer loop
      vertex -5.000000e+01  5.000000e+01  8.000000e+01
      vertex  5.000000e+01  4.927354e+01  8.598289e+01
      vertex  5.000000e+01  5.000000e+01  8.000000e+01
    endloop
  endfacet
  facet normal  0.000000e+00  1.000000e+00  0.000000e+00
    outer loop
      vertex -5.000000e+01  1.500000e+02  0.000000e+00
      vertex -5.000000e+01  1.500000e+02  2.000000e+01
      vertex  5.000000e+01  1.500000e+02  0.000000e+00
    endloop
  endfacet
  facet normal  0.000000e+00  1.000000e+00  -0.000000e+00
    outer loop
      vertex  5.000000e+01  1.500000e+02  0.000000e+00
      vertex -5.000000e+01  1.500000e+02  2.000000e+01
      vertex  5.000000e+01  1.500000e+02  2.000000e+01
    endloop
  endfacet
  facet normal  0.000000e+00  0.000000e+00 -1.000000e+00
    outer loop
      vertex  5.000000e+01  0.000000e+00  0.000000e+00
      vertex -5.000000e+01  0.000000e+00  0.000000e+00
      vertex  5.000000e+01  1.500000e+02  0.000000e+00
    endloop
  endfacet
  facet normal  -0.000000e+00  0.000000e+00 -1.000000e+00
    outer loop
      vertex  5.000000e+01  1.500000e+02  0.000000e+00
      vertex -5.000000e+01  0.000000e+00  0.000000e+00
      vertex -5.000000e+01  1.500000e+02  0.000000e+00
    endloop
  endfacet
  facet normal  0.000000e+00 -1.000000e+00  0.000000e+00
    outer loop
      vertex -5.000000e+01  0.000000e+00  8.000000e+01
      vertex -5.000000e+01  0.000000e+00  0.000000e+00
      vertex  5.000000e+01  0.000000e+00  8.000000e+01
    endloop
  endfacet
  facet normal  0.000000e+00 -1.000000e+00  -0.000000e+00
    outer loop
      vertex  5.000000e+01  0.000000e+00  8.000000e+01
      vertex -5.000000e+01  0.000000e+00  0.000000e+00
      vertex  5.000000e+01  0.000000e+00  0.000000e+00
    endloop
  endfacet
endsolid CATIA STL
